<svg width="108" height="108" viewBox="0 0 108 108" fill="none" xmlns="http://www.w3.org/2000/svg">
<circle cx="54" cy="54" r="54" fill="#B6EDFD"/>
<path d="M35.7567 83.1892C43.8171 83.1892 50.3513 76.655 50.3513 68.5946H21.1621C21.1621 76.655 27.6963 83.1892 35.7567 83.1892Z" fill="white"/>
<path d="M10.9458 68.5946C10.9458 62.1463 16.1732 56.9189 22.6215 56.9189H49.6215C56.0698 56.9189 61.2972 62.1463 61.2972 68.5946V68.5946H10.9458V68.5946Z" fill="#00B0EF"/>
<mask id="mask0_586_804" style="mask-type:alpha" maskUnits="userSpaceOnUse" x="0" y="0" width="108" height="108">
<circle cx="54" cy="54" r="54" fill="#B6EDFD"/>
</mask>
<g mask="url(#mask0_586_804)">
<path d="M67.8648 25.1757H4.74316V-1.82434H110.554V47.0676H89.7567C83.7114 47.0676 78.8107 42.1669 78.8107 36.1216C78.8107 30.0763 73.9101 25.1757 67.8648 25.1757Z" fill="#00B0EF"/>
</g>
</svg>
