<svg xmlns="http://www.w3.org/2000/svg" viewBox="0 0 431.8 394.92"><defs><style>.cls-1{fill:#1cf8Bd;}</style></defs><title>circle-logo</title><g id="Layer_2" data-name="Layer 2"><g id="Layer_1-2" data-name="Layer 1"><path class="cls-1" d="M204.29,174.74,203.84,248a2.27,2.27,0,0,1-2.07,2.27.61.61,0,0,1-.23,0,2.29,2.29,0,0,1-2.25-1.83l-12.08-56c-2.82,4.7-6.37,13.54-3.93,25.88,2.55,12.65,9.79,18.78,9.86,18.83a2.3,2.3,0,1,1-2.91,3.55c-.37-.29-8.6-7.26-11.45-21.47-4.22-21.08,7.47-33.36,8-33.85a2.3,2.3,0,0,1,3.91,1.11L199.37,227l.32-52.24a2.31,2.31,0,0,1,2.3-2.3h0A2.31,2.31,0,0,1,204.29,174.74Z"/><path class="cls-1" d="M241.82,180a2.32,2.32,0,0,1-3.26,0,12.4,12.4,0,0,0-3.88-2.34v71.66a2.3,2.3,0,1,1-4.59,0V176.64l-3.66-1.45a2.3,2.3,0,0,1-1.36-2.77,2.27,2.27,0,0,1,2.64-1.63c1,.19,10.13,2,14.11,6A2.32,2.32,0,0,1,241.82,180Z"/><path class="cls-1" d="M222.18,251.86a2.32,2.32,0,0,1-2,2.3,19,19,0,0,1-2.62.18,15.82,15.82,0,0,1-7.34-1.59,2.3,2.3,0,1,1,2.22-4,9.54,9.54,0,0,0,1.06.42V174.72l-2.74.49a2.31,2.31,0,0,1-.81-4.55l9.51-1.68a2.29,2.29,0,0,1,2.67,1.83,2.27,2.27,0,0,1-1.78,2.67l-2.25.47v75.39l2.05.25A2.3,2.3,0,0,1,222.18,251.86Z"/><path class="cls-1" d="M204.29,174.74,203.84,248a2.27,2.27,0,0,1-2.07,2.27.61.61,0,0,1-.23,0,2.29,2.29,0,0,1-2.25-1.83l-12.08-56c-2.82,4.7-6.37,13.54-3.93,25.88,2.55,12.65,9.79,18.78,9.86,18.83a2.3,2.3,0,1,1-2.91,3.55c-.37-.29-8.6-7.26-11.45-21.47-4.22-21.08,7.47-33.36,8-33.85a2.3,2.3,0,0,1,3.91,1.11L199.37,227l.32-52.24a2.31,2.31,0,0,1,2.3-2.3h0A2.31,2.31,0,0,1,204.29,174.74Z"/><path class="cls-1" d="M222.18,251.86a2.32,2.32,0,0,1-2,2.3,19,19,0,0,1-2.62.18,15.82,15.82,0,0,1-7.34-1.59,2.3,2.3,0,1,1,2.22-4,9.54,9.54,0,0,0,1.06.42V174.72l-2.74.49a2.31,2.31,0,0,1-.81-4.55l9.51-1.68a2.29,2.29,0,0,1,2.67,1.83,2.27,2.27,0,0,1-1.78,2.67l-2.25.47v75.39l2.05.25A2.3,2.3,0,0,1,222.18,251.86Z"/><path class="cls-1" d="M241.82,180a2.32,2.32,0,0,1-3.26,0,12.4,12.4,0,0,0-3.88-2.34v71.66a2.3,2.3,0,1,1-4.59,0V176.64l-3.66-1.45a2.3,2.3,0,0,1-1.36-2.77,2.27,2.27,0,0,1,2.64-1.63c1,.19,10.13,2,14.11,6A2.32,2.32,0,0,1,241.82,180Z"/><path class="cls-1" d="M288.35,203.6l-.39-3.11-6.38.86a62.14,62.14,0,0,0-10.13-24.51l5.14-3.9L275,170.81a69.4,69.4,0,0,0-12.28-12.48l-2.94-2.27-3.93,5.14A62.67,62.67,0,0,0,231.34,151l.85-6.37-2.65-.35a69.82,69.82,0,0,0-17.69-.1l-3.51.47.86,6.35a62.37,62.37,0,0,0-24.48,10.18L180.81,156l-2.12,1.64A68.46,68.46,0,0,0,167,169.06l-3,3.85,5.14,3.93a62.09,62.09,0,0,0-10.16,24.49l-6.37-.86-.35,2.66a70.51,70.51,0,0,0-.07,17.65l.47,3.56,6.37-.89a62.28,62.28,0,0,0,10.21,24.48l-5.12,3.91,1.63,2.15a71.59,71.59,0,0,0,11.39,11.69l3.91,3,3.88-5.11a62.19,62.19,0,0,0,24.51,10.1l-.84,6.38,2.67.35a69.52,69.52,0,0,0,9,.59,75.38,75.38,0,0,0,8.7-.54l3.51-.5-.89-6.35A62.08,62.08,0,0,0,256,263.31l3.93,5.11,2.13-1.66a67.53,67.53,0,0,0,13-13.14l1-1.31-.47-.94v-.69l-4.05-3.09a62.25,62.25,0,0,0,10.06-24.54l6.37.84.35-2.67a67,67,0,0,0,.57-8.84A69.11,69.11,0,0,0,288.35,203.6Zm-5.06,14.26-6.25-.81-.35,2.66a57.3,57.3,0,0,1-11,26.82l-1.63,2.15,5,3.83a63,63,0,0,1-8.25,8.32l-3.85-5-2.13,1.63a56.7,56.7,0,0,1-26.76,11.22l-2.65.37.87,6.23a63.94,63.94,0,0,1-11.74,0l.84-6.25-2.67-.34A57,57,0,0,1,186,257.65L183.8,256l-3.8,5a63.27,63.27,0,0,1-8.33-8.28l5-3.83-1.63-2.12a57.13,57.13,0,0,1-11.17-26.79l-.34-2.67-6.25.87c-.2-2-.3-4-.3-6s.1-3.81.27-5.71l6.25.84.35-2.67A57,57,0,0,1,175,177.9l1.61-2.15-5.05-3.83a66.24,66.24,0,0,1,8.28-8.3l3.86,5L185.8,167a57.05,57.05,0,0,1,26.79-11.12l2.67-.35-.84-6.25a63.62,63.62,0,0,1,11.71,0l-.84,6.25,2.67.37a57.19,57.19,0,0,1,26.76,11.15l2.15,1.63,3.83-5A63.89,63.89,0,0,1,269,172L264,175.78l1.63,2.15a56.67,56.67,0,0,1,11.08,26.79l.37,2.66,6.22-.84q.27,2.9.27,5.84C283.53,214.2,283.46,216,283.29,217.86Zm5.06-14.26-.39-3.11-6.38.86a62.14,62.14,0,0,0-10.13-24.51l5.14-3.9L275,170.81a69.4,69.4,0,0,0-12.28-12.48l-2.94-2.27-3.93,5.14A62.67,62.67,0,0,0,231.34,151l.85-6.37-2.65-.35a69.82,69.82,0,0,0-17.69-.1l-3.51.47.86,6.35a62.37,62.37,0,0,0-24.48,10.18L180.81,156l-2.12,1.64A68.46,68.46,0,0,0,167,169.06l-3,3.85,5.14,3.93a62.09,62.09,0,0,0-10.16,24.49l-6.37-.86-.35,2.66a70.51,70.51,0,0,0-.07,17.65l.47,3.56,6.37-.89a62.28,62.28,0,0,0,10.21,24.48l-5.12,3.91,1.63,2.15a71.59,71.59,0,0,0,11.39,11.69l3.91,3,3.88-5.11a62.19,62.19,0,0,0,24.51,10.1l-.84,6.38,2.67.35a69.52,69.52,0,0,0,9,.59,75.38,75.38,0,0,0,8.7-.54l3.51-.5-.89-6.35A62.08,62.08,0,0,0,256,263.31l3.93,5.11,2.13-1.66a67.53,67.53,0,0,0,13-13.14l1-1.31-.47-.94v-.69l-4.05-3.09a62.25,62.25,0,0,0,10.06-24.54l6.37.84.35-2.67a67,67,0,0,0,.57-8.84A69.11,69.11,0,0,0,288.35,203.6Zm-5.06,14.26-6.25-.81-.35,2.66a57.3,57.3,0,0,1-11,26.82l-1.63,2.15,5,3.83a63,63,0,0,1-8.25,8.32l-3.85-5-2.13,1.63a56.7,56.7,0,0,1-26.76,11.22l-2.65.37.87,6.23a63.94,63.94,0,0,1-11.74,0l.84-6.25-2.67-.34A57,57,0,0,1,186,257.65L183.8,256l-3.8,5a63.27,63.27,0,0,1-8.33-8.28l5-3.83-1.63-2.12a57.13,57.13,0,0,1-11.17-26.79l-.34-2.67-6.25.87c-.2-2-.3-4-.3-6s.1-3.81.27-5.71l6.25.84.35-2.67A57,57,0,0,1,175,177.9l1.61-2.15-5.05-3.83a66.24,66.24,0,0,1,8.28-8.3l3.86,5L185.8,167a57.05,57.05,0,0,1,26.79-11.12l2.67-.35-.84-6.25a63.62,63.62,0,0,1,11.71,0l-.84,6.25,2.67.37a57.19,57.19,0,0,1,26.76,11.15l2.15,1.63,3.83-5A63.89,63.89,0,0,1,269,172L264,175.78l1.63,2.15a56.67,56.67,0,0,1,11.08,26.79l.37,2.66,6.22-.84q.27,2.9.27,5.84C283.53,214.2,283.46,216,283.29,217.86Zm5.06-14.26-.39-3.11-6.38.86a62.14,62.14,0,0,0-10.13-24.51l5.14-3.9L275,170.81a69.4,69.4,0,0,0-12.28-12.48l-2.94-2.27-3.93,5.14A62.67,62.67,0,0,0,231.34,151l.85-6.37-2.65-.35a69.82,69.82,0,0,0-17.69-.1l-3.51.47.86,6.35a62.37,62.37,0,0,0-24.48,10.18L180.81,156l-2.12,1.64A68.46,68.46,0,0,0,167,169.06l-3,3.85,5.14,3.93a62.09,62.09,0,0,0-10.16,24.49l-6.37-.86-.35,2.66a70.51,70.51,0,0,0-.07,17.65l.47,3.56,6.37-.89a62.28,62.28,0,0,0,10.21,24.48l-5.12,3.91,1.63,2.15a71.59,71.59,0,0,0,11.39,11.69l3.91,3,3.88-5.11a62.19,62.19,0,0,0,24.51,10.1l-.84,6.38,2.67.35a69.52,69.52,0,0,0,9,.59,75.38,75.38,0,0,0,8.7-.54l3.51-.5-.89-6.35A62.08,62.08,0,0,0,256,263.31l3.93,5.11,2.13-1.66a67.53,67.53,0,0,0,13-13.14l1-1.31-.47-.94v-.69l-4.05-3.09a62.25,62.25,0,0,0,10.06-24.54l6.37.84.35-2.67a67,67,0,0,0,.57-8.84A69.11,69.11,0,0,0,288.35,203.6Zm-5.06,14.26-6.25-.81-.35,2.66a57.3,57.3,0,0,1-11,26.82l-1.63,2.15,5,3.83a63,63,0,0,1-8.25,8.32l-3.85-5-2.13,1.63a56.7,56.7,0,0,1-26.76,11.22l-2.65.37.87,6.23a63.94,63.94,0,0,1-11.74,0l.84-6.25-2.67-.34A57,57,0,0,1,186,257.65L183.8,256l-3.8,5a63.27,63.27,0,0,1-8.33-8.28l5-3.83-1.63-2.12a57.13,57.13,0,0,1-11.17-26.79l-.34-2.67-6.25.87c-.2-2-.3-4-.3-6s.1-3.81.27-5.71l6.25.84.35-2.67A57,57,0,0,1,175,177.9l1.61-2.15-5.05-3.83a66.24,66.24,0,0,1,8.28-8.3l3.86,5L185.8,167a57.05,57.05,0,0,1,26.79-11.12l2.67-.35-.84-6.25a63.62,63.62,0,0,1,11.71,0l-.84,6.25,2.67.37a57.19,57.19,0,0,1,26.76,11.15l2.15,1.63,3.83-5A63.89,63.89,0,0,1,269,172L264,175.78l1.63,2.15a56.67,56.67,0,0,1,11.08,26.79l.37,2.66,6.22-.84q.27,2.9.27,5.84C283.53,214.2,283.46,216,283.29,217.86Zm5.06-14.26-.39-3.11-6.38.86a62.14,62.14,0,0,0-10.13-24.51l5.14-3.9L275,170.81a69.4,69.4,0,0,0-12.28-12.48l-2.94-2.27-3.93,5.14A62.67,62.67,0,0,0,231.34,151l.85-6.37-2.65-.35a69.82,69.82,0,0,0-17.69-.1l-3.51.47.86,6.35a62.37,62.37,0,0,0-24.48,10.18L180.81,156l-2.12,1.64A68.46,68.46,0,0,0,167,169.06l-3,3.85,5.14,3.93a62.09,62.09,0,0,0-10.16,24.49l-6.37-.86-.35,2.66a70.51,70.51,0,0,0-.07,17.65l.47,3.56,6.37-.89a62.28,62.28,0,0,0,10.21,24.48l-5.12,3.91,1.63,2.15a71.59,71.59,0,0,0,11.39,11.69l3.91,3,3.88-5.11a62.19,62.19,0,0,0,24.51,10.1l-.84,6.38,2.67.35a69.52,69.52,0,0,0,9,.59,75.38,75.38,0,0,0,8.7-.54l3.51-.5-.89-6.35A62.08,62.08,0,0,0,256,263.31l3.93,5.11,2.13-1.66a67.53,67.53,0,0,0,13-13.14l1-1.31-.47-.94v-.69l-4.05-3.09a62.25,62.25,0,0,0,10.06-24.54l6.37.84.35-2.67a67,67,0,0,0,.57-8.84A69.11,69.11,0,0,0,288.35,203.6Zm-5.06,14.26-6.25-.81-.35,2.66a57.3,57.3,0,0,1-11,26.82l-1.63,2.15,5,3.83a63,63,0,0,1-8.25,8.32l-3.85-5-2.13,1.63a56.7,56.7,0,0,1-26.76,11.22l-2.65.37.87,6.23a63.94,63.94,0,0,1-11.74,0l.84-6.25-2.67-.34A57,57,0,0,1,186,257.65L183.8,256l-3.8,5a63.27,63.27,0,0,1-8.33-8.28l5-3.83-1.63-2.12a57.13,57.13,0,0,1-11.17-26.79l-.34-2.67-6.25.87c-.2-2-.3-4-.3-6s.1-3.81.27-5.71l6.25.84.35-2.67A57,57,0,0,1,175,177.9l1.61-2.15-5.05-3.83a66.24,66.24,0,0,1,8.28-8.3l3.86,5L185.8,167a57.05,57.05,0,0,1,26.79-11.12l2.67-.35-.84-6.25a63.62,63.62,0,0,1,11.71,0l-.84,6.25,2.67.37a57.19,57.19,0,0,1,26.76,11.15l2.15,1.63,3.83-5A63.89,63.89,0,0,1,269,172L264,175.78l1.63,2.15a56.67,56.67,0,0,1,11.08,26.79l.37,2.66,6.22-.84q.27,2.9.27,5.84C283.53,214.2,283.46,216,283.29,217.86Zm5.06-14.26-.39-3.11-6.38.86a62.14,62.14,0,0,0-10.13-24.51l5.14-3.9L275,170.81a69.4,69.4,0,0,0-12.28-12.48l-2.94-2.27-3.93,5.14A62.67,62.67,0,0,0,231.34,151l.85-6.37-2.65-.35a69.82,69.82,0,0,0-17.69-.1l-3.51.47.86,6.35a62.37,62.37,0,0,0-24.48,10.18L180.81,156l-2.12,1.64A68.46,68.46,0,0,0,167,169.06l-3,3.85,5.14,3.93a62.09,62.09,0,0,0-10.16,24.49l-6.37-.86-.35,2.66a70.51,70.51,0,0,0-.07,17.65l.47,3.56,6.37-.89a62.28,62.28,0,0,0,10.21,24.48l-5.12,3.91,1.63,2.15a71.59,71.59,0,0,0,11.39,11.69l3.91,3,3.88-5.11a62.19,62.19,0,0,0,24.51,10.1l-.84,6.38,2.67.35a69.52,69.52,0,0,0,9,.59,75.38,75.38,0,0,0,8.7-.54l3.51-.5-.89-6.35A62.08,62.08,0,0,0,256,263.31l3.93,5.11,2.13-1.66a67.53,67.53,0,0,0,13-13.14l1-1.31-.47-.94v-.69l-4.05-3.09a62.25,62.25,0,0,0,10.06-24.54l6.37.84.35-2.67a67,67,0,0,0,.57-8.84A69.11,69.11,0,0,0,288.35,203.6Zm-5.06,14.26-6.25-.81-.35,2.66a57.3,57.3,0,0,1-11,26.82l-1.63,2.15,5,3.83a63,63,0,0,1-8.25,8.32l-3.85-5-2.13,1.63a56.7,56.7,0,0,1-26.76,11.22l-2.65.37.87,6.23a63.94,63.94,0,0,1-11.74,0l.84-6.25-2.67-.34A57,57,0,0,1,186,257.65L183.8,256l-3.8,5a63.27,63.27,0,0,1-8.33-8.28l5-3.83-1.63-2.12a57.13,57.13,0,0,1-11.17-26.79l-.34-2.67-6.25.87c-.2-2-.3-4-.3-6s.1-3.81.27-5.71l6.25.84.35-2.67A57,57,0,0,1,175,177.9l1.61-2.15-5.05-3.83a66.24,66.24,0,0,1,8.28-8.3l3.86,5L185.8,167a57.05,57.05,0,0,1,26.79-11.12l2.67-.35-.84-6.25a63.62,63.62,0,0,1,11.71,0l-.84,6.25,2.67.37a57.19,57.19,0,0,1,26.76,11.15l2.15,1.63,3.83-5A63.89,63.89,0,0,1,269,172L264,175.78l1.63,2.15a56.67,56.67,0,0,1,11.08,26.79l.37,2.66,6.22-.84q.27,2.9.27,5.84C283.53,214.2,283.46,216,283.29,217.86Zm5.06-14.26-.39-3.11-6.38.86a62.14,62.14,0,0,0-10.13-24.51l5.14-3.9L275,170.81a69.4,69.4,0,0,0-12.28-12.48l-2.94-2.27-3.93,5.14A62.67,62.67,0,0,0,231.34,151l.85-6.37-2.65-.35a69.82,69.82,0,0,0-17.69-.1l-3.51.47.86,6.35a62.37,62.37,0,0,0-24.48,10.18L180.81,156l-2.12,1.64A68.46,68.46,0,0,0,167,169.06l-3,3.85,5.14,3.93a62.09,62.09,0,0,0-10.16,24.49l-6.37-.86-.35,2.66a70.51,70.51,0,0,0-.07,17.65l.47,3.56,6.37-.89a62.28,62.28,0,0,0,10.21,24.48l-5.12,3.91,1.63,2.15a71.59,71.59,0,0,0,11.39,11.69l3.91,3,3.88-5.11a62.19,62.19,0,0,0,24.51,10.1l-.84,6.38,2.67.35a69.52,69.52,0,0,0,9,.59,75.38,75.38,0,0,0,8.7-.54l3.51-.5-.89-6.35A62.08,62.08,0,0,0,256,263.31l3.93,5.11,2.13-1.66a67.53,67.53,0,0,0,13-13.14l1-1.31-.47-.94v-.69l-4.05-3.09a62.25,62.25,0,0,0,10.06-24.54l6.37.84.35-2.67a67,67,0,0,0,.57-8.84A69.11,69.11,0,0,0,288.35,203.6Zm-5.06,14.26-6.25-.81-.35,2.66a57.3,57.3,0,0,1-11,26.82l-1.63,2.15,5,3.83a63,63,0,0,1-8.25,8.32l-3.85-5-2.13,1.63a56.7,56.7,0,0,1-26.76,11.22l-2.65.37.87,6.23a63.94,63.94,0,0,1-11.74,0l.84-6.25-2.67-.34A57,57,0,0,1,186,257.65L183.8,256l-3.8,5a63.27,63.27,0,0,1-8.33-8.28l5-3.83-1.63-2.12a57.13,57.13,0,0,1-11.17-26.79l-.34-2.67-6.25.87c-.2-2-.3-4-.3-6s.1-3.81.27-5.71l6.25.84.35-2.67A57,57,0,0,1,175,177.9l1.61-2.15-5.05-3.83a66.24,66.24,0,0,1,8.28-8.3l3.86,5L185.8,167a57.05,57.05,0,0,1,26.79-11.12l2.67-.35-.84-6.25a63.62,63.62,0,0,1,11.71,0l-.84,6.25,2.67.37a57.19,57.19,0,0,1,26.76,11.15l2.15,1.63,3.83-5A63.89,63.89,0,0,1,269,172L264,175.78l1.63,2.15a56.67,56.67,0,0,1,11.08,26.79l.37,2.66,6.22-.84q.27,2.9.27,5.84C283.53,214.2,283.46,216,283.29,217.86Zm5.06-14.26-.39-3.11-6.38.86a62.14,62.14,0,0,0-10.13-24.51l5.14-3.9L275,170.81a69.4,69.4,0,0,0-12.28-12.48l-2.94-2.27-3.93,5.14A62.67,62.67,0,0,0,231.34,151l.85-6.37-2.65-.35a69.82,69.82,0,0,0-17.69-.1l-3.51.47.86,6.35a62.37,62.37,0,0,0-24.48,10.18L180.81,156l-2.12,1.64A68.46,68.46,0,0,0,167,169.06l-3,3.85,5.14,3.93a62.09,62.09,0,0,0-10.16,24.49l-6.37-.86-.35,2.66a70.51,70.51,0,0,0-.07,17.65l.47,3.56,6.37-.89a62.28,62.28,0,0,0,10.21,24.48l-5.12,3.91,1.63,2.15a71.59,71.59,0,0,0,11.39,11.69l3.91,3,3.88-5.11a62.19,62.19,0,0,0,24.51,10.1l-.84,6.38,2.67.35a69.52,69.52,0,0,0,9,.59,75.38,75.38,0,0,0,8.7-.54l3.51-.5-.89-6.35A62.08,62.08,0,0,0,256,263.31l3.93,5.11,2.13-1.66a67.53,67.53,0,0,0,13-13.14l1-1.31-.47-.94v-.69l-4.05-3.09a62.25,62.25,0,0,0,10.06-24.54l6.37.84.35-2.67a67,67,0,0,0,.57-8.84A69.11,69.11,0,0,0,288.35,203.6Zm-5.06,14.26-6.25-.81-.35,2.66a57.3,57.3,0,0,1-11,26.82l-1.63,2.15,5,3.83a63,63,0,0,1-8.25,8.32l-3.85-5-2.13,1.63a56.7,56.7,0,0,1-26.76,11.22l-2.65.37.87,6.23a63.94,63.94,0,0,1-11.74,0l.84-6.25-2.67-.34A57,57,0,0,1,186,257.65L183.8,256l-3.8,5a63.27,63.27,0,0,1-8.33-8.28l5-3.83-1.63-2.12a57.13,57.13,0,0,1-11.17-26.79l-.34-2.67-6.25.87c-.2-2-.3-4-.3-6s.1-3.81.27-5.71l6.25.84.35-2.67A57,57,0,0,1,175,177.9l1.61-2.15-5.05-3.83a66.24,66.24,0,0,1,8.28-8.3l3.86,5L185.8,167a57.05,57.05,0,0,1,26.79-11.12l2.67-.35-.84-6.25a63.62,63.62,0,0,1,11.71,0l-.84,6.25,2.67.37a57.19,57.19,0,0,1,26.76,11.15l2.15,1.63,3.83-5A63.89,63.89,0,0,1,269,172L264,175.78l1.63,2.15a56.67,56.67,0,0,1,11.08,26.79l.37,2.66,6.22-.84q.27,2.9.27,5.84C283.53,214.2,283.46,216,283.29,217.86Zm5.06-14.26-.39-3.11-6.38.86a62.14,62.14,0,0,0-10.13-24.51l5.14-3.9L275,170.81a69.4,69.4,0,0,0-12.28-12.48l-2.94-2.27-3.93,5.14A62.67,62.67,0,0,0,231.34,151l.85-6.37-2.65-.35a69.82,69.82,0,0,0-17.69-.1l-3.51.47.86,6.35a62.37,62.37,0,0,0-24.48,10.18L180.81,156l-2.12,1.64A68.46,68.46,0,0,0,167,169.06l-3,3.85,5.14,3.93a62.09,62.09,0,0,0-10.16,24.49l-6.37-.86-.35,2.66a70.51,70.51,0,0,0-.07,17.65l.47,3.56,6.37-.89a62.28,62.28,0,0,0,10.21,24.48l-5.12,3.91,1.63,2.15a71.59,71.59,0,0,0,11.39,11.69l3.91,3,3.88-5.11a62.19,62.19,0,0,0,24.51,10.1l-.84,6.38,2.67.35a69.52,69.52,0,0,0,9,.59,75.38,75.38,0,0,0,8.7-.54l3.51-.5-.89-6.35A62.08,62.08,0,0,0,256,263.31l3.93,5.11,2.13-1.66a67.53,67.53,0,0,0,13-13.14l1-1.31-.47-.94v-.69l-4.05-3.09a62.25,62.25,0,0,0,10.06-24.54l6.37.84.35-2.67a67,67,0,0,0,.57-8.84A69.11,69.11,0,0,0,288.35,203.6Zm-5.06,14.26-6.25-.81-.35,2.66a57.3,57.3,0,0,1-11,26.82l-1.63,2.15,5,3.83a63,63,0,0,1-8.25,8.32l-3.85-5-2.13,1.63a56.7,56.7,0,0,1-26.76,11.22l-2.65.37.87,6.23a63.94,63.94,0,0,1-11.74,0l.84-6.25-2.67-.34A57,57,0,0,1,186,257.65L183.8,256l-3.8,5a63.27,63.27,0,0,1-8.33-8.28l5-3.83-1.63-2.12a57.13,57.13,0,0,1-11.17-26.79l-.34-2.67-6.25.87c-.2-2-.3-4-.3-6s.1-3.81.27-5.71l6.25.84.35-2.67A57,57,0,0,1,175,177.9l1.61-2.15-5.05-3.83a66.24,66.24,0,0,1,8.28-8.3l3.86,5L185.8,167a57.05,57.05,0,0,1,26.79-11.12l2.67-.35-.84-6.25a63.62,63.62,0,0,1,11.71,0l-.84,6.25,2.67.37a57.19,57.19,0,0,1,26.76,11.15l2.15,1.63,3.83-5A63.89,63.89,0,0,1,269,172L264,175.78l1.63,2.15a56.67,56.67,0,0,1,11.08,26.79l.37,2.66,6.22-.84q.27,2.9.27,5.84C283.53,214.2,283.46,216,283.29,217.86Zm5.06-14.26-.39-3.11-6.38.86a62.14,62.14,0,0,0-10.13-24.51l5.14-3.9L275,170.81a69.4,69.4,0,0,0-12.28-12.48l-2.94-2.27-3.93,5.14A62.67,62.67,0,0,0,231.34,151l.85-6.37-2.65-.35a69.82,69.82,0,0,0-17.69-.1l-3.51.47.86,6.35a62.37,62.37,0,0,0-24.48,10.18L180.81,156l-2.12,1.64A68.46,68.46,0,0,0,167,169.06l-3,3.85,5.14,3.93a62.09,62.09,0,0,0-10.16,24.49l-6.37-.86-.35,2.66a70.51,70.51,0,0,0-.07,17.65l.47,3.56,6.37-.89a62.28,62.28,0,0,0,10.21,24.48l-5.12,3.91,1.63,2.15a71.59,71.59,0,0,0,11.39,11.69l3.91,3,3.88-5.11a62.19,62.19,0,0,0,24.51,10.1l-.84,6.38,2.67.35a69.52,69.52,0,0,0,9,.59,75.38,75.38,0,0,0,8.7-.54l3.51-.5-.89-6.35A62.08,62.08,0,0,0,256,263.31l3.93,5.11,2.13-1.66a67.53,67.53,0,0,0,13-13.14l1-1.31-.47-.94v-.69l-4.05-3.09a62.25,62.25,0,0,0,10.06-24.54l6.37.84.35-2.67a67,67,0,0,0,.57-8.84A69.11,69.11,0,0,0,288.35,203.6Zm-5.06,14.26-6.25-.81-.35,2.66a57.3,57.3,0,0,1-11,26.82l-1.63,2.15,5,3.83a63,63,0,0,1-8.25,8.32l-3.85-5-2.13,1.63a56.7,56.7,0,0,1-26.76,11.22l-2.65.37.87,6.23a63.94,63.94,0,0,1-11.74,0l.84-6.25-2.67-.34A57,57,0,0,1,186,257.65L183.8,256l-3.8,5a63.27,63.27,0,0,1-8.33-8.28l5-3.83-1.63-2.12a57.13,57.13,0,0,1-11.17-26.79l-.34-2.67-6.25.87c-.2-2-.3-4-.3-6s.1-3.81.27-5.71l6.25.84.35-2.67A57,57,0,0,1,175,177.9l1.61-2.15-5.05-3.83a66.24,66.24,0,0,1,8.28-8.3l3.86,5L185.8,167a57.05,57.05,0,0,1,26.79-11.12l2.67-.35-.84-6.25a63.62,63.62,0,0,1,11.71,0l-.84,6.25,2.67.37a57.19,57.19,0,0,1,26.76,11.15l2.15,1.63,3.83-5A63.89,63.89,0,0,1,269,172L264,175.78l1.63,2.15a56.67,56.67,0,0,1,11.08,26.79l.37,2.66,6.22-.84q.27,2.9.27,5.84C283.53,214.2,283.46,216,283.29,217.86Z"/><path class="cls-1" d="M388.83,84.55A14.33,14.33,0,0,0,376.5,63a13.93,13.93,0,0,0-7,1.88,2.13,2.13,0,0,1,1-.25,2.49,2.49,0,0,1,2,1,2.46,2.46,0,0,1-.3,3.26l-3.9,3.68a2.38,2.38,0,0,1-1.68.69,2.48,2.48,0,0,1-2.08-3.83A14.34,14.34,0,0,0,376.5,91.56a14,14,0,0,0,4.22-.64A200.67,200.67,0,0,1,365.3,351.38q-1.82,1.92-3.7,3.78a206,206,0,0,1-34.87,27.45,12.56,12.56,0,0,1-6.75,1.95,13,13,0,0,1-3.38-.47,12.42,12.42,0,0,1-7.79-6.4L297.2,354.56,269.7,300a169.7,169.7,0,0,0,17.84-19.15c1.16-1.43,2.27-2.87,3.41-4.37l.37-.5c.64-.84,1.28-1.7,1.9-2.57,27.55-38,27.88-148.68,27.88-153.38V116.6l9.26-9.25a163,163,0,0,1,14.51,188.47,15.62,15.62,0,0,0-3.21-.34A14.58,14.58,0,0,0,327.08,310a14.72,14.72,0,0,0,8.3,13.17,14.59,14.59,0,0,0,18.11-21.67,172.06,172.06,0,0,0,25-89.87c0-42.16-15-82.44-42.38-113.38-1.21-1.35-2.44-2.71-3.68-4C302.46,62.45,262.56,45,220.08,45a151.92,151.92,0,0,0-81.87,24,14.51,14.51,0,0,0-7.91-2.38A14.34,14.34,0,0,0,116,80.91a14.27,14.27,0,0,0,5.54,11.32,14.1,14.1,0,0,0,8.77,3,14.33,14.33,0,0,0,14.31-14.31,13.85,13.85,0,0,0-.45-3.51,142,142,0,0,1,75.92-22.11c38.89,0,75.49,15.76,103.31,44.4l-22,22c-8,3.56-19.69,7.69-31,7.69-30.91,0-46.92-12.76-47.12-12.9l-1.63-1.34a2.44,2.44,0,0,0-1.56-.57,2.54,2.54,0,0,0-1.48.5l-1.71,1.28c-.74.55-18.63,13.42-42.28,13.42-13.54,0-26.61-4.32-35.33-8L76.73,59.22A2.54,2.54,0,0,0,75,58.5a2.49,2.49,0,0,0-1.73.72L69.31,63.1A209.9,209.9,0,0,0,11,178.05a14.58,14.58,0,0,0-.75,28,15.13,15.13,0,0,0,6.48.49,14.58,14.58,0,0,0,4.6-27.35A200.38,200.38,0,0,1,75.22,72.29l27.48,27.5a173.15,173.15,0,0,0-16,201.72A14.43,14.43,0,0,0,83.92,310a14.55,14.55,0,0,0,20.63,13.25l.3-.12a14.57,14.57,0,0,0-6.38-27.68,15.26,15.26,0,0,0-3.18.34A162.87,162.87,0,0,1,110,107.11l9,9V120c0,4.7.32,115.7,27.75,153.43l.15.2c.79,1.09,1.6,2.15,2.37,3.19l3.38,4.32a173,173,0,0,0,17.75,18.78l-25.11,49.84-14,27.93a12.52,12.52,0,0,1-11.21,6.92,12.35,12.35,0,0,1-6.53-1.88A203.25,203.25,0,0,1,78.8,355.38q-1.92-1.86-3.78-3.78a199.24,199.24,0,0,1-53.72-107,14.57,14.57,0,0,0-4.64-27.35,17.5,17.5,0,0,0-2.08-.12,14.56,14.56,0,0,0-3.48,28.71,210.94,210.94,0,0,0,56.66,113c1.23,1.31,2.52,2.6,3.83,3.88a211.36,211.36,0,0,0,36.52,28.82,22.59,22.59,0,0,0,12,3.46,23.48,23.48,0,0,0,6.13-.84,23,23,0,0,0,14.26-11.77l14-27.7,24-47.79c19.94,16,36.79,21.92,40.2,23l.77.23a2.69,2.69,0,0,0,1.38,0l.77-.23c2-.59,19.22-6,40-22.88l24,47.69,14,27.7A22.84,22.84,0,0,0,313.83,394a22.32,22.32,0,0,0,6.15.84,23.07,23.07,0,0,0,12.24-3.49,213.24,213.24,0,0,0,36.62-29c1.26-1.28,2.54-2.57,3.78-3.88A211,211,0,0,0,431.8,211.73,208.12,208.12,0,0,0,388.83,84.55Zm-126.4,208c-1.36,1.26-2.74,2.47-4.08,3.61-17.86,15.22-33.55,21.59-38.13,23.25-5.38-2-20.8-8.45-38.4-23.33-1.35-1.13-2.74-2.35-4.12-3.58a163.17,163.17,0,0,1-17.3-18.36c-1.11-1.34-2.17-2.72-3.29-4.2-.64-.84-1.28-1.71-2-2.65-21.33-29.25-25-113.32-25.62-138.6,1.23.62,2.69,1.31,4.29,2a115.46,115.46,0,0,0,12.51,4.72,93.45,93.45,0,0,0,28.24,4.72c21.45,0,38.06-8.72,45.37-13.34,7.07,4.49,23.85,12.92,50.41,12.92a77.63,77.63,0,0,0,23.73-4.1,115,115,0,0,0,12.77-5c1.29-.59,2.55-1.21,3.76-1.83-.69,25.36-4.55,109.23-25.87,138.66-.52.71-1,1.43-1.61,2.17-1.09,1.43-2.18,2.87-3.26,4.25A168.75,168.75,0,0,1,262.43,292.54Z"/><path class="cls-1" d="M341.65,59.5a14.59,14.59,0,0,1-14.58-14.57,14.2,14.2,0,0,1,.35-3.2A198.73,198.73,0,0,0,220,10.33H220c-1,0-2,0-2.94,0A199.6,199.6,0,0,0,112.66,41.64a14.08,14.08,0,0,1,.38,3.29,14.61,14.61,0,1,1-6.38-12A210.58,210.58,0,0,1,216.87,0L220,0A208.94,208.94,0,0,1,333.11,33.12a14.57,14.57,0,1,1,8.54,26.38Z"/><path class="cls-1" d="M372.22,68.83l-3.9,3.68a2.38,2.38,0,0,1-1.68.69,2.48,2.48,0,0,1-2.08-3.83l.37-.44a14.46,14.46,0,0,1,4.35-4c.08,0,.13-.07.2-.07a2.13,2.13,0,0,1,1-.25,2.49,2.49,0,0,1,2,1A2.46,2.46,0,0,1,372.22,68.83Z"/><path class="cls-1" d="M372.52,65.57a2.49,2.49,0,0,0-2-1,2.13,2.13,0,0,0-1,.25,1.13,1.13,0,0,0-.2.09,4.2,4.2,0,0,0-.44.33l-3.91,3.68-.37.44a2.48,2.48,0,0,0,2.08,3.83,2.38,2.38,0,0,0,1.68-.69l3.9-3.68A2.46,2.46,0,0,0,372.52,65.57Z"/><path class="cls-1" d="M204.29,174.74,203.84,248a2.27,2.27,0,0,1-2.07,2.27.61.61,0,0,1-.23,0,2.29,2.29,0,0,1-2.25-1.83l-12.08-56c-2.82,4.7-6.37,13.54-3.93,25.88,2.55,12.65,9.79,18.78,9.86,18.83a2.3,2.3,0,1,1-2.91,3.55c-.37-.29-8.6-7.26-11.45-21.47-4.22-21.08,7.47-33.36,8-33.85a2.3,2.3,0,0,1,3.91,1.11L199.37,227l.32-52.24a2.31,2.31,0,0,1,2.3-2.3h0A2.31,2.31,0,0,1,204.29,174.74Z"/><path class="cls-1" d="M222.18,251.86a2.32,2.32,0,0,1-2,2.3,19,19,0,0,1-2.62.18,15.82,15.82,0,0,1-7.34-1.59,2.3,2.3,0,1,1,2.22-4,9.54,9.54,0,0,0,1.06.42V174.72l-2.74.49a2.31,2.31,0,0,1-.81-4.55l9.51-1.68a2.29,2.29,0,0,1,2.67,1.83,2.27,2.27,0,0,1-1.78,2.67l-2.25.47v75.39l2.05.25A2.3,2.3,0,0,1,222.18,251.86Z"/><path class="cls-1" d="M241.82,180a2.32,2.32,0,0,1-3.26,0,12.4,12.4,0,0,0-3.88-2.34v71.66a2.3,2.3,0,1,1-4.59,0V176.64l-3.66-1.45a2.3,2.3,0,0,1-1.36-2.77,2.27,2.27,0,0,1,2.64-1.63c1,.19,10.13,2,14.11,6A2.32,2.32,0,0,1,241.82,180Z"/><path class="cls-1" d="M288.35,203.6l-.39-3.11-6.38.86a62.14,62.14,0,0,0-10.13-24.51l5.14-3.9L275,170.81a69.4,69.4,0,0,0-12.28-12.48l-2.94-2.27-3.93,5.14A62.67,62.67,0,0,0,231.34,151l.85-6.37-2.65-.35a69.82,69.82,0,0,0-17.69-.1l-3.51.47.86,6.35a62.37,62.37,0,0,0-24.48,10.18L180.81,156l-2.12,1.64A68.46,68.46,0,0,0,167,169.06l-3,3.85,5.14,3.93a62.09,62.09,0,0,0-10.16,24.49l-6.37-.86-.35,2.66a70.51,70.51,0,0,0-.07,17.65l.47,3.56,6.37-.89a62.28,62.28,0,0,0,10.21,24.48l-5.12,3.91,1.63,2.15a71.59,71.59,0,0,0,11.39,11.69l3.91,3,3.88-5.11a62.19,62.19,0,0,0,24.51,10.1l-.84,6.38,2.67.35a69.52,69.52,0,0,0,9,.59,75.38,75.38,0,0,0,8.7-.54l3.51-.5-.89-6.35A62.08,62.08,0,0,0,256,263.31l3.93,5.11,2.13-1.66a67.53,67.53,0,0,0,13-13.14l1-1.31-.47-.94v-.69l-4.05-3.09a62.25,62.25,0,0,0,10.06-24.54l6.37.84.35-2.67a67,67,0,0,0,.57-8.84A69.11,69.11,0,0,0,288.35,203.6Zm-5.06,14.26-6.25-.81-.35,2.66a57.3,57.3,0,0,1-11,26.82l-1.63,2.15,5,3.83a63,63,0,0,1-8.25,8.32l-3.85-5-2.13,1.63a56.7,56.7,0,0,1-26.76,11.22l-2.65.37.87,6.23a63.94,63.94,0,0,1-11.74,0l.84-6.25-2.67-.34A57,57,0,0,1,186,257.65L183.8,256l-3.8,5a63.27,63.27,0,0,1-8.33-8.28l5-3.83-1.63-2.12a57.13,57.13,0,0,1-11.17-26.79l-.34-2.67-6.25.87c-.2-2-.3-4-.3-6s.1-3.81.27-5.71l6.25.84.35-2.67A57,57,0,0,1,175,177.9l1.61-2.15-5.05-3.83a66.24,66.24,0,0,1,8.28-8.3l3.86,5L185.8,167a57.05,57.05,0,0,1,26.79-11.12l2.67-.35-.84-6.25a63.62,63.62,0,0,1,11.71,0l-.84,6.25,2.67.37a57.19,57.19,0,0,1,26.76,11.15l2.15,1.63,3.83-5A63.89,63.89,0,0,1,269,172L264,175.78l1.63,2.15a56.67,56.67,0,0,1,11.08,26.79l.37,2.66,6.22-.84q.27,2.9.27,5.84C283.53,214.2,283.46,216,283.29,217.86Z"/><path class="cls-1" d="M204.29,174.74,203.84,248a2.27,2.27,0,0,1-2.07,2.27.61.61,0,0,1-.23,0,2.29,2.29,0,0,1-2.25-1.83l-12.08-56c-2.82,4.7-6.37,13.54-3.93,25.88,2.55,12.65,9.79,18.78,9.86,18.83a2.3,2.3,0,1,1-2.91,3.55c-.37-.29-8.6-7.26-11.45-21.47-4.22-21.08,7.47-33.36,8-33.85a2.3,2.3,0,0,1,3.91,1.11L199.37,227l.32-52.24a2.31,2.31,0,0,1,2.3-2.3h0A2.31,2.31,0,0,1,204.29,174.74Z"/><path class="cls-1" d="M222.18,251.86a2.32,2.32,0,0,1-2,2.3,19,19,0,0,1-2.62.18,15.82,15.82,0,0,1-7.34-1.59,2.3,2.3,0,1,1,2.22-4,9.54,9.54,0,0,0,1.06.42V174.72l-2.74.49a2.31,2.31,0,0,1-.81-4.55l9.51-1.68a2.29,2.29,0,0,1,2.67,1.83,2.27,2.27,0,0,1-1.78,2.67l-2.25.47v75.39l2.05.25A2.3,2.3,0,0,1,222.18,251.86Z"/><path class="cls-1" d="M241.82,180a2.32,2.32,0,0,1-3.26,0,12.4,12.4,0,0,0-3.88-2.34v71.66a2.3,2.3,0,1,1-4.59,0V176.64l-3.66-1.45a2.3,2.3,0,0,1-1.36-2.77,2.27,2.27,0,0,1,2.64-1.63c1,.19,10.13,2,14.11,6A2.32,2.32,0,0,1,241.82,180Z"/><path class="cls-1" d="M204.29,174.74,203.84,248a2.27,2.27,0,0,1-2.07,2.27.61.61,0,0,1-.23,0,2.29,2.29,0,0,1-2.25-1.83l-12.08-56c-2.82,4.7-6.37,13.54-3.93,25.88,2.55,12.65,9.79,18.78,9.86,18.83a2.3,2.3,0,1,1-2.91,3.55c-.37-.29-8.6-7.26-11.45-21.47-4.22-21.08,7.47-33.36,8-33.85a2.3,2.3,0,0,1,3.91,1.11L199.37,227l.32-52.24a2.31,2.31,0,0,1,2.3-2.3h0A2.31,2.31,0,0,1,204.29,174.74Z"/><path class="cls-1" d="M222.18,251.86a2.32,2.32,0,0,1-2,2.3,19,19,0,0,1-2.62.18,15.82,15.82,0,0,1-7.34-1.59,2.3,2.3,0,1,1,2.22-4,9.54,9.54,0,0,0,1.06.42V174.72l-2.74.49a2.31,2.31,0,0,1-.81-4.55l9.51-1.68a2.29,2.29,0,0,1,2.67,1.83,2.27,2.27,0,0,1-1.78,2.67l-2.25.47v75.39l2.05.25A2.3,2.3,0,0,1,222.18,251.86Z"/><path class="cls-1" d="M241.82,176.74a2.31,2.31,0,0,1-3.26,3.26,12.4,12.4,0,0,0-3.88-2.34v71.66a2.3,2.3,0,1,1-4.59,0V176.64l-3.66-1.45a2.3,2.3,0,0,1-1.36-2.77,2.27,2.27,0,0,1,2.64-1.63C228.73,171,237.84,172.76,241.82,176.74Z"/><path class="cls-1" d="M259.37,227a2.31,2.31,0,0,1-.77,3.17,2.38,2.38,0,0,1-1.21.34,2.31,2.31,0,0,1-1.95-1.08l-6.95-11.3v25.65a2.3,2.3,0,1,1-4.59,0V182.1a2.3,2.3,0,1,1,4.59,0v20.39l5.79-10.08a2.29,2.29,0,1,1,4,2.27l-9,15.82Z"/><path class="cls-1" d="M288.35,203.6l-.39-3.11-6.38.86a62.14,62.14,0,0,0-10.13-24.51l5.14-3.9L275,170.81a69.4,69.4,0,0,0-12.28-12.48l-2.94-2.27-3.93,5.14A62.67,62.67,0,0,0,231.34,151l.85-6.37-2.65-.35a69.82,69.82,0,0,0-17.69-.1l-3.51.47.86,6.35a62.37,62.37,0,0,0-24.48,10.18L180.81,156l-2.12,1.64A68.46,68.46,0,0,0,167,169.06l-3,3.85,5.14,3.93a62.09,62.09,0,0,0-10.16,24.49l-6.37-.86-.35,2.66a70.51,70.51,0,0,0-.07,17.65l.47,3.56,6.37-.89a62.28,62.28,0,0,0,10.21,24.48l-5.12,3.91,1.63,2.15a71.59,71.59,0,0,0,11.39,11.69l3.91,3,3.88-5.11a62.19,62.19,0,0,0,24.51,10.1l-.84,6.38,2.67.35a69.52,69.52,0,0,0,9,.59,75.38,75.38,0,0,0,8.7-.54l3.51-.5-.89-6.35A62.08,62.08,0,0,0,256,263.31l3.93,5.11,2.13-1.66a67.53,67.53,0,0,0,13-13.14l1-1.31-.47-.94v-.69l-4.05-3.09a62.25,62.25,0,0,0,10.06-24.54l6.37.84.35-2.67a67,67,0,0,0,.57-8.84A69.11,69.11,0,0,0,288.35,203.6Zm-5.06,14.26-6.25-.81-.35,2.66a57.3,57.3,0,0,1-11,26.82l-1.63,2.15,5,3.83a63,63,0,0,1-8.25,8.32l-3.85-5-2.13,1.63a56.7,56.7,0,0,1-26.76,11.22l-2.65.37.87,6.23a63.94,63.94,0,0,1-11.74,0l.84-6.25-2.67-.34A57,57,0,0,1,186,257.65L183.8,256l-3.8,5a63.27,63.27,0,0,1-8.33-8.28l5-3.83-1.63-2.12a57.13,57.13,0,0,1-11.17-26.79l-.34-2.67-6.25.87c-.2-2-.3-4-.3-6s.1-3.81.27-5.71l6.25.84.35-2.67A57,57,0,0,1,175,177.9l1.61-2.15-5.05-3.83a66.24,66.24,0,0,1,8.28-8.3l3.86,5L185.8,167a57.05,57.05,0,0,1,26.79-11.12l2.67-.35-.84-6.25a63.62,63.62,0,0,1,11.71,0l-.84,6.25,2.67.37a57.19,57.19,0,0,1,26.76,11.15l2.15,1.63,3.83-5A63.89,63.89,0,0,1,269,172L264,175.78l1.63,2.15a56.67,56.67,0,0,1,11.08,26.79l.37,2.66,6.22-.84q.27,2.9.27,5.84C283.53,214.2,283.46,216,283.29,217.86Z"/><path class="cls-1" d="M204.29,174.74,203.84,248a2.27,2.27,0,0,1-2.07,2.27.61.61,0,0,1-.23,0,2.29,2.29,0,0,1-2.25-1.83l-12.08-56c-2.82,4.7-6.37,13.54-3.93,25.88,2.55,12.65,9.79,18.78,9.86,18.83a2.3,2.3,0,1,1-2.91,3.55c-.37-.29-8.6-7.26-11.45-21.47-4.22-21.08,7.47-33.36,8-33.85a2.3,2.3,0,0,1,3.91,1.11L199.37,227l.32-52.24a2.31,2.31,0,0,1,2.3-2.3h0A2.31,2.31,0,0,1,204.29,174.74Z"/><path class="cls-1" d="M222.18,251.86a2.32,2.32,0,0,1-2,2.3,19,19,0,0,1-2.62.18,15.82,15.82,0,0,1-7.34-1.59,2.3,2.3,0,1,1,2.22-4,9.54,9.54,0,0,0,1.06.42V174.72l-2.74.49a2.31,2.31,0,0,1-.81-4.55l9.51-1.68a2.29,2.29,0,0,1,2.67,1.83,2.27,2.27,0,0,1-1.78,2.67l-2.25.47v75.39l2.05.25A2.3,2.3,0,0,1,222.18,251.86Z"/><path class="cls-1" d="M241.82,176.74a2.31,2.31,0,0,1-3.26,3.26,12.4,12.4,0,0,0-3.88-2.34v71.66a2.3,2.3,0,1,1-4.59,0V176.64l-3.66-1.45a2.3,2.3,0,0,1-1.36-2.77,2.27,2.27,0,0,1,2.64-1.63C228.73,171,237.84,172.76,241.82,176.74Z"/><path class="cls-1" d="M258.6,230.17a2.38,2.38,0,0,1-1.21.34,2.31,2.31,0,0,1-1.95-1.08l-6.95-11.3v25.65a2.3,2.3,0,1,1-4.59,0V182.1a2.3,2.3,0,1,1,4.59,0v20.39l5.79-10.08a2.29,2.29,0,1,1,4,2.27l-9,15.82L259.37,227A2.31,2.31,0,0,1,258.6,230.17Z"/><path class="cls-1" d="M204.29,174.74,203.84,248a2.27,2.27,0,0,1-2.07,2.27.61.61,0,0,1-.23,0,2.29,2.29,0,0,1-2.25-1.83l-12.08-56c-2.82,4.7-6.37,13.54-3.93,25.88,2.55,12.65,9.79,18.78,9.86,18.83a2.3,2.3,0,1,1-2.91,3.55c-.37-.29-8.6-7.26-11.45-21.47-4.22-21.08,7.47-33.36,8-33.85a2.3,2.3,0,0,1,3.91,1.11L199.37,227l.32-52.24a2.31,2.31,0,0,1,2.3-2.3h0A2.31,2.31,0,0,1,204.29,174.74Z"/><path class="cls-1" d="M222.18,251.86a2.32,2.32,0,0,1-2,2.3,19,19,0,0,1-2.62.18,15.82,15.82,0,0,1-7.34-1.59,2.3,2.3,0,1,1,2.22-4,9.54,9.54,0,0,0,1.06.42V174.72l-2.74.49a2.31,2.31,0,0,1-.81-4.55l9.51-1.68a2.29,2.29,0,0,1,2.67,1.83,2.27,2.27,0,0,1-1.78,2.67l-2.25.47v75.39l2.05.25A2.3,2.3,0,0,1,222.18,251.86Z"/><path class="cls-1" d="M241.82,180a2.32,2.32,0,0,1-3.26,0,12.4,12.4,0,0,0-3.88-2.34v71.66a2.3,2.3,0,1,1-4.59,0V176.64l-3.66-1.45a2.3,2.3,0,0,1-1.36-2.77,2.27,2.27,0,0,1,2.64-1.63c1,.19,10.13,2,14.11,6A2.32,2.32,0,0,1,241.82,180Z"/><path class="cls-1" d="M258.6,230.17a2.38,2.38,0,0,1-1.21.34,2.31,2.31,0,0,1-1.95-1.08l-6.95-11.3v25.65a2.3,2.3,0,1,1-4.59,0V182.1a2.3,2.3,0,1,1,4.59,0v20.39l5.79-10.08a2.29,2.29,0,1,1,4,2.27l-9,15.82L259.37,227A2.31,2.31,0,0,1,258.6,230.17Z"/></g></g></svg>