<svg width="687" height="687" viewBox="0 0 687 687" fill="none" xmlns="http://www.w3.org/2000/svg">

<style>
    #planet, #planet_3{
        animation: rotate 45s linear infinite;
        transform-origin: 50% 50%;
        /* transform-box: fill-box; */
    }
    #planet_3 {
        animation: rotate 30s ease-in-out infinite;
        transform-origin: 50% 50%;
        /* transform-box: fill-box; */
    }
    #planet_2 {
        animation: rotate 30s linear infinite;
        transform-origin: 50% 50%;
        /* transform-box: fill-box; */
    }
    #planet_4{
        animation: rotate 20s ease-in-out infinite;
        transform-origin: 50% 50%;
        /* transform-box: fill-box; */
    }
    @keyframes rotate{
                from{
                   transform: rotate(0deg);}to{
                   transform: rotate(360deg);
                }
             }
</style>

<g id="logo-complete">
<g id="center-logo">
<path id="Vector" d="M413.13 280.27C413.673 279.342 413.962 278.287 413.967 277.212C413.973 276.136 413.695 275.079 413.162 274.145C412.628 273.211 411.859 272.434 410.93 271.893C410.001 271.351 408.945 271.064 407.87 271.06C406.817 271.056 405.781 271.332 404.87 271.86C405.005 271.786 405.156 271.749 405.31 271.75C405.476 271.75 405.64 271.788 405.789 271.861C405.938 271.933 406.068 272.039 406.17 272.17C406.32 272.378 406.39 272.634 406.366 272.889C406.342 273.145 406.226 273.383 406.04 273.56L404.38 275.13C404.286 275.226 404.174 275.302 404.05 275.353C403.927 275.405 403.794 275.431 403.66 275.43C403.408 275.431 403.163 275.342 402.97 275.18C402.764 275.021 402.627 274.788 402.59 274.531C402.552 274.273 402.617 274.011 402.77 273.8C402.167 274.72 401.823 275.786 401.776 276.885C401.728 277.985 401.978 279.076 402.499 280.045C403.02 281.014 403.794 281.824 404.737 282.39C405.681 282.956 406.76 283.256 407.86 283.26C408.471 283.259 409.078 283.164 409.66 282.98C421.974 299.229 428.079 319.341 426.874 339.693C425.67 360.045 417.235 379.298 403.09 393.98C402.57 394.53 402.09 395.07 401.51 395.6C396.99 400.025 392.004 403.948 386.64 407.3C385.782 407.845 384.786 408.133 383.77 408.13C383.28 408.128 382.792 408.061 382.32 407.93C381.608 407.733 380.945 407.387 380.375 406.917C379.804 406.447 379.339 405.862 379.01 405.2L374.01 395.34L362.34 372.1C365.08 369.577 367.624 366.849 369.95 363.94C370.44 363.32 370.95 362.71 371.4 362.07L371.56 361.86C371.83 361.5 372.11 361.13 372.37 360.76C384.12 344.55 384.25 297.37 384.25 295.37V293.93L388.2 290C397.45 301.091 403.016 314.787 404.125 329.187C405.235 343.586 401.832 357.973 394.39 370.35C393.939 370.255 393.481 370.205 393.02 370.2C391.63 370.194 390.278 370.655 389.182 371.511C388.087 372.366 387.311 373.566 386.98 374.916C386.649 376.266 386.782 377.688 387.357 378.953C387.933 380.219 388.918 381.253 390.153 381.891C391.389 382.528 392.802 382.731 394.167 382.467C395.532 382.203 396.768 381.488 397.677 380.435C398.585 379.383 399.113 378.056 399.175 376.667C399.238 375.278 398.831 373.909 398.02 372.78C406.114 359.413 409.76 343.822 408.432 328.252C407.104 312.681 400.871 297.934 390.63 286.13C390.11 285.55 389.63 284.97 389.06 284.41C382.946 277.803 375.535 272.528 367.289 268.914C359.044 265.301 350.142 263.427 341.14 263.41C328.768 263.421 316.657 266.974 306.24 273.65C305.32 273.044 304.253 272.698 303.152 272.649C302.051 272.6 300.958 272.85 299.987 273.371C299.017 273.893 298.205 274.667 297.639 275.612C297.073 276.558 296.772 277.638 296.77 278.74C296.767 279.671 296.978 280.59 297.387 281.426C297.797 282.261 298.393 282.992 299.13 283.56C300.196 284.397 301.515 284.848 302.87 284.84C304.487 284.837 306.037 284.194 307.18 283.05C308.324 281.907 308.967 280.357 308.97 278.74C308.972 278.234 308.908 277.73 308.78 277.24C320.639 269.709 334.749 266.538 348.691 268.271C362.632 270.005 375.536 276.534 385.19 286.74L375.82 296.13C372.41 297.65 367.42 299.41 362.58 299.41C349.4 299.41 342.58 293.97 342.49 293.91L341.8 293.34C341.614 293.181 341.375 293.095 341.13 293.1C340.903 293.101 340.682 293.174 340.5 293.31L339.77 293.85C334.453 297.466 328.199 299.457 321.77 299.58C316.571 299.427 311.453 298.262 306.7 296.15L280.05 269.49C279.952 269.392 279.836 269.314 279.708 269.261C279.581 269.207 279.444 269.18 279.305 269.18C279.167 269.18 279.029 269.207 278.902 269.261C278.774 269.314 278.658 269.392 278.56 269.49L276.89 271.14C263.67 284.462 254.973 301.604 252.03 320.14C250.703 320.463 249.52 321.213 248.662 322.276C247.804 323.338 247.32 324.653 247.283 326.018C247.247 327.383 247.661 328.722 248.461 329.828C249.261 330.934 250.403 331.747 251.71 332.14C252.307 332.319 252.927 332.41 253.55 332.41C253.858 332.41 254.165 332.39 254.47 332.35C255.77 332.161 256.976 331.565 257.916 330.648C258.857 329.732 259.483 328.541 259.705 327.246C259.927 325.952 259.733 324.621 259.152 323.443C258.571 322.265 257.632 321.301 256.47 320.69C259.306 303.5 267.331 287.588 279.47 275.09L291.18 286.82C281.166 298.627 275.117 313.284 273.89 328.717C272.662 344.15 276.318 359.579 284.34 372.82C283.678 373.747 283.283 374.837 283.198 375.972C283.112 377.108 283.339 378.245 283.855 379.26C284.37 380.276 285.154 381.13 286.121 381.731C287.088 382.333 288.201 382.657 289.34 382.67C290.234 382.674 291.118 382.483 291.93 382.11L292.06 382.05C293.11 381.541 293.994 380.747 294.613 379.758C295.232 378.769 295.561 377.626 295.56 376.46C295.555 374.813 294.897 373.235 293.732 372.071C292.566 370.907 290.987 370.253 289.34 370.25C288.883 370.254 288.427 370.305 287.98 370.4C280.519 358.004 277.114 343.589 278.24 329.165C279.366 314.741 284.967 301.028 294.26 289.94L298.12 293.8V295.43C298.12 297.43 298.25 344.76 309.95 360.85L310.01 360.93L311.01 362.29L312.46 364.13C314.772 366.986 317.299 369.661 320.02 372.13L309.32 393.38L303.32 405.28C302.986 405.939 302.519 406.522 301.947 406.99C301.375 407.459 300.712 407.803 300 408C299.292 408.201 298.55 408.251 297.822 408.148C297.093 408.045 296.394 407.79 295.77 407.4C290.439 404.056 285.487 400.143 281 395.73C280.46 395.2 279.92 394.67 279.39 394.12C267.255 381.62 259.26 365.69 256.49 348.49C257.658 347.883 258.603 346.92 259.189 345.741C259.774 344.562 259.97 343.227 259.747 341.93C259.524 340.632 258.895 339.439 257.95 338.522C257.005 337.606 255.794 337.013 254.49 336.83C254.194 336.798 253.897 336.781 253.6 336.78C252.094 336.793 250.644 337.352 249.52 338.355C248.396 339.357 247.674 340.734 247.489 342.228C247.305 343.723 247.669 345.234 248.516 346.48C249.362 347.725 250.632 348.621 252.09 349C255.027 367.144 263.459 383.95 276.25 397.15C276.77 397.71 277.32 398.26 277.88 398.81C282.601 403.465 287.823 407.583 293.45 411.09C294.987 412.057 296.765 412.57 298.58 412.57C299.462 412.566 300.34 412.445 301.19 412.21C302.494 411.842 303.708 411.208 304.754 410.347C305.801 409.487 306.657 408.418 307.27 407.21L313.27 395.4L323.47 375C331.98 381.84 339.16 384.34 340.62 384.8L340.94 384.89C341.039 384.905 341.141 384.905 341.24 384.89C341.336 384.904 341.434 384.904 341.53 384.89L341.86 384.8C342.7 384.54 350.06 382.23 358.92 375.04L369.14 395.37L375.14 407.18C375.747 408.389 376.599 409.459 377.642 410.32C378.686 411.181 379.898 411.814 381.2 412.18C382.053 412.421 382.934 412.542 383.82 412.54C385.662 412.542 387.467 412.026 389.03 411.05C394.674 407.519 399.913 403.378 404.65 398.7C405.18 398.16 405.73 397.61 406.26 397.05C422.47 380.249 431.516 357.806 431.49 334.46C431.523 314.865 425.067 295.81 413.13 280.27ZM359.24 368.94C358.66 369.48 358.07 369.99 357.5 370.48C352.699 374.7 347.2 378.053 341.25 380.39C335.268 378.032 329.731 374.671 324.88 370.45C324.3 369.96 323.71 369.45 323.12 368.92C320.461 366.505 317.994 363.887 315.74 361.09C315.27 360.52 314.81 359.93 314.34 359.3C314.07 358.94 313.79 358.57 313.51 358.17C304.42 345.7 302.85 309.86 302.58 299.08C303.11 299.34 303.73 299.64 304.42 299.93C306.156 300.701 307.935 301.369 309.75 301.93C313.625 303.203 317.672 303.878 321.75 303.93C328.599 303.86 335.294 301.89 341.09 298.24C344.09 300.16 351.26 303.75 362.58 303.75C366.037 303.701 369.466 303.11 372.74 302C374.595 301.405 376.412 300.697 378.18 299.88C378.73 299.63 379.27 299.37 379.79 299.1C379.49 309.91 377.85 345.67 368.79 358.22L368.1 359.14C367.64 359.75 367.17 360.37 366.71 360.96C364.426 363.806 361.929 366.473 359.24 368.94V368.94Z" fill="#1CF8BD"/>
<path id="Vector_2" d="M393 269.59C392.072 269.58 391.159 269.363 390.326 268.954C389.493 268.545 388.763 267.955 388.188 267.228C387.612 266.5 387.207 265.653 387.002 264.748C386.796 263.844 386.796 262.905 387 262C373.337 253.245 357.447 248.597 341.22 248.61H339.94C324.134 248.844 308.706 253.481 295.39 262C295.498 262.455 295.552 262.922 295.55 263.39C295.552 264.78 295.09 266.13 294.236 267.226C293.381 268.322 292.185 269.1 290.837 269.437C289.489 269.773 288.067 269.649 286.798 269.083C285.529 268.517 284.485 267.543 283.835 266.316C283.184 265.088 282.963 263.678 283.206 262.31C283.45 260.942 284.145 259.695 285.18 258.768C286.215 257.841 287.531 257.288 288.917 257.196C290.304 257.103 291.681 257.478 292.83 258.26C306.894 249.323 323.168 244.476 339.83 244.26H341.18C358.271 244.248 375.006 249.149 389.39 258.38C390.443 257.61 391.715 257.197 393.02 257.2C394.081 257.198 395.124 257.468 396.051 257.983C396.978 258.499 397.758 259.244 398.315 260.146C398.873 261.049 399.19 262.079 399.236 263.139C399.282 264.198 399.056 265.252 398.58 266.2C398.171 267.034 397.575 267.763 396.84 268.33C395.736 269.166 394.385 269.61 393 269.59V269.59Z" fill="#1CF8BD"/>
<path id="Vector_3" d="M406.18 272.17C406.078 272.039 405.947 271.933 405.798 271.861C405.649 271.788 405.486 271.75 405.32 271.75C405.166 271.749 405.015 271.786 404.88 271.86H404.8C404.73 271.898 404.666 271.945 404.61 272L402.94 273.57L402.78 273.76C402.627 273.971 402.562 274.233 402.6 274.491C402.637 274.748 402.773 274.981 402.98 275.14C403.173 275.302 403.418 275.391 403.67 275.39C403.804 275.391 403.937 275.365 404.06 275.313C404.184 275.262 404.296 275.186 404.39 275.09L406.05 273.52C406.226 273.346 406.335 273.115 406.359 272.869C406.383 272.622 406.319 272.375 406.18 272.17V272.17Z" fill="#1CF8BD"/>
<path id="Vector_4" d="M370.29 331L370.12 329.68L367.41 330.05C366.738 326.294 365.264 322.726 363.09 319.59L365.28 317.93L364.58 317.02C363.071 315.031 361.313 313.243 359.35 311.7L358.09 310.7L356.42 312.9C353.294 310.737 349.741 309.268 346 308.59L346.36 305.88L345.23 305.73C342.727 305.405 340.193 305.405 337.69 305.73L336.19 305.93L336.56 308.63C332.81 309.313 329.249 310.793 326.12 312.97L324.45 310.78L323.55 311.48C321.695 312.894 320.017 314.526 318.55 316.34L317.28 317.98L319.47 319.65C317.291 322.777 315.814 326.339 315.14 330.09L312.42 329.73L312.27 330.86C312.107 332.147 312.023 333.443 312.02 334.74C312.024 335.96 312.097 337.179 312.24 338.39L312.44 339.9L315.16 339.52C315.845 343.272 317.328 346.832 319.51 349.96L317.33 351.63L318.03 352.55C319.45 354.397 321.078 356.074 322.88 357.55L324.55 358.81L326.2 356.63C329.333 358.801 332.897 360.271 336.65 360.94L336.29 363.66L337.43 363.81C338.7 363.973 339.979 364.056 341.26 364.06C342.5 364.052 343.739 363.975 344.97 363.83L346.46 363.62L346.08 360.91C349.83 360.218 353.387 358.728 356.51 356.54L358.19 358.72L359.09 358.01C361.188 356.404 363.059 354.52 364.65 352.41L365.08 351.85L364.88 351.45V351.15L363.15 349.84C365.311 346.7 366.774 343.133 367.44 339.38L370.16 339.73L370.3 338.6C370.465 337.347 370.545 336.084 370.54 334.82C370.541 333.543 370.457 332.267 370.29 331V331ZM368.13 337.08L365.47 336.73L365.32 337.87C364.763 342.019 363.148 345.955 360.63 349.3L359.94 350.22L362.09 351.85C361.03 353.14 359.851 354.329 358.57 355.4L356.92 353.26L356.02 353.96C352.696 356.516 348.763 358.163 344.61 358.74L343.48 358.9L343.85 361.56C342.187 361.705 340.514 361.705 338.85 361.56L339.2 358.89L338.07 358.74C333.915 358.185 329.976 356.559 326.64 354.02L325.72 353.34L324.1 355.49C322.812 354.424 321.624 353.242 320.55 351.96L322.68 350.33L321.99 349.42C319.445 346.088 317.805 342.154 317.23 338L317.08 336.86L314.41 337.23C314.33 336.38 314.29 335.51 314.29 334.66C314.29 333.81 314.29 333.04 314.4 332.23L317.07 332.59L317.22 331.45C317.807 327.308 319.453 323.389 322 320.07L322.68 319.15L320.53 317.52C321.581 316.247 322.742 315.069 324 314L325.65 316.15L326.55 315.45C329.89 312.899 333.836 311.259 338 310.69L339.14 310.54L338.78 307.88C340.443 307.725 342.117 307.725 343.78 307.88L343.42 310.54L344.56 310.7C348.705 311.277 352.631 312.913 355.96 315.45L356.88 316.15L358.5 314C359.79 315.065 360.975 316.25 362.04 317.54L359.9 319.17L360.59 320.09C363.125 323.424 364.751 327.359 365.31 331.51L365.47 332.65L368.12 332.29C368.2 333.11 368.24 333.94 368.24 334.77C368.243 335.548 368.206 336.326 368.13 337.1V337.08Z" fill="#1CF8BD"/>
<path id="Vector_5" d="M334.45 318.72L334.26 349.93C334.262 350.176 334.173 350.413 334.011 350.598C333.848 350.782 333.624 350.9 333.38 350.93H333.28C333.049 350.936 332.823 350.861 332.64 350.719C332.458 350.577 332.331 350.376 332.28 350.15L327.13 326.3C325.211 329.626 324.614 333.554 325.46 337.3C325.981 340.343 327.451 343.143 329.66 345.3C329.79 345.369 329.904 345.467 329.992 345.585C330.081 345.704 330.142 345.84 330.171 345.985C330.2 346.13 330.197 346.28 330.162 346.423C330.126 346.567 330.059 346.701 329.966 346.815C329.872 346.93 329.755 347.022 329.621 347.086C329.488 347.15 329.342 347.183 329.194 347.183C329.046 347.184 328.9 347.151 328.766 347.088C328.632 347.026 328.514 346.934 328.42 346.82C325.849 344.372 324.137 341.159 323.54 337.66C321.74 328.66 326.72 323.44 326.93 323.23C327.056 323.107 327.211 323.019 327.382 322.975C327.553 322.931 327.732 322.934 327.901 322.981C328.07 323.029 328.224 323.121 328.347 323.247C328.47 323.373 328.557 323.529 328.6 323.7L332.36 341L332.49 318.73C332.49 318.465 332.595 318.21 332.783 318.023C332.97 317.835 333.225 317.73 333.49 317.73C333.746 317.74 333.989 317.849 334.168 318.033C334.347 318.217 334.448 318.463 334.45 318.72V318.72Z" fill="#1CF8BD"/>
<path id="Vector_6" d="M342.08 351.6C342.083 351.841 341.998 352.075 341.842 352.259C341.686 352.443 341.469 352.564 341.23 352.6C340.859 352.647 340.485 352.67 340.11 352.67C339.035 352.694 337.97 352.464 337 352C336.86 351.954 336.732 351.878 336.625 351.777C336.518 351.676 336.435 351.553 336.381 351.416C336.327 351.279 336.304 351.132 336.314 350.985C336.324 350.838 336.365 350.695 336.437 350.566C336.508 350.438 336.606 350.326 336.726 350.24C336.845 350.154 336.981 350.095 337.126 350.067C337.271 350.04 337.419 350.045 337.562 350.082C337.704 350.118 337.837 350.186 337.95 350.28C338.094 350.355 338.245 350.415 338.4 350.46V318.71L337.23 318.92C336.994 318.922 336.765 318.841 336.583 318.69C336.402 318.54 336.279 318.33 336.237 318.098C336.195 317.865 336.237 317.626 336.354 317.421C336.472 317.217 336.658 317.06 336.88 316.98L340.94 316.26C341.194 316.218 341.454 316.276 341.666 316.422C341.879 316.567 342.027 316.788 342.08 317.04C342.122 317.291 342.067 317.549 341.926 317.761C341.785 317.972 341.568 318.122 341.32 318.18L340.32 318.38V350.52L341.2 350.63C341.439 350.659 341.659 350.773 341.821 350.951C341.983 351.129 342.075 351.359 342.08 351.6V351.6Z" fill="#1CF8BD"/>
<path id="Vector_7" d="M350.46 321C350.273 321.183 350.022 321.286 349.76 321.286C349.498 321.286 349.247 321.183 349.06 321C348.577 320.567 348.017 320.228 347.41 320V350.55C347.41 350.815 347.305 351.07 347.117 351.257C346.93 351.445 346.675 351.55 346.41 351.55C346.145 351.55 345.891 351.445 345.703 351.257C345.515 351.07 345.41 350.815 345.41 350.55V319.55L343.85 318.93C343.627 318.837 343.446 318.666 343.339 318.449C343.232 318.232 343.208 317.984 343.27 317.75C343.34 317.515 343.494 317.314 343.702 317.185C343.91 317.056 344.159 317.008 344.4 317.05C344.83 317.14 348.72 317.9 350.4 319.59C350.595 319.769 350.71 320.018 350.721 320.283C350.732 320.547 350.639 320.805 350.46 321Z" fill="#1CF8BD"/>
<path id="Vector_8" d="M357.61 342.35C357.452 342.443 357.273 342.495 357.09 342.5C356.923 342.497 356.76 342.452 356.615 342.37C356.47 342.288 356.348 342.171 356.26 342.03L353.26 337.22V348.15C353.26 348.415 353.154 348.67 352.967 348.857C352.779 349.045 352.525 349.15 352.26 349.15C351.995 349.15 351.74 349.045 351.553 348.857C351.365 348.67 351.26 348.415 351.26 348.15V321.86C351.26 321.595 351.365 321.34 351.553 321.153C351.74 320.965 351.995 320.86 352.26 320.86C352.525 320.86 352.779 320.965 352.967 321.153C353.154 321.34 353.26 321.595 353.26 321.86V330.55L355.73 326.25C355.779 326.111 355.859 325.985 355.963 325.881C356.067 325.776 356.193 325.696 356.332 325.646C356.47 325.596 356.618 325.577 356.765 325.591C356.912 325.605 357.054 325.651 357.181 325.726C357.307 325.801 357.416 325.903 357.499 326.025C357.582 326.147 357.636 326.286 357.659 326.432C357.682 326.577 357.672 326.726 357.631 326.868C357.59 327.009 357.518 327.14 357.42 327.25L353.61 334L357.94 341C358.07 341.224 358.109 341.49 358.048 341.742C357.986 341.994 357.829 342.212 357.61 342.35V342.35Z" fill="#1CF8BD"/>
</g>
<path id="orbit1" opacity="0.25" d="M343.4 519.59C440.707 519.59 519.59 440.707 519.59 343.4C519.59 246.093 440.707 167.21 343.4 167.21C246.093 167.21 167.21 246.093 167.21 343.4C167.21 440.707 246.093 519.59 343.4 519.59Z" stroke="#1CF8BD" stroke-width="0.5" stroke-miterlimit="10"/>
<path id="orbit2" opacity="0.25" d="M343.4 588.81C478.936 588.81 588.81 478.936 588.81 343.4C588.81 207.864 478.936 97.99 343.4 97.99C207.864 97.99 97.9902 207.864 97.9902 343.4C97.9902 478.936 207.864 588.81 343.4 588.81Z" stroke="#1CF8BD" stroke-width="0.5" stroke-miterlimit="10"/>
<path id="orbit3" opacity="0.25" d="M343.4 662.12C519.424 662.12 662.12 519.424 662.12 343.4C662.12 167.376 519.424 24.6801 343.4 24.6801C167.376 24.6801 24.6802 167.376 24.6802 343.4C24.6802 519.424 167.376 662.12 343.4 662.12Z" stroke="#1CF8BD" stroke-width="0.5" stroke-miterlimit="10"/>
<path id="outer-orbit" opacity="0" d="M343.4 686.55C532.917 686.55 686.55 532.917 686.55 343.4C686.55 153.883 532.917 0.25 343.4 0.25C153.883 0.25 0.25 153.883 0.25 343.4C0.25 532.917 153.883 686.55 343.4 686.55Z" stroke="#1CF8BD" stroke-width="0.5" stroke-miterlimit="10"/>
<path id="planet" d="M247.36 494.13C249.017 494.13 250.36 492.787 250.36 491.13C250.36 489.473 249.017 488.13 247.36 488.13C245.703 488.13 244.36 489.473 244.36 491.13C244.36 492.787 245.703 494.13 247.36 494.13Z" fill="#1CF8BD"/>
<path id="planet_2" d="M509.12 618.49C510.777 618.49 512.12 617.147 512.12 615.49C512.12 613.833 510.777 612.49 509.12 612.49C507.463 612.49 506.12 613.833 506.12 615.49C506.12 617.147 507.463 618.49 509.12 618.49Z" fill="#1CF8BD"/>
<path id="planet_3" d="M535.3 194.34C536.957 194.34 538.3 192.997 538.3 191.34C538.3 189.683 536.957 188.34 535.3 188.34C533.643 188.34 532.3 189.683 532.3 191.34C532.3 192.997 533.643 194.34 535.3 194.34Z" fill="#1CF8BD"/>
<path id="planet_4" d="M299.59 175.89C301.247 175.89 302.59 174.547 302.59 172.89C302.59 171.233 301.247 169.89 299.59 169.89C297.933 169.89 296.59 171.233 296.59 172.89C296.59 174.547 297.933 175.89 299.59 175.89Z" fill="#1CF8BD"/>
</g>
</svg>
