<svg width="13" height="13" viewBox="0 0 13 13" fill="none" xmlns="http://www.w3.org/2000/svg">
<path d="M12.7645 3.60373C12.1207 1.54021 10.3884 0.19456 8.12739 0.0242417C7.59298 -0.0151706 7.05297 0.0242417 6.51576 0.0242417V0.00875831C6.02484 0.00875831 5.53391 -0.0109479 5.04439 0.00875831C3.30232 0.094621 1.88145 0.809674 0.899607 2.27497C-1.13562 5.30832 0.43814 9.13835 4.05413 9.9083C4.70075 10.0491 4.92377 10.3123 4.87888 10.9358C4.84966 11.3804 4.85622 11.8267 4.89852 12.2702C4.96444 12.9895 5.34035 13.1978 5.93647 12.8023C7.59298 11.7058 9.27474 10.6374 10.8569 9.43958C11.7379 8.78481 12.3946 7.87171 12.7363 6.82635C13.078 5.78099 13.0879 4.65495 12.7645 3.60373V3.60373ZM10.5862 8.26706C9.2537 9.39313 7.74166 10.3024 6.30396 11.3018C6.25767 11.3356 6.17211 11.3145 6.0066 11.3257C5.98977 10.9274 5.96452 10.5417 5.95751 10.1574C5.93927 9.12991 5.86073 9.05812 4.84943 8.97648C3.17749 8.83572 1.90389 8.09956 1.29515 6.46254C0.734096 4.96487 1.20258 3.20398 2.41726 2.09902C3.09506 1.46582 3.98377 1.10898 4.90974 1.09823C5.8439 1.08275 6.77665 1.08556 7.71501 1.09823C9.60436 1.10808 11.0308 2.00894 11.6634 3.5798C12.2974 5.17882 11.9706 7.09736 10.5862 8.26706Z" fill="#C4C4C4"/>
</svg>
