<svg id="Layer_1" data-name="Layer 1" xmlns="http://www.w3.org/2000/svg" viewBox="0 0 100 100"><defs><style>.cls-1{fill:#131833;}.cls-2{fill:#1cf8bd;}.cls-3{fill:#e1eff6;}.cls-4{fill:#5c1fde;}.cls-5{fill:#fff;}</style></defs><title>abstract1</title><rect class="cls-1" y="60" width="10" height="40"/><rect class="cls-1" x="20" y="80" width="40" height="20"/><rect class="cls-1" x="40" y="40" width="20" height="20"/><rect class="cls-1" x="20" y="20" width="20" height="20"/><rect class="cls-1" width="20" height="20"/><rect class="cls-1" x="80" y="80" width="20" height="20"/><rect class="cls-2" y="20" width="20" height="20"/><polyline class="cls-2" points="40 60 40 40 60 40"/><rect class="cls-1" x="40" width="20" height="20" transform="translate(60 -40) rotate(90)"/><polyline class="cls-2" points="40 0 60 0 60 20"/><polyline class="cls-2" points="79.92 40 99.92 40 99.92 60"/><circle class="cls-2" cx="40" cy="80" r="20"/><rect class="cls-1" x="50" y="30" width="40" height="20" transform="translate(110 -30) rotate(90)"/><circle class="cls-2" cx="80" cy="40" r="20"/><rect class="cls-3" x="20" y="60" width="20" height="20"/><rect class="cls-3" y="40" width="20" height="20"/><rect class="cls-3" x="40" y="20" width="20" height="20"/><rect class="cls-3" x="59.92" y="60" width="20" height="20"/><rect class="cls-3" x="80" y="19.96" width="20" height="20"/><rect class="cls-4" x="40" y="60" width="20" height="20"/><rect class="cls-4" x="60" y="80" width="20" height="20"/><rect class="cls-4" x="20" y="40" width="20" height="20"/><rect class="cls-4" x="20" width="20" height="20"/><rect class="cls-4" x="10" y="60" width="10" height="40"/><rect class="cls-1" x="75" y="-15" width="10" height="40" transform="translate(85 -75) rotate(90)"/><rect class="cls-4" x="75" y="-5" width="10" height="40" transform="translate(95 -65) rotate(90)"/><rect class="cls-1" x="85" y="55" width="10" height="20" transform="translate(155 -25) rotate(90)"/><rect class="cls-4" x="85" y="65" width="10" height="20" transform="translate(165 -15) rotate(90)"/><path class="cls-5" d="M20.05,20a20,20,0,1,0,20,20A20,20,0,0,0,20.05,20Zm0,30a10,10,0,1,1,10-10A10,10,0,0,1,20.05,50Z"/><circle class="cls-3" cx="47.5" cy="67.5" r="1.01"/><circle class="cls-3" cx="52.5" cy="67.5" r="1.01"/><circle class="cls-3" cx="47.5" cy="72.5" r="1.01"/><circle class="cls-3" cx="52.5" cy="72.5" r="1.01"/><circle class="cls-3" cx="87.5" cy="87.5" r="1.01"/><circle class="cls-3" cx="92.5" cy="87.5" r="1.01"/><circle class="cls-3" cx="87.5" cy="92.5" r="1.01"/><circle class="cls-3" cx="92.5" cy="92.5" r="1.01"/><circle class="cls-3" cx="27.59" cy="7.5" r="1.01"/><circle class="cls-3" cx="32.59" cy="7.5" r="1.01"/><circle class="cls-3" cx="27.59" cy="12.5" r="1.01"/><circle class="cls-3" cx="32.59" cy="12.5" r="1.01"/><rect class="cls-4" x="80" y="39.98" width="20" height="20" transform="translate(139.98 -40.02) rotate(90)"/><polyline class="cls-2" points="80 39.98 100 39.98 100 59.98"/></svg>