<svg width="41" height="39" viewBox="0 0 41 39" fill="none" xmlns="http://www.w3.org/2000/svg">
<ellipse cx="20.2167" cy="19.5" rx="19.9025" ry="19.5" fill="#1CF8BD"/>
<path d="M13.1743 15.2H11.5413V26.4C11.5413 27.28 12.2761 28 13.1743 28H24.6055V26.4H13.1743V15.2ZM26.2385 12H16.4403C15.5422 12 14.8073 12.72 14.8073 13.6V23.2C14.8073 24.08 15.5422 24.8 16.4403 24.8H26.2385C27.1367 24.8 27.8715 24.08 27.8715 23.2V13.6C27.8715 12.72 27.1367 12 26.2385 12ZM25.422 19.2H17.2569V17.6H25.422V19.2ZM22.1559 22.4H17.2569V20.8H22.1559V22.4ZM25.422 16H17.2569V14.4H25.422V16Z" fill="black"/>
</svg>
