<svg width="515" height="857" viewBox="0 0 515 857" fill="none" xmlns="http://www.w3.org/2000/svg">
<path d="M142.677 425.943C138.083 401.805 135.78 377.286 135.798 352.714C135.798 138.664 309.241 -34.8523 523.2 -34.8523C737.158 -34.8523 910.601 138.664 910.601 352.714C910.601 566.763 737.152 740.273 523.2 740.273C452.982 740.386 384.067 721.314 323.891 685.115" stroke="white" stroke-width="6.67" stroke-miterlimit="10" stroke-linecap="round"/>
<path d="M241.106 618.347C206.338 581.442 179.144 538.071 161.066 490.692" stroke="white" stroke-width="6.67" stroke-miterlimit="10" stroke-linecap="round"/>
<path d="M279.081 681.878C292.565 681.878 303.495 670.943 303.495 657.453C303.495 643.964 292.565 633.028 279.081 633.028C265.597 633.028 254.667 643.964 254.667 657.453C254.667 670.943 265.597 681.878 279.081 681.878Z" fill="white"/>
<path d="M150.658 475.876C159.449 475.876 166.576 468.747 166.576 459.952C166.576 451.157 159.449 444.028 150.658 444.028C141.867 444.028 134.741 451.157 134.741 459.952C134.741 468.747 141.867 475.876 150.658 475.876Z" fill="white"/>
<path d="M340.42 108.899C393.112 69.2435 457.288 47.8505 523.225 47.9613C691.457 47.9613 827.835 184.397 827.835 352.707C827.835 521.017 691.457 657.447 523.225 657.447C359.038 657.447 225.195 527.498 218.844 364.802" stroke="#1AF5BC" stroke-width="6.67" stroke-miterlimit="10" stroke-linecap="round"/>
<path d="M340.42 108.899C393.112 69.2435 457.288 47.8505 523.225 47.9613C691.457 47.9613 827.835 184.397 827.835 352.707C827.835 521.017 691.457 657.447 523.225 657.447C359.038 657.447 225.195 527.498 218.844 364.802" stroke="#1AF5BC" stroke-width="6.67" stroke-miterlimit="10" stroke-linecap="round"/>
<path d="M227.953 277.432C238.429 236.243 257.433 197.713 283.737 164.338" stroke="#1AF5BC" stroke-width="6.67" stroke-miterlimit="10" stroke-linecap="round"/>
<path d="M310.922 154.148C321.472 154.148 330.025 145.592 330.025 135.038C330.025 124.484 321.472 115.928 310.922 115.928C300.372 115.928 291.82 124.484 291.82 135.038C291.82 145.592 300.372 154.148 310.922 154.148Z" fill="#1AF5BC"/>
<path d="M218.583 346.342C232.651 346.342 244.055 334.933 244.055 320.859C244.055 306.785 232.651 295.376 218.583 295.376C204.515 295.376 193.111 306.785 193.111 320.859C193.111 334.933 204.515 346.342 218.583 346.342Z" fill="#1AF5BC"/>
<path d="M48.8097 412.619C61.706 412.619 72.1605 402.16 72.1605 389.259C72.1605 376.357 61.706 365.898 48.8097 365.898C35.9135 365.898 25.459 376.357 25.459 389.259C25.459 402.16 35.9135 412.619 48.8097 412.619Z" fill="#5C1FDE"/>
<path d="M191.933 9.80439C209.464 -7.24066 228.268 -22.9236 248.182 -37.1081C463.001 -190.252 761.242 -140.179 914.321 74.7311C1067.4 289.641 1017.35 588.009 802.561 741.153C587.774 894.297 289.47 844.256 136.391 629.314C94.393 570.53 66.3244 502.953 54.313 431.704" stroke="#5C1FDE" stroke-width="6.67" stroke-miterlimit="10" stroke-linecap="round"/>
<path d="M47.7714 345.717C49.1043 247.255 80.7429 151.598 138.378 71.7744" stroke="#5C1FDE" stroke-width="6.67" stroke-miterlimit="10" stroke-linecap="round"/>
<path d="M164.563 60.693C176.288 60.693 185.793 51.1842 185.793 39.4544C185.793 27.7246 176.288 18.2157 164.563 18.2157C152.838 18.2157 143.333 27.7246 143.333 39.4544C143.333 51.1842 152.838 60.693 164.563 60.693Z" fill="#5C1FDE"/>
<path d="M523.2 444.034C573.613 444.034 614.481 403.149 614.481 352.714C614.481 302.279 573.613 261.393 523.2 261.393C472.786 261.393 431.918 302.279 431.918 352.714C431.918 403.149 472.786 444.034 523.2 444.034Z" fill="#1CF8BD"/>
</svg>
