<svg width="689" height="698" viewBox="0 0 689 698" fill="none" xmlns="http://www.w3.org/2000/svg">
<path d="M270 190.293C300.279 169.902 336.749 158 376 158C480.934 158 566 243.066 566 348C566 410.161 536.149 465.35 490 500.014" stroke="#38F9C5" stroke-width="7" stroke-linecap="round"/>
<path d="M270 190.293C300.279 169.902 336.749 158 376 158C480.934 158 566 243.066 566 348C566 410.161 536.149 465.35 490 500.014" stroke="#38F9C5" stroke-width="7" stroke-linecap="round"/>
<path d="M228.077 228.69C191.407 273.261 175.415 333.934 190.077 394.341C214.828 496.314 317.558 558.916 419.531 534.165C435.363 530.323 450.246 524.6 464 517.293" stroke="#5C1FDE" stroke-width="7" stroke-linecap="round"/>
<path d="M280 132.343C309.328 119.268 341.815 112 376 112C506.339 112 612 217.661 612 348C612 433.692 566.329 508.716 498 550.061" stroke="#38F9C5" stroke-width="7" stroke-linecap="round"/>
<path d="M235.243 157.387C171.123 204.998 132.741 284 140.832 369.309C153.14 499.066 268.306 594.277 398.063 581.97C417.388 580.137 435.948 576.022 453.5 569.917" stroke="#5C1FDE" stroke-width="7" stroke-linecap="round"/>
<path d="M280 132.343C309.328 119.268 341.815 112 376 112C506.339 112 612 217.661 612 348C612 433.692 566.329 508.716 498 550.061" stroke="#38F9C5" stroke-width="7" stroke-linecap="round"/>
<path d="M296 71.2565C321.399 63.9273 348.241 60 376 60C535.058 60 664 188.942 664 348C664 459.482 600.658 556.17 508 604.036" stroke="#38F9C5" stroke-width="7" stroke-linecap="round"/>
<path d="M449.107 626.34C423.591 633.25 396.688 636.735 368.933 636.279C209.896 633.663 83.092 502.619 85.7076 343.582C87.5408 232.115 152.464 136.482 245.897 90.1455" stroke="#5C1FDE" stroke-width="7" stroke-linecap="round"/>
<path d="M296 71.2565C321.399 63.9273 348.241 60 376 60C535.058 60 664 188.942 664 348C664 459.482 600.658 556.17 508 604.036" stroke="#38F9C5" stroke-width="7" stroke-linecap="round"/>
<path d="M313 9.75593C333.424 5.97581 354.481 3.99998 376 3.99998C565.986 3.99998 720 158.014 720 348C720 488.907 635.281 610.027 514 663.201" stroke="#38F9C5" stroke-width="7" stroke-linecap="round"/>
<path d="M406.174 691.976C385.487 693.846 364.337 693.861 342.912 691.866C153.744 674.252 14.6729 506.621 32.2877 317.454C45.3521 177.154 140.936 64.4103 266.625 22.7098" stroke="#5C1FDE" stroke-width="7" stroke-linecap="round"/>
<path d="M313 9.75593C333.424 5.97581 354.481 3.99998 376 3.99998C565.986 3.99998 720 158.014 720 348C720 488.907 635.281 610.027 514 663.201" stroke="#38F9C5" stroke-width="7" stroke-linecap="round"/>
<circle cx="249" cy="204" r="12" fill="#38F9C5"/>
<circle cx="249" cy="204" r="12" fill="#38F9C5"/>
<circle cx="259" cy="142" r="12" fill="#38F9C5"/>
<circle cx="259" cy="142" r="12" fill="#38F9C5"/>
<circle cx="274" cy="79" r="12" fill="#38F9C5"/>
<circle cx="274" cy="79" r="12" fill="#38F9C5"/>
<circle cx="291" cy="16" r="12" fill="#38F9C5"/>
<circle cx="291" cy="16" r="12" fill="#38F9C5"/>
</svg>
