<svg width="624" height="338" viewBox="0 0 624 338" fill="none" xmlns="http://www.w3.org/2000/svg">
<circle r="29.5" transform="matrix(-1 0 0 1 444.5 201.5)" fill="#1CF8BD"/>
<line x1="504.5" y1="201.5" x2="716.5" y2="201.5" stroke="#1CF8BD" stroke-width="19" stroke-linecap="round"/>
<circle r="41.5" transform="matrix(-1 0 0 1 177.5 201.5)" fill="#1CF8BD"/>
<circle r="27.5" transform="matrix(-1 0 0 1 531.5 310.5)" fill="#5C1FDE"/>
<line x1="586.5" y1="310.5" x2="798.5" y2="310.5" stroke="#5C1FDE" stroke-width="19" stroke-linecap="round"/>
<circle r="41.5" transform="matrix(-1 0 0 1 41.5 41.5)" fill="#5C1FDE"/>
<path d="M475.5 309.5H396.5C342.376 309.5 298.5 265.624 298.5 211.5V139.517C298.5 85.1917 254.309 41.2326 199.984 41.5185L108.5 42" stroke="#5C1FDE" stroke-width="19" stroke-linecap="round"/>
<line x1="246.5" y1="201.5" x2="385.5" y2="201.5" stroke="#1CF8BD" stroke-width="19" stroke-linecap="round"/>
</svg>
