<svg width="1152" height="603" viewBox="0 0 1152 603" fill="none" xmlns="http://www.w3.org/2000/svg">
<circle r="20.5" transform="matrix(-1 0 0 1 36 459.5)" fill="#38F9C5" fill-opacity="0.02"/>
<circle r="20.5" transform="matrix(-1 0 0 1 129 500.5)" fill="#38F9C5" fill-opacity="0.02"/>
<circle r="20.5" transform="matrix(-1 0 0 1 222 541.5)" fill="#38F9C5" fill-opacity="0.02"/>
<circle r="20.5" transform="matrix(-1 0 0 1 315 582.5)" fill="#38F9C5" fill-opacity="0.02"/>
<path d="M-98 459.5L-5 459.5" stroke="#1CF8BD" stroke-opacity="0.02" stroke-width="19" stroke-linecap="round"/>
<path d="M-5 500.5L88 500.5" stroke="#1CF8BD" stroke-opacity="0.02" stroke-width="19" stroke-linecap="round"/>
<path d="M88 541.5L181 541.5" stroke="#1CF8BD" stroke-opacity="0.02" stroke-width="19" stroke-linecap="round"/>
<path d="M181 582.5L274 582.5" stroke="#1CF8BD" stroke-opacity="0.02" stroke-width="19" stroke-linecap="round"/>
<circle r="20.5" transform="matrix(-1 0 0 1 25 377.5)" fill="#38F9C5" fill-opacity="0.02"/>
<circle r="20.5" transform="matrix(-1 0 0 1 118 418.5)" fill="#38F9C5" fill-opacity="0.02"/>
<circle r="20.5" transform="matrix(-1 0 0 1 211 459.5)" fill="#38F9C5" fill-opacity="0.02"/>
<circle r="20.5" transform="matrix(-1 0 0 1 304 500.5)" fill="#38F9C5" fill-opacity="0.02"/>
<circle r="20.5" transform="matrix(-1 0 0 1 397 541.5)" fill="#38F9C5" fill-opacity="0.02"/>
<circle r="20.5" transform="matrix(-1 0 0 1 490 582.5)" fill="#38F9C5" fill-opacity="0.02"/>
<circle r="20.5" transform="matrix(-1 0 0 1 14 295.5)" fill="#38F9C5" fill-opacity="0.02"/>
<circle r="20.5" transform="matrix(-1 0 0 1 107 336.5)" fill="#38F9C5" fill-opacity="0.02"/>
<circle r="20.5" transform="matrix(-1 0 0 1 200 377.5)" fill="#38F9C5" fill-opacity="0.02"/>
<circle r="20.5" transform="matrix(-1 0 0 1 293 418.5)" fill="#38F9C5" fill-opacity="0.02"/>
<circle r="20.5" transform="matrix(-1 0 0 1 386 459.5)" fill="#38F9C5" fill-opacity="0.02"/>
<circle r="20.5" transform="matrix(-1 0 0 1 479 500.5)" fill="#38F9C5" fill-opacity="0.02"/>
<circle r="20.5" transform="matrix(-1 0 0 1 572 541.5)" fill="#38F9C5" fill-opacity="0.02"/>
<circle r="20.5" transform="matrix(-1 0 0 1 665 582.5)" fill="#38F9C5" fill-opacity="0.02"/>
<circle r="20.5" transform="matrix(-1 0 0 1 3 213.5)" fill="#38F9C5" fill-opacity="0.02"/>
<circle r="20.5" transform="matrix(-1 0 0 1 96 254.5)" fill="#38F9C5" fill-opacity="0.02"/>
<circle r="20.5" transform="matrix(-1 0 0 1 189 295.5)" fill="#38F9C5" fill-opacity="0.02"/>
<circle r="20.5" transform="matrix(-1 0 0 1 282 336.5)" fill="#38F9C5" fill-opacity="0.02"/>
<circle r="20.5" transform="matrix(-1 0 0 1 375 377.5)" fill="#38F9C5" fill-opacity="0.02"/>
<circle r="20.5" transform="matrix(-1 0 0 1 468 418.5)" fill="#38F9C5" fill-opacity="0.02"/>
<circle r="20.5" transform="matrix(-1 0 0 1 561 459.5)" fill="#38F9C5" fill-opacity="0.02"/>
<circle r="20.5" transform="matrix(-1 0 0 1 654 500.5)" fill="#38F9C5" fill-opacity="0.02"/>
<circle r="20.5" transform="matrix(-1 0 0 1 747 541.5)" fill="#38F9C5" fill-opacity="0.02"/>
<circle r="20.5" transform="matrix(-1 0 0 1 840 582.5)" fill="#38F9C5" fill-opacity="0.02"/>
<circle r="20.5" transform="matrix(-1 0 0 1 -8 131.5)" fill="#38F9C5" fill-opacity="0.02"/>
<circle r="20.5" transform="matrix(-1 0 0 1 85 172.5)" fill="#38F9C5" fill-opacity="0.02"/>
<circle r="20.5" transform="matrix(-1 0 0 1 178 213.5)" fill="#38F9C5" fill-opacity="0.02"/>
<circle r="20.5" transform="matrix(-1 0 0 1 271 254.5)" fill="#38F9C5" fill-opacity="0.02"/>
<circle r="20.5" transform="matrix(-1 0 0 1 364 295.5)" fill="#38F9C5" fill-opacity="0.02"/>
<circle r="20.5" transform="matrix(-1 0 0 1 457 336.5)" fill="#38F9C5" fill-opacity="0.02"/>
<circle r="20.5" transform="matrix(-1 0 0 1 550 377.5)" fill="#38F9C5" fill-opacity="0.02"/>
<circle r="20.5" transform="matrix(-1 0 0 1 643 418.5)" fill="#38F9C5" fill-opacity="0.02"/>
<circle r="20.5" transform="matrix(-1 0 0 1 736 459.5)" fill="#38F9C5" fill-opacity="0.02"/>
<circle r="20.5" transform="matrix(-1 0 0 1 829 500.5)" fill="#38F9C5" fill-opacity="0.02"/>
<circle r="20.5" transform="matrix(-1 0 0 1 922 541.5)" fill="#38F9C5" fill-opacity="0.02"/>
<circle r="20.5" transform="matrix(-1 0 0 1 1015 582.5)" fill="#38F9C5" fill-opacity="0.02"/>
<circle r="20.5" transform="matrix(-1 0 0 1 -19 49.5)" fill="#38F9C5" fill-opacity="0.02"/>
<circle r="20.5" transform="matrix(-1 0 0 1 74 90.5)" fill="#38F9C5" fill-opacity="0.02"/>
<circle r="20.5" transform="matrix(-1 0 0 1 167 131.5)" fill="#38F9C5" fill-opacity="0.02"/>
<circle r="20.5" transform="matrix(-1 0 0 1 260 172.5)" fill="#38F9C5" fill-opacity="0.02"/>
<circle r="20.5" transform="matrix(-1 0 0 1 353 213.5)" fill="#38F9C5" fill-opacity="0.02"/>
<circle r="20.5" transform="matrix(-1 0 0 1 446 254.5)" fill="#38F9C5" fill-opacity="0.02"/>
<circle r="20.5" transform="matrix(-1 0 0 1 539 295.5)" fill="#38F9C5" fill-opacity="0.02"/>
<circle r="20.5" transform="matrix(-1 0 0 1 632 336.5)" fill="#38F9C5" fill-opacity="0.02"/>
<circle r="20.5" transform="matrix(-1 0 0 1 725 377.5)" fill="#38F9C5" fill-opacity="0.02"/>
<circle r="20.5" transform="matrix(-1 0 0 1 818 418.5)" fill="#38F9C5" fill-opacity="0.02"/>
<circle r="20.5" transform="matrix(-1 0 0 1 911 459.5)" fill="#38F9C5" fill-opacity="0.02"/>
<circle r="20.5" transform="matrix(-1 0 0 1 1004 500.5)" fill="#38F9C5" fill-opacity="0.02"/>
<circle r="20.5" transform="matrix(-1 0 0 1 1097 541.5)" fill="#38F9C5" fill-opacity="0.02"/>
<circle r="20.5" transform="matrix(-1 0 0 1 63 8.5)" fill="#38F9C5" fill-opacity="0.02"/>
<circle r="20.5" transform="matrix(-1 0 0 1 156 49.5)" fill="#38F9C5" fill-opacity="0.02"/>
<circle r="20.5" transform="matrix(-1 0 0 1 249 90.5)" fill="#38F9C5" fill-opacity="0.02"/>
<circle r="20.5" transform="matrix(-1 0 0 1 342 131.5)" fill="#38F9C5" fill-opacity="0.02"/>
<circle r="20.5" transform="matrix(-1 0 0 1 435 172.5)" fill="#38F9C5" fill-opacity="0.02"/>
<circle r="20.5" transform="matrix(-1 0 0 1 528 213.5)" fill="#38F9C5" fill-opacity="0.02"/>
<circle r="20.5" transform="matrix(-1 0 0 1 621 254.5)" fill="#38F9C5" fill-opacity="0.02"/>
<circle r="20.5" transform="matrix(-1 0 0 1 714 295.5)" fill="#38F9C5" fill-opacity="0.02"/>
<circle r="20.5" transform="matrix(-1 0 0 1 807 336.5)" fill="#38F9C5" fill-opacity="0.02"/>
<circle r="20.5" transform="matrix(-1 0 0 1 900 377.5)" fill="#38F9C5" fill-opacity="0.02"/>
<circle r="20.5" transform="matrix(-1 0 0 1 993 418.5)" fill="#38F9C5" fill-opacity="0.02"/>
<circle r="20.5" transform="matrix(-1 0 0 1 1086 459.5)" fill="#38F9C5" fill-opacity="0.02"/>
<circle r="20.5" transform="matrix(-1 0 0 1 238 8.5)" fill="#38F9C5" fill-opacity="0.02"/>
<circle r="20.5" transform="matrix(-1 0 0 1 331 49.5)" fill="#38F9C5" fill-opacity="0.02"/>
<circle r="20.5" transform="matrix(-1 0 0 1 424 90.5)" fill="#38F9C5" fill-opacity="0.02"/>
<circle r="20.5" transform="matrix(-1 0 0 1 517 131.5)" fill="#38F9C5" fill-opacity="0.02"/>
<circle r="20.5" transform="matrix(-1 0 0 1 610 172.5)" fill="#38F9C5" fill-opacity="0.02"/>
<circle r="20.5" transform="matrix(-1 0 0 1 703 213.5)" fill="#38F9C5" fill-opacity="0.02"/>
<circle r="20.5" transform="matrix(-1 0 0 1 796 254.5)" fill="#38F9C5" fill-opacity="0.02"/>
<circle r="20.5" transform="matrix(-1 0 0 1 889 295.5)" fill="#38F9C5" fill-opacity="0.02"/>
<circle r="20.5" transform="matrix(-1 0 0 1 982 336.5)" fill="#38F9C5" fill-opacity="0.02"/>
<circle r="20.5" transform="matrix(-1 0 0 1 1075 377.5)" fill="#38F9C5" fill-opacity="0.02"/>
<circle r="20.5" transform="matrix(-1 0 0 1 1168 418.5)" fill="#38F9C5" fill-opacity="0.02"/>
<circle r="20.5" transform="matrix(-1 0 0 1 413 8.5)" fill="#38F9C5" fill-opacity="0.02"/>
<circle r="20.5" transform="matrix(-1 0 0 1 506 49.5)" fill="#38F9C5" fill-opacity="0.02"/>
<circle r="20.5" transform="matrix(-1 0 0 1 599 90.5)" fill="#38F9C5" fill-opacity="0.02"/>
<circle r="20.5" transform="matrix(-1 0 0 1 692 131.5)" fill="#38F9C5" fill-opacity="0.02"/>
<circle r="20.5" transform="matrix(-1 0 0 1 785 172.5)" fill="#38F9C5" fill-opacity="0.02"/>
<circle r="20.5" transform="matrix(-1 0 0 1 878 213.5)" fill="#38F9C5" fill-opacity="0.02"/>
<circle r="20.5" transform="matrix(-1 0 0 1 971 254.5)" fill="#38F9C5" fill-opacity="0.02"/>
<circle r="20.5" transform="matrix(-1 0 0 1 1064 295.5)" fill="#38F9C5" fill-opacity="0.02"/>
<circle r="20.5" transform="matrix(-1 0 0 1 1157 336.5)" fill="#38F9C5" fill-opacity="0.02"/>
<circle r="20.5" transform="matrix(-1 0 0 1 588 8.5)" fill="#38F9C5" fill-opacity="0.02"/>
<circle r="20.5" transform="matrix(-1 0 0 1 681 49.5)" fill="#38F9C5" fill-opacity="0.02"/>
<circle r="20.5" transform="matrix(-1 0 0 1 774 90.5)" fill="#38F9C5" fill-opacity="0.02"/>
<circle r="20.5" transform="matrix(-1 0 0 1 867 131.5)" fill="#38F9C5" fill-opacity="0.02"/>
<circle r="20.5" transform="matrix(-1 0 0 1 960 172.5)" fill="#38F9C5" fill-opacity="0.02"/>
<circle r="20.5" transform="matrix(-1 0 0 1 1053 213.5)" fill="#38F9C5" fill-opacity="0.02"/>
<circle r="20.5" transform="matrix(-1 0 0 1 1146 254.5)" fill="#38F9C5" fill-opacity="0.02"/>
<circle r="20.5" transform="matrix(-1 0 0 1 763 8.5)" fill="#38F9C5" fill-opacity="0.02"/>
<circle r="20.5" transform="matrix(-1 0 0 1 856 49.5)" fill="#38F9C5" fill-opacity="0.02"/>
<circle r="20.5" transform="matrix(-1 0 0 1 949 90.5)" fill="#38F9C5" fill-opacity="0.02"/>
<circle r="20.5" transform="matrix(-1 0 0 1 1042 131.5)" fill="#38F9C5" fill-opacity="0.02"/>
<circle r="20.5" transform="matrix(-1 0 0 1 1135 172.5)" fill="#38F9C5" fill-opacity="0.02"/>
<circle r="20.5" transform="matrix(-1 0 0 1 938 8.5)" fill="#38F9C5" fill-opacity="0.02"/>
<circle r="20.5" transform="matrix(-1 0 0 1 1031 49.5)" fill="#38F9C5" fill-opacity="0.02"/>
<circle r="20.5" transform="matrix(-1 0 0 1 1124 90.5)" fill="#38F9C5" fill-opacity="0.02"/>
<circle r="20.5" transform="matrix(-1 0 0 1 1113 8.5)" fill="#38F9C5" fill-opacity="0.02"/>
<path d="M-16 418.5L77 418.5" stroke="#1CF8BD" stroke-opacity="0.02" stroke-width="19" stroke-linecap="round"/>
<path d="M77 459.5L170 459.5" stroke="#1CF8BD" stroke-opacity="0.02" stroke-width="19" stroke-linecap="round"/>
<path d="M170 500.5L263 500.5" stroke="#1CF8BD" stroke-opacity="0.02" stroke-width="19" stroke-linecap="round"/>
<path d="M263 541.5L356 541.5" stroke="#1CF8BD" stroke-opacity="0.02" stroke-width="19" stroke-linecap="round"/>
<path d="M356 582.5L449 582.5" stroke="#1CF8BD" stroke-opacity="0.02" stroke-width="19" stroke-linecap="round"/>
<path d="M-27 336.5L66 336.5" stroke="#1CF8BD" stroke-opacity="0.02" stroke-width="19" stroke-linecap="round"/>
<path d="M66 377.5L159 377.5" stroke="#1CF8BD" stroke-opacity="0.02" stroke-width="19" stroke-linecap="round"/>
<path d="M159 418.5L252 418.5" stroke="#1CF8BD" stroke-opacity="0.02" stroke-width="19" stroke-linecap="round"/>
<path d="M252 459.5L345 459.5" stroke="#1CF8BD" stroke-opacity="0.02" stroke-width="19" stroke-linecap="round"/>
<path d="M345 500.5L438 500.5" stroke="#1CF8BD" stroke-opacity="0.02" stroke-width="19" stroke-linecap="round"/>
<path d="M438 541.5L531 541.5" stroke="#1CF8BD" stroke-opacity="0.02" stroke-width="19" stroke-linecap="round"/>
<path d="M531 582.5L624 582.5" stroke="#1CF8BD" stroke-opacity="0.02" stroke-width="19" stroke-linecap="round"/>
<path d="M-38 254.5L55 254.5" stroke="#1CF8BD" stroke-opacity="0.02" stroke-width="19" stroke-linecap="round"/>
<path d="M55 295.5L148 295.5" stroke="#1CF8BD" stroke-opacity="0.02" stroke-width="19" stroke-linecap="round"/>
<path d="M148 336.5L241 336.5" stroke="#1CF8BD" stroke-opacity="0.02" stroke-width="19" stroke-linecap="round"/>
<path d="M241 377.5L334 377.5" stroke="#1CF8BD" stroke-opacity="0.02" stroke-width="19" stroke-linecap="round"/>
<path d="M334 418.5L427 418.5" stroke="#1CF8BD" stroke-opacity="0.02" stroke-width="19" stroke-linecap="round"/>
<path d="M427 459.5L520 459.5" stroke="#1CF8BD" stroke-opacity="0.02" stroke-width="19" stroke-linecap="round"/>
<path d="M520 500.5L613 500.5" stroke="#1CF8BD" stroke-opacity="0.02" stroke-width="19" stroke-linecap="round"/>
<path d="M613 541.5L706 541.5" stroke="#1CF8BD" stroke-opacity="0.02" stroke-width="19" stroke-linecap="round"/>
<path d="M706 582.5L799 582.5" stroke="#1CF8BD" stroke-opacity="0.02" stroke-width="19" stroke-linecap="round"/>
<path d="M-49 172.5L44 172.5" stroke="#1CF8BD" stroke-opacity="0.02" stroke-width="19" stroke-linecap="round"/>
<path d="M44 213.5L137 213.5" stroke="#1CF8BD" stroke-opacity="0.02" stroke-width="19" stroke-linecap="round"/>
<path d="M137 254.5L230 254.5" stroke="#1CF8BD" stroke-opacity="0.02" stroke-width="19" stroke-linecap="round"/>
<path d="M230 295.5L323 295.5" stroke="#1CF8BD" stroke-opacity="0.02" stroke-width="19" stroke-linecap="round"/>
<path d="M323 336.5L416 336.5" stroke="#1CF8BD" stroke-opacity="0.02" stroke-width="19" stroke-linecap="round"/>
<path d="M416 377.5L509 377.5" stroke="#1CF8BD" stroke-opacity="0.02" stroke-width="19" stroke-linecap="round"/>
<path d="M509 418.5L602 418.5" stroke="#1CF8BD" stroke-opacity="0.02" stroke-width="19" stroke-linecap="round"/>
<path d="M602 459.5L695 459.5" stroke="#1CF8BD" stroke-opacity="0.02" stroke-width="19" stroke-linecap="round"/>
<path d="M695 500.5L788 500.5" stroke="#1CF8BD" stroke-opacity="0.02" stroke-width="19" stroke-linecap="round"/>
<path d="M788 541.5L881 541.5" stroke="#1CF8BD" stroke-opacity="0.02" stroke-width="19" stroke-linecap="round"/>
<path d="M881 582.5L974 582.5" stroke="#1CF8BD" stroke-opacity="0.02" stroke-width="19" stroke-linecap="round"/>
<path d="M-60 90.5L33 90.5" stroke="#1CF8BD" stroke-opacity="0.02" stroke-width="19" stroke-linecap="round"/>
<path d="M33 131.5L126 131.5" stroke="#1CF8BD" stroke-opacity="0.02" stroke-width="19" stroke-linecap="round"/>
<path d="M126 172.5L219 172.5" stroke="#1CF8BD" stroke-opacity="0.02" stroke-width="19" stroke-linecap="round"/>
<path d="M219 213.5L312 213.5" stroke="#1CF8BD" stroke-opacity="0.02" stroke-width="19" stroke-linecap="round"/>
<path d="M312 254.5L405 254.5" stroke="#1CF8BD" stroke-opacity="0.02" stroke-width="19" stroke-linecap="round"/>
<path d="M405 295.5L498 295.5" stroke="#1CF8BD" stroke-opacity="0.02" stroke-width="19" stroke-linecap="round"/>
<path d="M498 336.5L591 336.5" stroke="#1CF8BD" stroke-opacity="0.02" stroke-width="19" stroke-linecap="round"/>
<path d="M591 377.5L684 377.5" stroke="#1CF8BD" stroke-opacity="0.02" stroke-width="19" stroke-linecap="round"/>
<path d="M684 418.5L777 418.5" stroke="#1CF8BD" stroke-opacity="0.02" stroke-width="19" stroke-linecap="round"/>
<path d="M777 459.5L870 459.5" stroke="#1CF8BD" stroke-opacity="0.02" stroke-width="19" stroke-linecap="round"/>
<path d="M870 500.5L963 500.5" stroke="#1CF8BD" stroke-opacity="0.02" stroke-width="19" stroke-linecap="round"/>
<path d="M963 541.5L1056 541.5" stroke="#1CF8BD" stroke-opacity="0.02" stroke-width="19" stroke-linecap="round"/>
<path d="M1056 582.5L1149 582.5" stroke="#1CF8BD" stroke-opacity="0.02" stroke-width="19" stroke-linecap="round"/>
<path d="M-71 8.5L22 8.5" stroke="#1CF8BD" stroke-opacity="0.02" stroke-width="19" stroke-linecap="round"/>
<path d="M22 49.5L115 49.5" stroke="#1CF8BD" stroke-opacity="0.02" stroke-width="19" stroke-linecap="round"/>
<path d="M115 90.5L208 90.5" stroke="#1CF8BD" stroke-opacity="0.02" stroke-width="19" stroke-linecap="round"/>
<path d="M208 131.5L301 131.5" stroke="#1CF8BD" stroke-opacity="0.02" stroke-width="19" stroke-linecap="round"/>
<path d="M301 172.5L394 172.5" stroke="#1CF8BD" stroke-opacity="0.02" stroke-width="19" stroke-linecap="round"/>
<path d="M394 213.5L487 213.5" stroke="#1CF8BD" stroke-opacity="0.02" stroke-width="19" stroke-linecap="round"/>
<path d="M487 254.5L580 254.5" stroke="#1CF8BD" stroke-opacity="0.02" stroke-width="19" stroke-linecap="round"/>
<path d="M580 295.5L673 295.5" stroke="#1CF8BD" stroke-opacity="0.02" stroke-width="19" stroke-linecap="round"/>
<path d="M673 336.5L766 336.5" stroke="#1CF8BD" stroke-opacity="0.02" stroke-width="19" stroke-linecap="round"/>
<path d="M766 377.5L859 377.5" stroke="#1CF8BD" stroke-opacity="0.02" stroke-width="19" stroke-linecap="round"/>
<path d="M859 418.5L952 418.5" stroke="#1CF8BD" stroke-opacity="0.02" stroke-width="19" stroke-linecap="round"/>
<path d="M952 459.5L1045 459.5" stroke="#1CF8BD" stroke-opacity="0.02" stroke-width="19" stroke-linecap="round"/>
<path d="M1045 500.5L1138 500.5" stroke="#1CF8BD" stroke-opacity="0.02" stroke-width="19" stroke-linecap="round"/>
<path d="M1138 541.5L1231 541.5" stroke="#1CF8BD" stroke-opacity="0.02" stroke-width="19" stroke-linecap="round"/>
<path d="M104 8.5L197 8.5" stroke="#1CF8BD" stroke-opacity="0.02" stroke-width="19" stroke-linecap="round"/>
<path d="M197 49.5L290 49.5" stroke="#1CF8BD" stroke-opacity="0.02" stroke-width="19" stroke-linecap="round"/>
<path d="M290 90.5L383 90.5" stroke="#1CF8BD" stroke-opacity="0.02" stroke-width="19" stroke-linecap="round"/>
<path d="M383 131.5L476 131.5" stroke="#1CF8BD" stroke-opacity="0.02" stroke-width="19" stroke-linecap="round"/>
<path d="M476 172.5L569 172.5" stroke="#1CF8BD" stroke-opacity="0.02" stroke-width="19" stroke-linecap="round"/>
<path d="M569 213.5L662 213.5" stroke="#1CF8BD" stroke-opacity="0.02" stroke-width="19" stroke-linecap="round"/>
<path d="M662 254.5L755 254.5" stroke="#1CF8BD" stroke-opacity="0.02" stroke-width="19" stroke-linecap="round"/>
<path d="M755 295.5L848 295.5" stroke="#1CF8BD" stroke-opacity="0.02" stroke-width="19" stroke-linecap="round"/>
<path d="M848 336.5L941 336.5" stroke="#1CF8BD" stroke-opacity="0.02" stroke-width="19" stroke-linecap="round"/>
<path d="M941 377.5L1034 377.5" stroke="#1CF8BD" stroke-opacity="0.02" stroke-width="19" stroke-linecap="round"/>
<path d="M1034 418.5L1127 418.5" stroke="#1CF8BD" stroke-opacity="0.02" stroke-width="19" stroke-linecap="round"/>
<path d="M1127 459.5L1220 459.5" stroke="#1CF8BD" stroke-opacity="0.02" stroke-width="19" stroke-linecap="round"/>
<path d="M279 8.5L372 8.5" stroke="#1CF8BD" stroke-opacity="0.02" stroke-width="19" stroke-linecap="round"/>
<path d="M372 49.5L465 49.5" stroke="#1CF8BD" stroke-opacity="0.02" stroke-width="19" stroke-linecap="round"/>
<path d="M465 90.5L558 90.5" stroke="#1CF8BD" stroke-opacity="0.02" stroke-width="19" stroke-linecap="round"/>
<path d="M558 131.5L651 131.5" stroke="#1CF8BD" stroke-opacity="0.02" stroke-width="19" stroke-linecap="round"/>
<path d="M651 172.5L744 172.5" stroke="#1CF8BD" stroke-opacity="0.02" stroke-width="19" stroke-linecap="round"/>
<path d="M744 213.5L837 213.5" stroke="#1CF8BD" stroke-opacity="0.02" stroke-width="19" stroke-linecap="round"/>
<path d="M837 254.5L930 254.5" stroke="#1CF8BD" stroke-opacity="0.02" stroke-width="19" stroke-linecap="round"/>
<path d="M930 295.5L1023 295.5" stroke="#1CF8BD" stroke-opacity="0.02" stroke-width="19" stroke-linecap="round"/>
<path d="M1023 336.5L1116 336.5" stroke="#1CF8BD" stroke-opacity="0.02" stroke-width="19" stroke-linecap="round"/>
<path d="M1116 377.5L1209 377.5" stroke="#1CF8BD" stroke-opacity="0.02" stroke-width="19" stroke-linecap="round"/>
<path d="M454 8.5L547 8.5" stroke="#1CF8BD" stroke-opacity="0.02" stroke-width="19" stroke-linecap="round"/>
<path d="M547 49.5L640 49.5" stroke="#1CF8BD" stroke-opacity="0.02" stroke-width="19" stroke-linecap="round"/>
<path d="M640 90.5L733 90.5" stroke="#1CF8BD" stroke-opacity="0.02" stroke-width="19" stroke-linecap="round"/>
<path d="M733 131.5L826 131.5" stroke="#1CF8BD" stroke-opacity="0.02" stroke-width="19" stroke-linecap="round"/>
<path d="M826 172.5L919 172.5" stroke="#1CF8BD" stroke-opacity="0.02" stroke-width="19" stroke-linecap="round"/>
<path d="M919 213.5L1012 213.5" stroke="#1CF8BD" stroke-opacity="0.02" stroke-width="19" stroke-linecap="round"/>
<path d="M1012 254.5L1105 254.5" stroke="#1CF8BD" stroke-opacity="0.02" stroke-width="19" stroke-linecap="round"/>
<path d="M1105 295.5L1198 295.5" stroke="#1CF8BD" stroke-opacity="0.02" stroke-width="19" stroke-linecap="round"/>
<path d="M629 8.5L722 8.5" stroke="#1CF8BD" stroke-opacity="0.02" stroke-width="19" stroke-linecap="round"/>
<path d="M722 49.5L815 49.5" stroke="#1CF8BD" stroke-opacity="0.02" stroke-width="19" stroke-linecap="round"/>
<path d="M815 90.5L908 90.5" stroke="#1CF8BD" stroke-opacity="0.02" stroke-width="19" stroke-linecap="round"/>
<path d="M908 131.5L1001 131.5" stroke="#1CF8BD" stroke-opacity="0.02" stroke-width="19" stroke-linecap="round"/>
<path d="M1001 172.5L1094 172.5" stroke="#1CF8BD" stroke-opacity="0.02" stroke-width="19" stroke-linecap="round"/>
<path d="M1094 213.5L1187 213.5" stroke="#1CF8BD" stroke-opacity="0.02" stroke-width="19" stroke-linecap="round"/>
<path d="M804 8.5L897 8.5" stroke="#1CF8BD" stroke-opacity="0.02" stroke-width="19" stroke-linecap="round"/>
<path d="M897 49.5L990 49.5" stroke="#1CF8BD" stroke-opacity="0.02" stroke-width="19" stroke-linecap="round"/>
<path d="M990 90.5L1083 90.5" stroke="#1CF8BD" stroke-opacity="0.02" stroke-width="19" stroke-linecap="round"/>
<path d="M1083 131.5L1176 131.5" stroke="#1CF8BD" stroke-opacity="0.02" stroke-width="19" stroke-linecap="round"/>
<path d="M979 8.5L1072 8.5" stroke="#1CF8BD" stroke-opacity="0.02" stroke-width="19" stroke-linecap="round"/>
<path d="M1072 49.5L1165 49.5" stroke="#1CF8BD" stroke-opacity="0.02" stroke-width="19" stroke-linecap="round"/>
</svg>
