<svg width="101" height="1976" viewBox="0 0 101 1976" fill="none" xmlns="http://www.w3.org/2000/svg">
<circle r="20" transform="matrix(-1 0 0 1 20 20)" fill="#1CF8BD"/>
<circle r="20" transform="matrix(-1 0 0 1 20 1527)" fill="#1CF8BD"/>
<circle r="20" transform="matrix(-1 0 0 1 81 60)" fill="#5C1FDE"/>
<circle r="20" transform="matrix(-1 0 0 1 81 465)" fill="#5C1FDE"/>
<circle r="20" transform="matrix(-1 0 0 1 20 234)" fill="#1CF8BD"/>
<circle r="20" transform="matrix(-1 0 0 1 81 1956)" fill="#5C1FDE"/>
<circle r="20" transform="matrix(-1 0 0 1 20 1741)" fill="#1CF8BD"/>
<line x1="21" y1="54" x2="21" y2="200" stroke="#1CF8BD" stroke-width="12" stroke-linecap="round"/>
<circle r="20" transform="matrix(-1 0 0 1 20 832)" fill="#5C1FDE"/>
<circle r="20" transform="matrix(-1 0 0 1 20 1046)" fill="#5C1FDE"/>
<line x1="21" y1="1561" x2="21" y2="1707" stroke="#1CF8BD" stroke-width="12" stroke-linecap="round"/>
<line x1="21" y1="867" x2="21" y2="1013" stroke="#5C1FDE" stroke-width="12" stroke-linecap="round"/>
<path d="M21 1081L21 1286.59C21 1299.97 27.684 1312.46 38.812 1319.87L63.188 1336.13C74.3159 1343.54 81 1356.03 81 1369.41L80.9999 1925" stroke="#5C1FDE" stroke-width="12" stroke-linecap="round"/>
<path d="M20.9999 270L20.9999 575.692C20.9999 589.011 27.6296 601.457 38.6833 608.888L62.8165 625.112C73.8701 632.543 80.4999 644.989 80.4999 658.308L80.5 950" stroke="#1CF8BD" stroke-width="12" stroke-linecap="round"/>
<path d="M79.9999 95L80 430.5" stroke="#5C1FDE" stroke-width="12" stroke-linecap="round"/>
<path d="M80 1014L80 1289.89C80 1303.1 73.48 1315.46 62.5772 1322.91L38.9227 1339.09C28.0199 1346.54 21.5 1358.9 21.5 1372.11L21.5 1491.5" stroke="#1CF8BD" stroke-width="12" stroke-linecap="round"/>
<path d="M80 506L80 576.593C80 589.967 73.3159 602.456 62.188 609.875L37.812 626.125C26.684 633.544 20 646.033 20 659.407L20 797.5" stroke="#5C1FDE" stroke-width="12" stroke-linecap="round"/>
</svg>
