<svg width="294" height="294" viewBox="0 0 294 294" fill="none" xmlns="http://www.w3.org/2000/svg">
<rect width="294" height="294" fill="#9C3D3B"/>
<rect x="69" y="70.1304" width="30.5217" height="30.5217" fill="black" fill-opacity="0.3"/>
<rect x="69" y="110.826" width="30.5217" height="30.5217" fill="black" fill-opacity="0.3"/>
<rect x="69" y="152.652" width="30.5217" height="30.5217" fill="black" fill-opacity="0.3"/>
<rect x="69" y="193.348" width="30.5217" height="30.5217" fill="white"/>
<rect x="110.826" y="70.1304" width="30.5217" height="30.5217" fill="black" fill-opacity="0.3"/>
<rect x="152.652" y="70.1304" width="30.5217" height="30.5217" fill="black" fill-opacity="0.3"/>
<rect x="194.478" y="70.1304" width="30.5217" height="30.5217" rx="15.2609" fill="white"/>
<rect x="110.826" y="110.826" width="30.5217" height="30.5217" fill="black" fill-opacity="0.3"/>
<rect x="152.652" y="110.826" width="30.5217" height="30.5217" rx="10" fill="white"/>
<rect x="194.478" y="110.826" width="30.5217" height="30.5217" fill="black" fill-opacity="0.3"/>
<rect x="110.826" y="152.652" width="30.5217" height="30.5217" rx="4" fill="white"/>
<rect x="152.652" y="152.652" width="30.5217" height="30.5217" fill="black" fill-opacity="0.3"/>
<rect x="194.478" y="152.652" width="30.5217" height="30.5217" fill="black" fill-opacity="0.3"/>
<rect x="110.826" y="193.348" width="30.5217" height="30.5217" fill="black" fill-opacity="0.3"/>
<rect x="152.652" y="193.348" width="30.5217" height="30.5217" fill="black" fill-opacity="0.3"/>
<rect x="194.478" y="193.348" width="30.5217" height="30.5217" fill="black" fill-opacity="0.3"/>
</svg>
