<svg width="294" height="294" viewBox="0 0 294 294" fill="none" xmlns="http://www.w3.org/2000/svg">
<rect width="294" height="294" fill="#3D9481"/>
<circle cx="64.4363" cy="63.3344" r="11.4363" fill="#101014" fill-opacity="0.2"/>
<circle cx="64.4363" cy="91.0222" r="11.4363" fill="#101014" fill-opacity="0.2"/>
<circle cx="64.4363" cy="118.71" r="11.4363" fill="#101014" fill-opacity="0.2"/>
<ellipse cx="64.4363" cy="147" rx="11.4363" ry="12.0382" fill="#101014" fill-opacity="0.2"/>
<circle cx="64.4363" cy="175.29" r="11.4363" fill="#101014" fill-opacity="0.2"/>
<circle cx="64.4363" cy="202.978" r="11.4363" fill="#101014" fill-opacity="0.2"/>
<circle cx="64.4363" cy="230.666" r="11.4363" fill="#101014" fill-opacity="0.2"/>
<circle cx="92.1243" cy="63.3344" r="11.4363" fill="#101014" fill-opacity="0.2"/>
<circle cx="119.812" cy="63.3344" r="11.4363" fill="#101014" fill-opacity="0.2"/>
<circle cx="147.5" cy="63.3344" r="11.4363" fill="#101014" fill-opacity="0.2"/>
<circle cx="175.188" cy="63.3344" r="11.4363" fill="#101014" fill-opacity="0.2"/>
<circle cx="202.876" cy="63.3344" r="11.4363" fill="#101014" fill-opacity="0.2"/>
<circle cx="230.564" cy="63.3344" r="11.4363" fill="#101014" fill-opacity="0.2"/>
<circle cx="92.1243" cy="91.0222" r="11.4363" fill="#101014" fill-opacity="0.2"/>
<circle cx="119.812" cy="91.0222" r="11.4363" fill="#101014" fill-opacity="0.2"/>
<circle cx="147.5" cy="91.0222" r="11.4363" fill="#101014" fill-opacity="0.2"/>
<circle cx="175.188" cy="91.0222" r="11.4363" fill="#101014" fill-opacity="0.2"/>
<circle cx="202.876" cy="91.0222" r="11.4363" fill="#101014" fill-opacity="0.2"/>
<circle cx="230.564" cy="91.0222" r="11.4363" fill="#101014" fill-opacity="0.2"/>
<circle cx="92.1243" cy="118.71" r="11.4363" fill="#101014" fill-opacity="0.2"/>
<circle cx="202.876" cy="118.71" r="11.4363" fill="#101014" fill-opacity="0.2"/>
<circle cx="230.564" cy="118.71" r="11.4363" fill="#101014" fill-opacity="0.2"/>
<ellipse cx="92.1243" cy="147" rx="11.4363" ry="12.0382" fill="#101014" fill-opacity="0.2"/>
<ellipse cx="202.876" cy="147" rx="11.4363" ry="12.0382" fill="#101014" fill-opacity="0.2"/>
<ellipse cx="230.564" cy="147" rx="11.4363" ry="12.0382" fill="#101014" fill-opacity="0.2"/>
<circle cx="92.1243" cy="175.29" r="11.4363" fill="#101014" fill-opacity="0.2"/>
<circle cx="202.876" cy="175.29" r="11.4363" fill="#101014" fill-opacity="0.2"/>
<circle cx="230.564" cy="175.29" r="11.4363" fill="#101014" fill-opacity="0.2"/>
<circle cx="92.1243" cy="202.978" r="11.4363" fill="#101014" fill-opacity="0.2"/>
<circle cx="119.812" cy="202.978" r="11.4363" fill="#101014" fill-opacity="0.2"/>
<circle cx="147.5" cy="202.978" r="11.4363" fill="#101014" fill-opacity="0.2"/>
<circle cx="175.188" cy="202.978" r="11.4363" fill="#101014" fill-opacity="0.2"/>
<circle cx="202.876" cy="202.978" r="11.4363" fill="#101014" fill-opacity="0.2"/>
<circle cx="230.564" cy="202.978" r="11.4363" fill="#101014" fill-opacity="0.2"/>
<circle cx="92.1243" cy="230.666" r="11.4363" fill="#101014" fill-opacity="0.2"/>
<circle cx="119.812" cy="230.666" r="11.4363" fill="#101014" fill-opacity="0.2"/>
<circle cx="147.5" cy="230.666" r="11.4363" fill="#101014" fill-opacity="0.2"/>
<circle cx="175.188" cy="230.666" r="11.4363" fill="#101014" fill-opacity="0.2"/>
<circle cx="202.876" cy="230.666" r="11.4363" fill="#101014" fill-opacity="0.2"/>
<circle cx="230.564" cy="230.666" r="11.4363" fill="#101014" fill-opacity="0.2"/>
<path d="M175.605 174.503H121.802V120.701H156.906L175.605 138.88V174.503Z" stroke="#F0F3FD" stroke-width="10"/>
</svg>
