<svg width="1154" height="185" viewBox="0 0 1154 185" fill="none" xmlns="http://www.w3.org/2000/svg">
<line y1="184.5" x2="927" y2="184.5" stroke="#1CF8BD" stroke-opacity="0.2"/>
<path d="M927 184.5L934 180.5H938.5L944.5 177H948L952 171.5H957L960.5 166.5L972 169L980.5 164.5L991 65C990.167 64.1667 988.5 61.9 988.5 59.5C988.5 57.1 988.5 53.5 988.5 52C989.667 51.3333 992.5 50 994.5 50V46C993.833 45.8333 992.5 45.2 992.5 44C992.5 42.8 992.5 39.8333 992.5 38.5C993 38.1667 994.3 37.5 995.5 37.5V29C997.5 26.8333 1002.2 22.3 1005 21.5L1006.5 1V21.5C1009.33 22.8333 1015.4 26.4 1017 30V37.5C1017.67 37.6667 1019 38.5 1019 40.5C1019 42.5 1019 44 1019 44.5L1018 46V50.5L1024 53.5V60.5C1023.67 61.3333 1022.5 63.1 1020.5 63.5L1030 154C1033.83 153.667 1042.3 154.6 1045.5 161C1047.67 160 1053.2 160 1058 168C1060.83 168 1067.2 169.2 1070 174L1078.5 184.5" stroke="#15454F"/>
<path d="M996 99V107.5H1001V99H996Z" stroke="#15454F"/>
<path d="M997.5 68.5V62H1001V68.5H997.5Z" stroke="#15454F"/>
<path d="M996 37.5002C997.5 37.5002 1009.5 35.5002 1016.5 37.5002M994.5 45.0002C999.333 43.6669 1010.8 41.8002 1018 45.0002M994.5 50.0002C999.667 49.6669 1011.6 49.2002 1018 50.0002M989.5 61.0002C991 60.5002 998.5 53.0002 1023.5 60.0002" stroke="#15454F"/>
<path d="M984 137.5C990.667 135.166 1008.8 131.9 1028 137.5M986.5 115C991.5 112.833 1006.2 109.8 1025 115M988.5 91.9995C995.833 90.4995 1013.1 88.4995 1023.5 92.4995M991 72.4997C995.5 70.9997 1007.9 68.8997 1021.5 72.4997M996 28.4997C1000.5 27.4997 1011 26.2997 1017 29.4997M981.5 165L992 162.5H1001.5L1018 152.5L1025 156L1032 154" stroke="#15454F"/>
<path d="M1078 184.5H1154" stroke="#1CF8BD" stroke-opacity="0.2"/>
</svg>
