<svg width="14" height="13" viewBox="0 0 14 13" fill="none" xmlns="http://www.w3.org/2000/svg">
<path d="M11.7429 0.309433C10.3586 -0.306781 8.9255 0.0557824 7.74753 1.32834C7.63277 1.47856 7.53249 1.6393 7.44802 1.80841C6.88483 1.32117 6.49074 0.899853 6.02356 0.590313C4.88715 -0.159176 3.68194 -0.206467 2.51974 0.51436C1.1397 1.37133 0.446102 2.66968 0.675391 4.2704C1.19559 7.9118 3.36667 10.4325 6.40762 12.3113C7.18434 12.7928 7.92523 12.5549 8.62169 12.1092C10.6768 10.8221 12.301 8.95094 13.2863 6.73526C13.6401 5.90458 13.8718 5.02704 13.9742 4.12996C14.1748 2.54214 13.186 0.95001 11.7429 0.309433ZM12.5339 6.13768C11.611 8.30159 10.0805 9.97684 8.14878 11.2967C7.71887 11.5933 7.25599 11.7825 6.75585 11.45C4.23224 9.77191 2.30048 7.64668 1.6513 4.58568C1.56208 4.16476 1.55672 3.73038 1.63554 3.30739C1.86196 2.17241 2.50827 1.33407 3.66188 1.04029C4.78826 0.752248 5.6481 1.28964 6.34743 2.13515C7.33194 3.32745 7.32907 3.33032 8.28349 2.15091C9.14332 1.09618 10.188 0.726453 11.2342 1.11481C12.339 1.52467 13.0799 2.66538 13.1602 3.95513C12.9567 4.68456 12.8277 5.44551 12.5339 6.13768Z" fill="#C4C4C4"/>
</svg>
