<svg xmlns="http://www.w3.org/2000/svg" viewBox="0 0 327.63 322.56"><defs><style>.cls-1{fill:#fff;}</style></defs><title>Asset 5</title><g id="Layer_2" data-name="Layer 2"><g id="Layer_1-2" data-name="Layer 1"><path class="cls-1" d="M163.27,70.71l-.18,29.63a.92.92,0,0,1-.84.92h-.09a.92.92,0,0,1-.91-.74l-4.89-22.64a14.52,14.52,0,0,0-1.59,10.47,13.92,13.92,0,0,0,4,7.62.93.93,0,1,1-1.18,1.44A15.63,15.63,0,0,1,153,88.73c-1.71-8.53,3-13.5,3.22-13.7a.93.93,0,0,1,1.58.45l3.53,16.36.13-21.14a.93.93,0,0,1,.93-.93h0A.93.93,0,0,1,163.27,70.71Z"/><path class="cls-1" d="M178.46,72.84a.94.94,0,0,1-1.32,0,5.07,5.07,0,0,0-1.57-1v29a.93.93,0,0,1-1.86,0V71.48l-1.48-.59a.93.93,0,0,1,.52-1.78c.41.08,4.1.8,5.71,2.41A.94.94,0,0,1,178.46,72.84Z"/><path class="cls-1" d="M170.51,101.92a.94.94,0,0,1-.81.93,8.07,8.07,0,0,1-1.06.07,6.47,6.47,0,0,1-3-.64.93.93,0,1,1,.9-1.63,2.72,2.72,0,0,0,.43.17V70.7l-1.11.2a.93.93,0,0,1-.33-1.84l3.85-.68a.93.93,0,0,1,.36,1.82l-.91.19V100.9l.83.1A.93.93,0,0,1,170.51,101.92Z"/><path class="cls-1" d="M163.27,70.71l-.18,29.63a.92.92,0,0,1-.84.92h-.09a.92.92,0,0,1-.91-.74l-4.89-22.64a14.52,14.52,0,0,0-1.59,10.47,13.92,13.92,0,0,0,4,7.62.93.93,0,1,1-1.18,1.44A15.63,15.63,0,0,1,153,88.73c-1.71-8.53,3-13.5,3.22-13.7a.93.93,0,0,1,1.58.45l3.53,16.36.13-21.14a.93.93,0,0,1,.93-.93h0A.93.93,0,0,1,163.27,70.71Z"/><path class="cls-1" d="M170.51,101.92a.94.94,0,0,1-.81.93,8.07,8.07,0,0,1-1.06.07,6.47,6.47,0,0,1-3-.64.93.93,0,1,1,.9-1.63,2.72,2.72,0,0,0,.43.17V70.7l-1.11.2a.93.93,0,0,1-.33-1.84l3.85-.68a.93.93,0,0,1,.36,1.82l-.91.19V100.9l.83.1A.93.93,0,0,1,170.51,101.92Z"/><path class="cls-1" d="M178.46,72.84a.94.94,0,0,1-1.32,0,5.07,5.07,0,0,0-1.57-1v29a.93.93,0,0,1-1.86,0V71.48l-1.48-.59a.93.93,0,0,1,.52-1.78c.41.08,4.1.8,5.71,2.41A.94.94,0,0,1,178.46,72.84Z"/><path class="cls-1" d="M197.29,82.39l-.16-1.26-2.58.35a25.14,25.14,0,0,0-4.1-9.92L192.53,70l-.66-.86a28,28,0,0,0-5-5.05l-1.19-.92-1.59,2.08a25.36,25.36,0,0,0-9.9-4.13l.34-2.58-1.07-.14a28.12,28.12,0,0,0-7.16,0l-1.42.19.35,2.57a25.2,25.2,0,0,0-9.91,4.12l-1.58-2.08-.86.66a28,28,0,0,0-4.75,4.61L147,70,149,71.56a25.15,25.15,0,0,0-4.11,9.91l-2.58-.35-.14,1.08a28.47,28.47,0,0,0,0,7.14l.19,1.44,2.58-.36a25.21,25.21,0,0,0,4.13,9.91L147,101.91l.66.87a28.66,28.66,0,0,0,4.61,4.73l1.58,1.2,1.57-2.07a25.22,25.22,0,0,0,9.92,4.09l-.34,2.58,1.08.14a27.78,27.78,0,0,0,3.63.24,30,30,0,0,0,3.52-.22l1.42-.2-.36-2.57a25.14,25.14,0,0,0,9.9-4.15l1.59,2.07.86-.67a27.38,27.38,0,0,0,5.27-5.32l.41-.53-.19-.38v-.28l-1.64-1.25a25.23,25.23,0,0,0,4.07-9.93l2.58.34.14-1.08a26.79,26.79,0,0,0,.23-3.58A27.85,27.85,0,0,0,197.29,82.39Zm-2,5.77-2.53-.33-.14,1.08a23.17,23.17,0,0,1-4.45,10.85l-.66.87,2,1.55a25.32,25.32,0,0,1-3.34,3.37l-1.56-2-.86.66a22.94,22.94,0,0,1-10.83,4.54l-1.07.15.35,2.52a26,26,0,0,1-4.75,0l.34-2.53-1.08-.14a23,23,0,0,1-10.85-4.48l-.87-.65-1.54,2a26,26,0,0,1-3.37-3.35l2-1.55-.66-.86a23.07,23.07,0,0,1-4.52-10.84L146.78,88l-2.53.35c-.08-.81-.12-1.63-.12-2.44s0-1.54.11-2.31l2.53.34.14-1.08A23.05,23.05,0,0,1,151.41,72l.65-.87-2-1.55a26.58,26.58,0,0,1,3.35-3.36l1.56,2,.86-.66a23,23,0,0,1,10.84-4.5l1.08-.14-.34-2.53a25.88,25.88,0,0,1,4.74,0l-.34,2.53,1.08.15a23.15,23.15,0,0,1,10.83,4.51l.87.66,1.55-2a26,26,0,0,1,3.36,3.36l-2,1.55.66.87a23,23,0,0,1,4.48,10.84l.15,1.08,2.52-.34c.07.78.11,1.57.11,2.36S195.31,87.42,195.24,88.16Zm2-5.77-.16-1.26-2.58.35a25.14,25.14,0,0,0-4.1-9.92L192.53,70l-.66-.86a28,28,0,0,0-5-5.05l-1.19-.92-1.59,2.08a25.36,25.36,0,0,0-9.9-4.13l.34-2.58-1.07-.14a28.12,28.12,0,0,0-7.16,0l-1.42.19.35,2.57a25.2,25.2,0,0,0-9.91,4.12l-1.58-2.08-.86.66a28,28,0,0,0-4.75,4.61L147,70,149,71.56a25.15,25.15,0,0,0-4.11,9.91l-2.58-.35-.14,1.08a28.47,28.47,0,0,0,0,7.14l.19,1.44,2.58-.36a25.21,25.21,0,0,0,4.13,9.91L147,101.91l.66.87a28.66,28.66,0,0,0,4.61,4.73l1.58,1.2,1.57-2.07a25.22,25.22,0,0,0,9.92,4.09l-.34,2.58,1.08.14a27.78,27.78,0,0,0,3.63.24,30,30,0,0,0,3.52-.22l1.42-.2-.36-2.57a25.14,25.14,0,0,0,9.9-4.15l1.59,2.07.86-.67a27.38,27.38,0,0,0,5.27-5.32l.41-.53-.19-.38v-.28l-1.64-1.25a25.23,25.23,0,0,0,4.07-9.93l2.58.34.14-1.08a26.79,26.79,0,0,0,.23-3.58A27.85,27.85,0,0,0,197.29,82.39Zm-2,5.77-2.53-.33-.14,1.08a23.17,23.17,0,0,1-4.45,10.85l-.66.87,2,1.55a25.32,25.32,0,0,1-3.34,3.37l-1.56-2-.86.66a22.94,22.94,0,0,1-10.83,4.54l-1.07.15.35,2.52a26,26,0,0,1-4.75,0l.34-2.53-1.08-.14a23,23,0,0,1-10.85-4.48l-.87-.65-1.54,2a26,26,0,0,1-3.37-3.35l2-1.55-.66-.86a23.07,23.07,0,0,1-4.52-10.84L146.78,88l-2.53.35c-.08-.81-.12-1.63-.12-2.44s0-1.54.11-2.31l2.53.34.14-1.08A23.05,23.05,0,0,1,151.41,72l.65-.87-2-1.55a26.58,26.58,0,0,1,3.35-3.36l1.56,2,.86-.66a23,23,0,0,1,10.84-4.5l1.08-.14-.34-2.53a25.88,25.88,0,0,1,4.74,0l-.34,2.53,1.08.15a23.15,23.15,0,0,1,10.83,4.51l.87.66,1.55-2a26,26,0,0,1,3.36,3.36l-2,1.55.66.87a23,23,0,0,1,4.48,10.84l.15,1.08,2.52-.34c.07.78.11,1.57.11,2.36S195.31,87.42,195.24,88.16Zm2-5.77-.16-1.26-2.58.35a25.14,25.14,0,0,0-4.1-9.92L192.53,70l-.66-.86a28,28,0,0,0-5-5.05l-1.19-.92-1.59,2.08a25.36,25.36,0,0,0-9.9-4.13l.34-2.58-1.07-.14a28.12,28.12,0,0,0-7.16,0l-1.42.19.35,2.57a25.2,25.2,0,0,0-9.91,4.12l-1.58-2.08-.86.66a28,28,0,0,0-4.75,4.61L147,70,149,71.56a25.15,25.15,0,0,0-4.11,9.91l-2.58-.35-.14,1.08a28.47,28.47,0,0,0,0,7.14l.19,1.44,2.58-.36a25.21,25.21,0,0,0,4.13,9.91L147,101.91l.66.87a28.66,28.66,0,0,0,4.61,4.73l1.58,1.2,1.57-2.07a25.22,25.22,0,0,0,9.92,4.09l-.34,2.58,1.08.14a27.78,27.78,0,0,0,3.63.24,30,30,0,0,0,3.52-.22l1.42-.2-.36-2.57a25.14,25.14,0,0,0,9.9-4.15l1.59,2.07.86-.67a27.38,27.38,0,0,0,5.27-5.32l.41-.53-.19-.38v-.28l-1.64-1.25a25.23,25.23,0,0,0,4.07-9.93l2.58.34.14-1.08a26.79,26.79,0,0,0,.23-3.58A27.85,27.85,0,0,0,197.29,82.39Zm-2,5.77-2.53-.33-.14,1.08a23.17,23.17,0,0,1-4.45,10.85l-.66.87,2,1.55a25.32,25.32,0,0,1-3.34,3.37l-1.56-2-.86.66a22.94,22.94,0,0,1-10.83,4.54l-1.07.15.35,2.52a26,26,0,0,1-4.75,0l.34-2.53-1.08-.14a23,23,0,0,1-10.85-4.48l-.87-.65-1.54,2a26,26,0,0,1-3.37-3.35l2-1.55-.66-.86a23.07,23.07,0,0,1-4.52-10.84L146.78,88l-2.53.35c-.08-.81-.12-1.63-.12-2.44s0-1.54.11-2.31l2.53.34.14-1.08A23.05,23.05,0,0,1,151.41,72l.65-.87-2-1.55a26.58,26.58,0,0,1,3.35-3.36l1.56,2,.86-.66a23,23,0,0,1,10.84-4.5l1.08-.14-.34-2.53a25.88,25.88,0,0,1,4.74,0l-.34,2.53,1.08.15a23.15,23.15,0,0,1,10.83,4.51l.87.66,1.55-2a26,26,0,0,1,3.36,3.36l-2,1.55.66.87a23,23,0,0,1,4.48,10.84l.15,1.08,2.52-.34c.07.78.11,1.57.11,2.36S195.31,87.42,195.24,88.16Zm2-5.77-.16-1.26-2.58.35a25.14,25.14,0,0,0-4.1-9.92L192.53,70l-.66-.86a28,28,0,0,0-5-5.05l-1.19-.92-1.59,2.08a25.36,25.36,0,0,0-9.9-4.13l.34-2.58-1.07-.14a28.12,28.12,0,0,0-7.16,0l-1.42.19.35,2.57a25.2,25.2,0,0,0-9.91,4.12l-1.58-2.08-.86.66a28,28,0,0,0-4.75,4.61L147,70,149,71.56a25.15,25.15,0,0,0-4.11,9.91l-2.58-.35-.14,1.08a28.47,28.47,0,0,0,0,7.14l.19,1.44,2.58-.36a25.21,25.21,0,0,0,4.13,9.91L147,101.91l.66.87a28.66,28.66,0,0,0,4.61,4.73l1.58,1.2,1.57-2.07a25.22,25.22,0,0,0,9.92,4.09l-.34,2.58,1.08.14a27.78,27.78,0,0,0,3.63.24,30,30,0,0,0,3.52-.22l1.42-.2-.36-2.57a25.14,25.14,0,0,0,9.9-4.15l1.59,2.07.86-.67a27.38,27.38,0,0,0,5.27-5.32l.41-.53-.19-.38v-.28l-1.64-1.25a25.23,25.23,0,0,0,4.07-9.93l2.58.34.14-1.08a26.79,26.79,0,0,0,.23-3.58A27.85,27.85,0,0,0,197.29,82.39Zm-2,5.77-2.53-.33-.14,1.08a23.17,23.17,0,0,1-4.45,10.85l-.66.87,2,1.55a25.32,25.32,0,0,1-3.34,3.37l-1.56-2-.86.66a22.94,22.94,0,0,1-10.83,4.54l-1.07.15.35,2.52a26,26,0,0,1-4.75,0l.34-2.53-1.08-.14a23,23,0,0,1-10.85-4.48l-.87-.65-1.54,2a26,26,0,0,1-3.37-3.35l2-1.55-.66-.86a23.07,23.07,0,0,1-4.52-10.84L146.78,88l-2.53.35c-.08-.81-.12-1.63-.12-2.44s0-1.54.11-2.31l2.53.34.14-1.08A23.05,23.05,0,0,1,151.41,72l.65-.87-2-1.55a26.58,26.58,0,0,1,3.35-3.36l1.56,2,.86-.66a23,23,0,0,1,10.84-4.5l1.08-.14-.34-2.53a25.88,25.88,0,0,1,4.74,0l-.34,2.53,1.08.15a23.15,23.15,0,0,1,10.83,4.51l.87.66,1.55-2a26,26,0,0,1,3.36,3.36l-2,1.55.66.87a23,23,0,0,1,4.48,10.84l.15,1.08,2.52-.34c.07.78.11,1.57.11,2.36S195.31,87.42,195.24,88.16Zm2-5.77-.16-1.26-2.58.35a25.14,25.14,0,0,0-4.1-9.92L192.53,70l-.66-.86a28,28,0,0,0-5-5.05l-1.19-.92-1.59,2.08a25.36,25.36,0,0,0-9.9-4.13l.34-2.58-1.07-.14a28.12,28.12,0,0,0-7.16,0l-1.42.19.35,2.57a25.2,25.2,0,0,0-9.91,4.12l-1.58-2.08-.86.66a28,28,0,0,0-4.75,4.61L147,70,149,71.56a25.15,25.15,0,0,0-4.11,9.91l-2.58-.35-.14,1.08a28.47,28.47,0,0,0,0,7.14l.19,1.44,2.58-.36a25.21,25.21,0,0,0,4.13,9.91L147,101.91l.66.87a28.66,28.66,0,0,0,4.61,4.73l1.58,1.2,1.57-2.07a25.22,25.22,0,0,0,9.92,4.09l-.34,2.58,1.08.14a27.78,27.78,0,0,0,3.63.24,30,30,0,0,0,3.52-.22l1.42-.2-.36-2.57a25.14,25.14,0,0,0,9.9-4.15l1.59,2.07.86-.67a27.38,27.38,0,0,0,5.27-5.32l.41-.53-.19-.38v-.28l-1.64-1.25a25.23,25.23,0,0,0,4.07-9.93l2.58.34.14-1.08a26.79,26.79,0,0,0,.23-3.58A27.85,27.85,0,0,0,197.29,82.39Zm-2,5.77-2.53-.33-.14,1.08a23.17,23.17,0,0,1-4.45,10.85l-.66.87,2,1.55a25.32,25.32,0,0,1-3.34,3.37l-1.56-2-.86.66a22.94,22.94,0,0,1-10.83,4.54l-1.07.15.35,2.52a26,26,0,0,1-4.75,0l.34-2.53-1.08-.14a23,23,0,0,1-10.85-4.48l-.87-.65-1.54,2a26,26,0,0,1-3.37-3.35l2-1.55-.66-.86a23.07,23.07,0,0,1-4.52-10.84L146.78,88l-2.53.35c-.08-.81-.12-1.63-.12-2.44s0-1.54.11-2.31l2.53.34.14-1.08A23.05,23.05,0,0,1,151.41,72l.65-.87-2-1.55a26.58,26.58,0,0,1,3.35-3.36l1.56,2,.86-.66a23,23,0,0,1,10.84-4.5l1.08-.14-.34-2.53a25.88,25.88,0,0,1,4.74,0l-.34,2.53,1.08.15a23.15,23.15,0,0,1,10.83,4.51l.87.66,1.55-2a26,26,0,0,1,3.36,3.36l-2,1.55.66.87a23,23,0,0,1,4.48,10.84l.15,1.08,2.52-.34c.07.78.11,1.57.11,2.36S195.31,87.42,195.24,88.16Zm2-5.77-.16-1.26-2.58.35a25.14,25.14,0,0,0-4.1-9.92L192.53,70l-.66-.86a28,28,0,0,0-5-5.05l-1.19-.92-1.59,2.08a25.36,25.36,0,0,0-9.9-4.13l.34-2.58-1.07-.14a28.12,28.12,0,0,0-7.16,0l-1.42.19.35,2.57a25.2,25.2,0,0,0-9.91,4.12l-1.58-2.08-.86.66a28,28,0,0,0-4.75,4.61L147,70,149,71.56a25.15,25.15,0,0,0-4.11,9.91l-2.58-.35-.14,1.08a28.47,28.47,0,0,0,0,7.14l.19,1.44,2.58-.36a25.21,25.21,0,0,0,4.13,9.91L147,101.91l.66.87a28.66,28.66,0,0,0,4.61,4.73l1.58,1.2,1.57-2.07a25.22,25.22,0,0,0,9.92,4.09l-.34,2.58,1.08.14a27.78,27.78,0,0,0,3.63.24,30,30,0,0,0,3.52-.22l1.42-.2-.36-2.57a25.14,25.14,0,0,0,9.9-4.15l1.59,2.07.86-.67a27.38,27.38,0,0,0,5.27-5.32l.41-.53-.19-.38v-.28l-1.64-1.25a25.23,25.23,0,0,0,4.07-9.93l2.58.34.14-1.08a26.79,26.79,0,0,0,.23-3.58A27.85,27.85,0,0,0,197.29,82.39Zm-2,5.77-2.53-.33-.14,1.08a23.17,23.17,0,0,1-4.45,10.85l-.66.87,2,1.55a25.32,25.32,0,0,1-3.34,3.37l-1.56-2-.86.66a22.94,22.94,0,0,1-10.83,4.54l-1.07.15.35,2.52a26,26,0,0,1-4.75,0l.34-2.53-1.08-.14a23,23,0,0,1-10.85-4.48l-.87-.65-1.54,2a26,26,0,0,1-3.37-3.35l2-1.55-.66-.86a23.07,23.07,0,0,1-4.52-10.84L146.78,88l-2.53.35c-.08-.81-.12-1.63-.12-2.44s0-1.54.11-2.31l2.53.34.14-1.08A23.05,23.05,0,0,1,151.41,72l.65-.87-2-1.55a26.58,26.58,0,0,1,3.35-3.36l1.56,2,.86-.66a23,23,0,0,1,10.84-4.5l1.08-.14-.34-2.53a25.88,25.88,0,0,1,4.74,0l-.34,2.53,1.08.15a23.15,23.15,0,0,1,10.83,4.51l.87.66,1.55-2a26,26,0,0,1,3.36,3.36l-2,1.55.66.87a23,23,0,0,1,4.48,10.84l.15,1.08,2.52-.34c.07.78.11,1.57.11,2.36S195.31,87.42,195.24,88.16Zm2-5.77-.16-1.26-2.58.35a25.14,25.14,0,0,0-4.1-9.92L192.53,70l-.66-.86a28,28,0,0,0-5-5.05l-1.19-.92-1.59,2.08a25.36,25.36,0,0,0-9.9-4.13l.34-2.58-1.07-.14a28.12,28.12,0,0,0-7.16,0l-1.42.19.35,2.57a25.2,25.2,0,0,0-9.91,4.12l-1.58-2.08-.86.66a28,28,0,0,0-4.75,4.61L147,70,149,71.56a25.15,25.15,0,0,0-4.11,9.91l-2.58-.35-.14,1.08a28.47,28.47,0,0,0,0,7.14l.19,1.44,2.58-.36a25.21,25.21,0,0,0,4.13,9.91L147,101.91l.66.87a28.66,28.66,0,0,0,4.61,4.73l1.58,1.2,1.57-2.07a25.22,25.22,0,0,0,9.92,4.09l-.34,2.58,1.08.14a27.78,27.78,0,0,0,3.63.24,30,30,0,0,0,3.52-.22l1.42-.2-.36-2.57a25.14,25.14,0,0,0,9.9-4.15l1.59,2.07.86-.67a27.38,27.38,0,0,0,5.27-5.32l.41-.53-.19-.38v-.28l-1.64-1.25a25.23,25.23,0,0,0,4.07-9.93l2.58.34.14-1.08a26.79,26.79,0,0,0,.23-3.58A27.85,27.85,0,0,0,197.29,82.39Zm-2,5.77-2.53-.33-.14,1.08a23.17,23.17,0,0,1-4.45,10.85l-.66.87,2,1.55a25.32,25.32,0,0,1-3.34,3.37l-1.56-2-.86.66a22.94,22.94,0,0,1-10.83,4.54l-1.07.15.35,2.52a26,26,0,0,1-4.75,0l.34-2.53-1.08-.14a23,23,0,0,1-10.85-4.48l-.87-.65-1.54,2a26,26,0,0,1-3.37-3.35l2-1.55-.66-.86a23.07,23.07,0,0,1-4.52-10.84L146.78,88l-2.53.35c-.08-.81-.12-1.63-.12-2.44s0-1.54.11-2.31l2.53.34.14-1.08A23.05,23.05,0,0,1,151.41,72l.65-.87-2-1.55a26.58,26.58,0,0,1,3.35-3.36l1.56,2,.86-.66a23,23,0,0,1,10.84-4.5l1.08-.14-.34-2.53a25.88,25.88,0,0,1,4.74,0l-.34,2.53,1.08.15a23.15,23.15,0,0,1,10.83,4.51l.87.66,1.55-2a26,26,0,0,1,3.36,3.36l-2,1.55.66.87a23,23,0,0,1,4.48,10.84l.15,1.08,2.52-.34c.07.78.11,1.57.11,2.36S195.31,87.42,195.24,88.16Zm2-5.77-.16-1.26-2.58.35a25.14,25.14,0,0,0-4.1-9.92L192.53,70l-.66-.86a28,28,0,0,0-5-5.05l-1.19-.92-1.59,2.08a25.36,25.36,0,0,0-9.9-4.13l.34-2.58-1.07-.14a28.12,28.12,0,0,0-7.16,0l-1.42.19.35,2.57a25.2,25.2,0,0,0-9.91,4.12l-1.58-2.08-.86.66a28,28,0,0,0-4.75,4.61L147,70,149,71.56a25.15,25.15,0,0,0-4.11,9.91l-2.58-.35-.14,1.08a28.47,28.47,0,0,0,0,7.14l.19,1.44,2.58-.36a25.21,25.21,0,0,0,4.13,9.91L147,101.91l.66.87a28.66,28.66,0,0,0,4.61,4.73l1.58,1.2,1.57-2.07a25.22,25.22,0,0,0,9.92,4.09l-.34,2.58,1.08.14a27.78,27.78,0,0,0,3.63.24,30,30,0,0,0,3.52-.22l1.42-.2-.36-2.57a25.14,25.14,0,0,0,9.9-4.15l1.59,2.07.86-.67a27.38,27.38,0,0,0,5.27-5.32l.41-.53-.19-.38v-.28l-1.64-1.25a25.23,25.23,0,0,0,4.07-9.93l2.58.34.14-1.08a26.79,26.79,0,0,0,.23-3.58A27.85,27.85,0,0,0,197.29,82.39Zm-2,5.77-2.53-.33-.14,1.08a23.17,23.17,0,0,1-4.45,10.85l-.66.87,2,1.55a25.32,25.32,0,0,1-3.34,3.37l-1.56-2-.86.66a22.94,22.94,0,0,1-10.83,4.54l-1.07.15.35,2.52a26,26,0,0,1-4.75,0l.34-2.53-1.08-.14a23,23,0,0,1-10.85-4.48l-.87-.65-1.54,2a26,26,0,0,1-3.37-3.35l2-1.55-.66-.86a23.07,23.07,0,0,1-4.52-10.84L146.78,88l-2.53.35c-.08-.81-.12-1.63-.12-2.44s0-1.54.11-2.31l2.53.34.14-1.08A23.05,23.05,0,0,1,151.41,72l.65-.87-2-1.55a26.58,26.58,0,0,1,3.35-3.36l1.56,2,.86-.66a23,23,0,0,1,10.84-4.5l1.08-.14-.34-2.53a25.88,25.88,0,0,1,4.74,0l-.34,2.53,1.08.15a23.15,23.15,0,0,1,10.83,4.51l.87.66,1.55-2a26,26,0,0,1,3.36,3.36l-2,1.55.66.87a23,23,0,0,1,4.48,10.84l.15,1.08,2.52-.34c.07.78.11,1.57.11,2.36S195.31,87.42,195.24,88.16Zm2-5.77-.16-1.26-2.58.35a25.14,25.14,0,0,0-4.1-9.92L192.53,70l-.66-.86a28,28,0,0,0-5-5.05l-1.19-.92-1.59,2.08a25.36,25.36,0,0,0-9.9-4.13l.34-2.58-1.07-.14a28.12,28.12,0,0,0-7.16,0l-1.42.19.35,2.57a25.2,25.2,0,0,0-9.91,4.12l-1.58-2.08-.86.66a28,28,0,0,0-4.75,4.61L147,70,149,71.56a25.15,25.15,0,0,0-4.11,9.91l-2.58-.35-.14,1.08a28.47,28.47,0,0,0,0,7.14l.19,1.44,2.58-.36a25.21,25.21,0,0,0,4.13,9.91L147,101.91l.66.87a28.66,28.66,0,0,0,4.61,4.73l1.58,1.2,1.57-2.07a25.22,25.22,0,0,0,9.92,4.09l-.34,2.58,1.08.14a27.78,27.78,0,0,0,3.63.24,30,30,0,0,0,3.52-.22l1.42-.2-.36-2.57a25.14,25.14,0,0,0,9.9-4.15l1.59,2.07.86-.67a27.38,27.38,0,0,0,5.27-5.32l.41-.53-.19-.38v-.28l-1.64-1.25a25.23,25.23,0,0,0,4.07-9.93l2.58.34.14-1.08a26.79,26.79,0,0,0,.23-3.58A27.85,27.85,0,0,0,197.29,82.39Zm-2,5.77-2.53-.33-.14,1.08a23.17,23.17,0,0,1-4.45,10.85l-.66.87,2,1.55a25.32,25.32,0,0,1-3.34,3.37l-1.56-2-.86.66a22.94,22.94,0,0,1-10.83,4.54l-1.07.15.35,2.52a26,26,0,0,1-4.75,0l.34-2.53-1.08-.14a23,23,0,0,1-10.85-4.48l-.87-.65-1.54,2a26,26,0,0,1-3.37-3.35l2-1.55-.66-.86a23.07,23.07,0,0,1-4.52-10.84L146.78,88l-2.53.35c-.08-.81-.12-1.63-.12-2.44s0-1.54.11-2.31l2.53.34.14-1.08A23.05,23.05,0,0,1,151.41,72l.65-.87-2-1.55a26.58,26.58,0,0,1,3.35-3.36l1.56,2,.86-.66a23,23,0,0,1,10.84-4.5l1.08-.14-.34-2.53a25.88,25.88,0,0,1,4.74,0l-.34,2.53,1.08.15a23.15,23.15,0,0,1,10.83,4.51l.87.66,1.55-2a26,26,0,0,1,3.36,3.36l-2,1.55.66.87a23,23,0,0,1,4.48,10.84l.15,1.08,2.52-.34c.07.78.11,1.57.11,2.36S195.31,87.42,195.24,88.16Z"/><path class="cls-1" d="M238,34.21a5.8,5.8,0,0,0-5-8.74,5.65,5.65,0,0,0-2.84.76.9.9,0,0,1,.42-.1,1,1,0,0,1,.81.4,1,1,0,0,1-.12,1.32l-1.58,1.49a1,1,0,0,1-.68.28,1,1,0,0,1-.65-.24,1,1,0,0,1-.19-1.31,5.8,5.8,0,0,0,4.83,9,5.71,5.71,0,0,0,1.71-.26,81.2,81.2,0,0,1-6.24,105.4q-.74.78-1.5,1.53a83.32,83.32,0,0,1-14.11,11.11,5.1,5.1,0,0,1-2.73.79,5.33,5.33,0,0,1-1.37-.19,5,5,0,0,1-3.15-2.59l-4.7-9.36-11.13-22.1a68.92,68.92,0,0,0,7.22-7.75c.47-.58.92-1.16,1.38-1.77l.15-.2c.26-.34.52-.69.77-1,11.15-15.39,11.28-60.17,11.28-62.07V47.18l3.75-3.74a66,66,0,0,1,5.87,76.27,6.24,6.24,0,0,0-1.3-.14,5.9,5.9,0,0,0-5.9,5.89,6,6,0,0,0,3.36,5.33,5.9,5.9,0,0,0,7.33-8.77,70.12,70.12,0,0,0-7-82.25c-.49-.55-1-1.1-1.49-1.64a62.13,62.13,0,0,0-45.48-19.94,61.48,61.48,0,0,0-33.13,9.72,5.86,5.86,0,0,0-3.2-1,5.8,5.8,0,0,0-5.79,5.79,5.76,5.76,0,0,0,2.24,4.58,5.71,5.71,0,0,0,3.55,1.21,5.8,5.8,0,0,0,5.79-5.79,5.64,5.64,0,0,0-.18-1.42,57.45,57.45,0,0,1,72.53,9l-8.9,8.91c-3.23,1.44-8,3.11-12.56,3.11-12.51,0-19-5.16-19.07-5.22l-.66-.54a1,1,0,0,0-.63-.23,1,1,0,0,0-.6.2l-.69.52a31.59,31.59,0,0,1-17.11,5.43A38,38,0,0,1,137,49.27L111.65,24a1,1,0,0,0-.71-.29,1,1,0,0,0-.7.29l-1.59,1.57a84.94,84.94,0,0,0-23.6,46.52,5.9,5.9,0,0,0-.3,11.35,6.13,6.13,0,0,0,1.75.26,6.25,6.25,0,0,0,.87-.06,5.9,5.9,0,0,0,1.86-11.07A81.11,81.11,0,0,1,111,29.25l11.12,11.13A70.07,70.07,0,0,0,115.67,122a5.89,5.89,0,0,0,7.24,8.81l.12,0a5.9,5.9,0,0,0-2.58-11.2,6.14,6.14,0,0,0-1.29.14,65.93,65.93,0,0,1,6-76.37L128.78,47v1.55c0,1.9.13,46.82,11.23,62.09l.06.08c.32.44.65.87,1,1.29l1.37,1.75a70,70,0,0,0,7.18,7.6l-10.16,20.17-5.68,11.3a5.07,5.07,0,0,1-4.54,2.8,5,5,0,0,1-2.64-.76,82.21,82.21,0,0,1-14.07-11.06q-.78-.75-1.53-1.53A80.6,80.6,0,0,1,89.22,99,5.9,5.9,0,0,0,87.34,87.9a7.58,7.58,0,0,0-.84-.05,5.89,5.89,0,0,0-1.41,11.62A85.4,85.4,0,0,0,108,145.18c.5.53,1,1,1.55,1.57a85.62,85.62,0,0,0,14.78,11.66,9.14,9.14,0,0,0,4.87,1.4,9.45,9.45,0,0,0,2.48-.34,9.32,9.32,0,0,0,5.77-4.76l5.65-11.21,9.73-19.34c8.07,6.49,14.89,8.87,16.27,9.3l.31.09a1,1,0,0,0,.56,0l.31-.09c.8-.24,7.78-2.44,16.19-9.26l9.71,19.3,5.65,11.21a9.24,9.24,0,0,0,5.75,4.74,9.07,9.07,0,0,0,2.49.34,9.33,9.33,0,0,0,4.95-1.41,86.25,86.25,0,0,0,14.82-11.72c.51-.52,1-1,1.53-1.57a85.41,85.41,0,0,0,24-59.41A84.23,84.23,0,0,0,238,34.21ZM186.8,118.38c-.55.51-1.11,1-1.65,1.46a52.64,52.64,0,0,1-15.43,9.41,53.77,53.77,0,0,1-15.54-9.44c-.55-.46-1.11-1-1.67-1.45a65.91,65.91,0,0,1-7-7.43c-.45-.54-.88-1.1-1.33-1.7-.26-.34-.52-.69-.79-1.07C134.76,96.32,133.27,62.3,133,52.07c.5.25,1.09.53,1.74.81a46.8,46.8,0,0,0,5.06,1.91,37.84,37.84,0,0,0,11.43,1.91,35.16,35.16,0,0,0,18.36-5.4c2.86,1.82,9.65,5.23,20.4,5.23a31.43,31.43,0,0,0,9.6-1.66,46.71,46.71,0,0,0,5.17-2c.52-.24,1-.49,1.52-.74-.28,10.26-1.84,44.2-10.47,56.11-.21.29-.42.58-.65.88-.44.58-.88,1.16-1.32,1.72A68.32,68.32,0,0,1,186.8,118.38Z"/><path class="cls-1" d="M218.85,24.08a5.91,5.91,0,0,1-5.9-5.9,5.55,5.55,0,0,1,.15-1.29A80.4,80.4,0,0,0,169.64,4.18h-1.21a80.77,80.77,0,0,0-42.24,12.66,5.89,5.89,0,0,1-9.42,5.94,6.08,6.08,0,0,1-1.71-2.2,5.89,5.89,0,0,1,8.7-7.28A85.23,85.23,0,0,1,168.36,0h1.28A84.59,84.59,0,0,1,215.4,13.4a5.83,5.83,0,0,1,3.45-1.12,5.9,5.9,0,0,1,5.89,5.9,5.9,5.9,0,0,1-2.26,4.65A5.89,5.89,0,0,1,218.85,24.08Z"/><path class="cls-1" d="M231.23,27.85l-1.58,1.49a1,1,0,0,1-.68.28,1,1,0,0,1-.65-.24,1,1,0,0,1-.19-1.31l.15-.18A5.84,5.84,0,0,1,230,26.26s.05,0,.08,0a.9.9,0,0,1,.42-.1,1,1,0,0,1,.81.4A1,1,0,0,1,231.23,27.85Z"/><path class="cls-1" d="M231.35,26.53a1,1,0,0,0-.81-.4.9.9,0,0,0-.42.1l-.08,0-.18.13-1.58,1.49-.15.18a1,1,0,0,0,.19,1.31,1,1,0,0,0,.65.24,1,1,0,0,0,.68-.28l1.58-1.49A1,1,0,0,0,231.35,26.53Z"/><path class="cls-1" d="M163.27,70.71l-.18,29.63a.92.92,0,0,1-.84.92h-.09a.92.92,0,0,1-.91-.74l-4.89-22.64a14.52,14.52,0,0,0-1.59,10.47,13.92,13.92,0,0,0,4,7.62.93.93,0,1,1-1.18,1.44A15.63,15.63,0,0,1,153,88.73c-1.71-8.53,3-13.5,3.22-13.7a.93.93,0,0,1,1.58.45l3.53,16.36.13-21.14a.93.93,0,0,1,.93-.93h0A.93.93,0,0,1,163.27,70.71Z"/><path class="cls-1" d="M170.51,101.92a.94.94,0,0,1-.81.93,8.07,8.07,0,0,1-1.06.07,6.47,6.47,0,0,1-3-.64.93.93,0,1,1,.9-1.63,2.72,2.72,0,0,0,.43.17V70.7l-1.11.2a.93.93,0,0,1-.33-1.84l3.85-.68a.93.93,0,0,1,.36,1.82l-.91.19V100.9l.83.1A.93.93,0,0,1,170.51,101.92Z"/><path class="cls-1" d="M178.46,72.84a.94.94,0,0,1-1.32,0,5.07,5.07,0,0,0-1.57-1v29a.93.93,0,0,1-1.86,0V71.48l-1.48-.59a.93.93,0,0,1,.52-1.78c.41.08,4.1.8,5.71,2.41A.94.94,0,0,1,178.46,72.84Z"/><path class="cls-1" d="M197.29,82.39l-.16-1.26-2.58.35a25.14,25.14,0,0,0-4.1-9.92L192.53,70l-.66-.86a28,28,0,0,0-5-5.05l-1.19-.92-1.59,2.08a25.36,25.36,0,0,0-9.9-4.13l.34-2.58-1.07-.14a28.12,28.12,0,0,0-7.16,0l-1.42.19.35,2.57a25.2,25.2,0,0,0-9.91,4.12l-1.58-2.08-.86.66a28,28,0,0,0-4.75,4.61L147,70,149,71.56a25.15,25.15,0,0,0-4.11,9.91l-2.58-.35-.14,1.08a28.47,28.47,0,0,0,0,7.14l.19,1.44,2.58-.36a25.21,25.21,0,0,0,4.13,9.91L147,101.91l.66.87a28.66,28.66,0,0,0,4.61,4.73l1.58,1.2,1.57-2.07a25.22,25.22,0,0,0,9.92,4.09l-.34,2.58,1.08.14a27.78,27.78,0,0,0,3.63.24,30,30,0,0,0,3.52-.22l1.42-.2-.36-2.57a25.14,25.14,0,0,0,9.9-4.15l1.59,2.07.86-.67a27.38,27.38,0,0,0,5.27-5.32l.41-.53-.19-.38v-.28l-1.64-1.25a25.23,25.23,0,0,0,4.07-9.93l2.58.34.14-1.08a26.79,26.79,0,0,0,.23-3.58A27.85,27.85,0,0,0,197.29,82.39Zm-2,5.77-2.53-.33-.14,1.08a23.17,23.17,0,0,1-4.45,10.85l-.66.87,2,1.55a25.32,25.32,0,0,1-3.34,3.37l-1.56-2-.86.66a22.94,22.94,0,0,1-10.83,4.54l-1.07.15.35,2.52a26,26,0,0,1-4.75,0l.34-2.53-1.08-.14a23,23,0,0,1-10.85-4.48l-.87-.65-1.54,2a26,26,0,0,1-3.37-3.35l2-1.55-.66-.86a23.07,23.07,0,0,1-4.52-10.84L146.78,88l-2.53.35c-.08-.81-.12-1.63-.12-2.44s0-1.54.11-2.31l2.53.34.14-1.08A23.05,23.05,0,0,1,151.41,72l.65-.87-2-1.55a26.58,26.58,0,0,1,3.35-3.36l1.56,2,.86-.66a23,23,0,0,1,10.84-4.5l1.08-.14-.34-2.53a25.88,25.88,0,0,1,4.74,0l-.34,2.53,1.08.15a23.15,23.15,0,0,1,10.83,4.51l.87.66,1.55-2a26,26,0,0,1,3.36,3.36l-2,1.55.66.87a23,23,0,0,1,4.48,10.84l.15,1.08,2.52-.34c.07.78.11,1.57.11,2.36S195.31,87.42,195.24,88.16Z"/><path class="cls-1" d="M163.27,70.71l-.18,29.63a.92.92,0,0,1-.84.92h-.09a.92.92,0,0,1-.91-.74l-4.89-22.64a14.52,14.52,0,0,0-1.59,10.47,13.92,13.92,0,0,0,4,7.62.93.93,0,1,1-1.18,1.44A15.63,15.63,0,0,1,153,88.73c-1.71-8.53,3-13.5,3.22-13.7a.93.93,0,0,1,1.58.45l3.53,16.36.13-21.14a.93.93,0,0,1,.93-.93h0A.93.93,0,0,1,163.27,70.71Z"/><path class="cls-1" d="M170.51,101.92a.94.94,0,0,1-.81.93,8.07,8.07,0,0,1-1.06.07,6.47,6.47,0,0,1-3-.64.93.93,0,1,1,.9-1.63,2.72,2.72,0,0,0,.43.17V70.7l-1.11.2a.93.93,0,0,1-.33-1.84l3.85-.68a.93.93,0,0,1,.36,1.82l-.91.19V100.9l.83.1A.93.93,0,0,1,170.51,101.92Z"/><path class="cls-1" d="M178.46,72.84a.94.94,0,0,1-1.32,0,5.07,5.07,0,0,0-1.57-1v29a.93.93,0,0,1-1.86,0V71.48l-1.48-.59a.93.93,0,0,1,.52-1.78c.41.08,4.1.8,5.71,2.41A.94.94,0,0,1,178.46,72.84Z"/><path class="cls-1" d="M163.27,70.71l-.18,29.63a.92.92,0,0,1-.84.92h-.09a.92.92,0,0,1-.91-.74l-4.89-22.64a14.52,14.52,0,0,0-1.59,10.47,13.92,13.92,0,0,0,4,7.62.93.93,0,1,1-1.18,1.44A15.63,15.63,0,0,1,153,88.73c-1.71-8.53,3-13.5,3.22-13.7a.93.93,0,0,1,1.58.45l3.53,16.36.13-21.14a.93.93,0,0,1,.93-.93h0A.93.93,0,0,1,163.27,70.71Z"/><path class="cls-1" d="M170.51,101.92a.94.94,0,0,1-.81.93,8.07,8.07,0,0,1-1.06.07,6.47,6.47,0,0,1-3-.64.93.93,0,1,1,.9-1.63,2.72,2.72,0,0,0,.43.17V70.7l-1.11.2a.93.93,0,0,1-.33-1.84l3.85-.68a.93.93,0,0,1,.36,1.82l-.91.19V100.9l.83.1A.93.93,0,0,1,170.51,101.92Z"/><path class="cls-1" d="M178.46,71.52a.93.93,0,1,1-1.32,1.32,5.07,5.07,0,0,0-1.57-1v29a.93.93,0,0,1-1.86,0V71.48l-1.48-.59a.93.93,0,0,1,.52-1.78C173.16,69.19,176.85,69.91,178.46,71.52Z"/><path class="cls-1" d="M185.56,91.86a.93.93,0,0,1-.31,1.28,1,1,0,0,1-.49.14.94.94,0,0,1-.79-.44l-2.81-4.57V98.65a.93.93,0,0,1-1.86,0v-25a.93.93,0,1,1,1.86,0v8.25l2.34-4.08a.93.93,0,1,1,1.61.92l-3.66,6.4Z"/><path class="cls-1" d="M197.29,82.39l-.16-1.26-2.58.35a25.14,25.14,0,0,0-4.1-9.92L192.53,70l-.66-.86a28,28,0,0,0-5-5.05l-1.19-.92-1.59,2.08a25.36,25.36,0,0,0-9.9-4.13l.34-2.58-1.07-.14a28.12,28.12,0,0,0-7.16,0l-1.42.19.35,2.57a25.2,25.2,0,0,0-9.91,4.12l-1.58-2.08-.86.66a28,28,0,0,0-4.75,4.61L147,70,149,71.56a25.15,25.15,0,0,0-4.11,9.91l-2.58-.35-.14,1.08a28.47,28.47,0,0,0,0,7.14l.19,1.44,2.58-.36a25.21,25.21,0,0,0,4.13,9.91L147,101.91l.66.87a28.66,28.66,0,0,0,4.61,4.73l1.58,1.2,1.57-2.07a25.22,25.22,0,0,0,9.92,4.09l-.34,2.58,1.08.14a27.78,27.78,0,0,0,3.63.24,30,30,0,0,0,3.52-.22l1.42-.2-.36-2.57a25.14,25.14,0,0,0,9.9-4.15l1.59,2.07.86-.67a27.38,27.38,0,0,0,5.27-5.32l.41-.53-.19-.38v-.28l-1.64-1.25a25.23,25.23,0,0,0,4.07-9.93l2.58.34.14-1.08a26.79,26.79,0,0,0,.23-3.58A27.85,27.85,0,0,0,197.29,82.39Zm-2,5.77-2.53-.33-.14,1.08a23.17,23.17,0,0,1-4.45,10.85l-.66.87,2,1.55a25.32,25.32,0,0,1-3.34,3.37l-1.56-2-.86.66a22.94,22.94,0,0,1-10.83,4.54l-1.07.15.35,2.52a26,26,0,0,1-4.75,0l.34-2.53-1.08-.14a23,23,0,0,1-10.85-4.48l-.87-.65-1.54,2a26,26,0,0,1-3.37-3.35l2-1.55-.66-.86a23.07,23.07,0,0,1-4.52-10.84L146.78,88l-2.53.35c-.08-.81-.12-1.63-.12-2.44s0-1.54.11-2.31l2.53.34.14-1.08A23.05,23.05,0,0,1,151.41,72l.65-.87-2-1.55a26.58,26.58,0,0,1,3.35-3.36l1.56,2,.86-.66a23,23,0,0,1,10.84-4.5l1.08-.14-.34-2.53a25.88,25.88,0,0,1,4.74,0l-.34,2.53,1.08.15a23.15,23.15,0,0,1,10.83,4.51l.87.66,1.55-2a26,26,0,0,1,3.36,3.36l-2,1.55.66.87a23,23,0,0,1,4.48,10.84l.15,1.08,2.52-.34c.07.78.11,1.57.11,2.36S195.31,87.42,195.24,88.16Z"/><path class="cls-1" d="M163.27,70.71l-.18,29.63a.92.92,0,0,1-.84.92h-.09a.92.92,0,0,1-.91-.74l-4.89-22.64a14.52,14.52,0,0,0-1.59,10.47,13.92,13.92,0,0,0,4,7.62.93.93,0,1,1-1.18,1.44A15.63,15.63,0,0,1,153,88.73c-1.71-8.53,3-13.5,3.22-13.7a.93.93,0,0,1,1.58.45l3.53,16.36.13-21.14a.93.93,0,0,1,.93-.93h0A.93.93,0,0,1,163.27,70.71Z"/><path class="cls-1" d="M170.51,101.92a.94.94,0,0,1-.81.93,8.07,8.07,0,0,1-1.06.07,6.47,6.47,0,0,1-3-.64.93.93,0,1,1,.9-1.63,2.72,2.72,0,0,0,.43.17V70.7l-1.11.2a.93.93,0,0,1-.33-1.84l3.85-.68a.93.93,0,0,1,.36,1.82l-.91.19V100.9l.83.1A.93.93,0,0,1,170.51,101.92Z"/><path class="cls-1" d="M178.46,71.52a.93.93,0,1,1-1.32,1.32,5.07,5.07,0,0,0-1.57-1v29a.93.93,0,0,1-1.86,0V71.48l-1.48-.59a.93.93,0,0,1,.52-1.78C173.16,69.19,176.85,69.91,178.46,71.52Z"/><path class="cls-1" d="M185.25,93.14a1,1,0,0,1-.49.14.94.94,0,0,1-.79-.44l-2.81-4.57V98.65a.93.93,0,0,1-1.86,0v-25a.93.93,0,1,1,1.86,0v8.25l2.34-4.08a.93.93,0,1,1,1.61.92l-3.66,6.4,4.11,6.68A.93.93,0,0,1,185.25,93.14Z"/><path class="cls-1" d="M163.27,70.71l-.18,29.63a.92.92,0,0,1-.84.92h-.09a.92.92,0,0,1-.91-.74l-4.89-22.64a14.52,14.52,0,0,0-1.59,10.47,13.92,13.92,0,0,0,4,7.62.93.93,0,1,1-1.18,1.44A15.63,15.63,0,0,1,153,88.73c-1.71-8.53,3-13.5,3.22-13.7a.93.93,0,0,1,1.58.45l3.53,16.36.13-21.14a.93.93,0,0,1,.93-.93h0A.93.93,0,0,1,163.27,70.71Z"/><path class="cls-1" d="M170.51,101.92a.94.94,0,0,1-.81.93,8.07,8.07,0,0,1-1.06.07,6.47,6.47,0,0,1-3-.64.93.93,0,1,1,.9-1.63,2.72,2.72,0,0,0,.43.17V70.7l-1.11.2a.93.93,0,0,1-.33-1.84l3.85-.68a.93.93,0,0,1,.36,1.82l-.91.19V100.9l.83.1A.93.93,0,0,1,170.51,101.92Z"/><path class="cls-1" d="M178.46,72.84a.94.94,0,0,1-1.32,0,5.07,5.07,0,0,0-1.57-1v29a.93.93,0,0,1-1.86,0V71.48l-1.48-.59a.93.93,0,0,1,.52-1.78c.41.08,4.1.8,5.71,2.41A.94.94,0,0,1,178.46,72.84Z"/><path class="cls-1" d="M185.25,93.14a1,1,0,0,1-.49.14.94.94,0,0,1-.79-.44l-2.81-4.57V98.65a.93.93,0,0,1-1.86,0v-25a.93.93,0,1,1,1.86,0v8.25l2.34-4.08a.93.93,0,1,1,1.61.92l-3.66,6.4,4.11,6.68A.93.93,0,0,1,185.25,93.14Z"/><path class="cls-1" d="M49,268.28c-13.46,0-25.1-4.42-34.61-13.12S0,235.74,0,223.37s4.84-23,14.38-31.73S35.53,178.53,49,178.53a52,52,0,0,1,17,2.78,2.48,2.48,0,0,1,1.8,2.46,2.54,2.54,0,0,1-1.23,2.38,2.75,2.75,0,0,1-1.5.44,3.12,3.12,0,0,1-1.07-.18,46,46,0,0,0-15-2.49,43.93,43.93,0,0,0-30.61,11.62c-8.41,7.66-12.67,17-12.67,27.83s4.26,20.2,12.67,27.89S37.1,262.82,49,262.82A46.63,46.63,0,0,0,64,260.39a3.36,3.36,0,0,1,1-.18,3,3,0,0,1,1.49.44,2.53,2.53,0,0,1,1.24,2.2,2.67,2.67,0,0,1-1.86,2.7A53,53,0,0,1,49,268.28Z"/><path class="cls-1" d="M130.13,268.28c-13.45,0-25.09-4.41-34.6-13.12s-14.38-19.42-14.38-31.79,4.84-23,14.38-31.73,21.14-13.11,34.6-13.11,25,4.41,34.55,13.11,14.37,19.41,14.37,31.73-4.83,23-14.37,31.79S143.54,268.28,130.13,268.28Zm0-84.36a43.89,43.89,0,0,0-30.6,11.63c-8.4,7.65-12.67,17-12.67,27.82s4.27,20.2,12.67,27.88,18.72,11.57,30.6,11.57a44,44,0,0,0,30.55-11.57c8.4-7.68,12.66-17.06,12.66-27.88s-4.26-20.17-12.66-27.82A43.82,43.82,0,0,0,130.13,183.92Z"/><path class="cls-1" d="M195.84,268.28a2.49,2.49,0,0,1-2.72-2.7v-.37a2.43,2.43,0,0,1,2.72-2.57h26.71a20.21,20.21,0,0,0,14.17-5.44,16.58,16.58,0,0,0,5.91-12.85c0-5.92-2.33-10.3-7.1-13.41-2.87-1.88-8.39-3.95-16.43-6.18s-13.68-4.52-16.93-6.75c-5.31-3.7-8-9.06-8-15.93a22.27,22.27,0,0,1,7.68-17,26.56,26.56,0,0,1,18.44-6.94h18.82a2.47,2.47,0,0,1,2.79,2.58v.36a2.52,2.52,0,0,1-2.79,2.7H220.3a20.42,20.42,0,0,0-14.24,5.38,16.66,16.66,0,0,0-5.9,12.9,13.38,13.38,0,0,0,7.06,12.31c2.61,1.56,8.12,3.5,16.39,5.77,8,2.2,13.57,4.49,17,7,5.32,4,8,9.76,8,17.17a22.22,22.22,0,0,1-7.68,16.93,26.38,26.38,0,0,1-18.37,7Z"/><path class="cls-1" d="M324.64,268.28a2.5,2.5,0,0,1-2.79-2.64V226.13H271.69v39.51a2.5,2.5,0,0,1-2.79,2.64c-1.82,0-2.92-1-2.92-2.64V181.16a2.49,2.49,0,0,1,2.79-2.63c1.83,0,2.92,1,2.92,2.63v39.57h50.16V181.16a2.49,2.49,0,0,1,2.79-2.63c1.87,0,3,1,3,2.63v84.48a2.53,2.53,0,0,1-2.85,2.64Z"/><path class="cls-1" d="M110.94,321l-1.55,1.53c.51-.52,1-1,1.55-1.53"/></g></g></svg>