<svg width="138" height="40" viewBox="0 0 138 40" fill="none" xmlns="http://www.w3.org/2000/svg">
<path d="M20.6888 25.4154C20.6341 25.4149 20.5811 25.396 20.5387 25.362C20.4962 25.3279 20.4667 25.2806 20.4551 25.2278L19.2017 19.4892C18.7307 20.2911 18.5847 21.2393 18.7933 22.1431C18.9201 22.8779 19.2798 23.5542 19.8207 24.0745C19.8451 24.0941 19.8653 24.1183 19.8801 24.1457C19.8949 24.1731 19.904 24.2032 19.9069 24.2341C19.9098 24.2651 19.9063 24.2962 19.8968 24.3259C19.8873 24.3555 19.8719 24.3829 19.8515 24.4065C19.8316 24.4305 19.8071 24.4504 19.7795 24.4651C19.7518 24.4797 19.7215 24.4888 19.6902 24.4919C19.6589 24.4949 19.6274 24.4919 19.5973 24.4829C19.5673 24.4739 19.5393 24.4592 19.515 24.4395C18.8892 23.8493 18.4723 23.0762 18.3259 22.2343C17.8892 20.0722 19.0964 18.815 19.1555 18.7618C19.1861 18.7318 19.2242 18.7104 19.2661 18.6998C19.3079 18.6893 19.3518 18.69 19.3932 18.7019C19.4347 18.7138 19.4721 18.7365 19.5017 18.7675C19.5312 18.7986 19.5518 18.8368 19.5613 18.8784L20.4654 23.0251L20.4962 17.6668C20.4969 17.604 20.5226 17.5441 20.5678 17.5C20.613 17.4558 20.674 17.4311 20.7376 17.4311C20.7692 17.4311 20.8005 17.4373 20.8296 17.4493C20.8588 17.4613 20.8852 17.4789 20.9074 17.501C20.9297 17.5232 20.9472 17.5495 20.959 17.5783C20.9709 17.6072 20.9768 17.6382 20.9765 17.6693L20.9277 25.1796C20.928 25.2377 20.9063 25.2938 20.8668 25.337C20.8274 25.3801 20.7731 25.4071 20.7145 25.4128H20.6888V25.4154ZM24.1434 25.319V17.9684C24.2927 18.0287 24.4301 18.1145 24.5492 18.2219C24.5944 18.2646 24.6548 18.2881 24.7174 18.2874C24.7801 18.2866 24.8398 18.2616 24.8839 18.2177C24.9281 18.1738 24.9529 18.1146 24.9533 18.0529C24.9536 17.9911 24.9293 17.9316 24.8857 17.8873C24.4721 17.4792 23.527 17.2942 23.4191 17.2765C23.361 17.2653 23.3009 17.2761 23.2505 17.3066C23.2001 17.3371 23.1631 17.3851 23.1468 17.4412C23.1296 17.4974 23.1343 17.5579 23.16 17.6109C23.1856 17.6639 23.2304 17.7055 23.2855 17.7276L23.6656 17.8772V25.319C23.6656 25.3816 23.6908 25.4415 23.7356 25.4857C23.7804 25.5299 23.8412 25.5548 23.9045 25.5548C23.9679 25.5548 24.0286 25.5299 24.0734 25.4857C24.1182 25.4415 24.1434 25.3816 24.1434 25.319ZM22.6357 25.826C22.6945 25.8199 22.7489 25.7926 22.7884 25.7493C22.8279 25.706 22.8498 25.6498 22.8498 25.5915C22.8498 25.5332 22.8279 25.477 22.7884 25.4337C22.7489 25.3904 22.6945 25.3631 22.6357 25.3571L22.4225 25.3317V17.5882L22.6537 17.5401C22.716 17.5283 22.7711 17.4926 22.8067 17.4408C22.8423 17.389 22.8557 17.3253 22.8437 17.2638C22.8318 17.2023 22.7956 17.148 22.7431 17.1128C22.6906 17.0776 22.6261 17.0645 22.5638 17.0762L21.5749 17.2511C21.5435 17.256 21.5134 17.267 21.4863 17.2835C21.4592 17.3 21.4358 17.3217 21.4173 17.3473C21.3989 17.3729 21.3858 17.4019 21.3788 17.4325C21.3719 17.4632 21.3712 17.4949 21.3769 17.5258C21.3825 17.5567 21.3944 17.5862 21.4117 17.6125C21.4291 17.6389 21.4516 17.6615 21.478 17.6791C21.5043 17.6967 21.5339 17.709 21.5652 17.7151C21.5964 17.7213 21.6285 17.7212 21.6597 17.715L21.9448 17.6668V25.3013C21.878 25.2785 21.8395 25.2582 21.8343 25.2582C21.7788 25.228 21.7134 25.2207 21.6525 25.2381C21.5915 25.2554 21.5401 25.2959 21.5094 25.3507C21.4788 25.4055 21.4714 25.4701 21.489 25.5302C21.5066 25.5903 21.5477 25.6411 21.6032 25.6714C21.8435 25.7845 22.1075 25.8401 22.3737 25.8336C22.4596 25.8319 22.5453 25.826 22.6306 25.8158L22.6357 25.826ZM25.574 24.7513V18.4145C25.574 18.352 25.5488 18.2921 25.504 18.2479C25.4592 18.2036 25.3985 18.1788 25.3351 18.1788C25.2718 18.1788 25.211 18.2036 25.1662 18.2479C25.1214 18.2921 25.0963 18.352 25.0963 18.4145V24.7513C25.0963 24.8138 25.1214 24.8737 25.1662 24.918C25.211 24.9622 25.2718 24.987 25.3351 24.987C25.3985 24.987 25.4592 24.9622 25.504 24.918C25.5488 24.8737 25.574 24.8138 25.574 24.7513ZM26.6271 23.3547C26.6809 23.3217 26.7192 23.269 26.7336 23.2082C26.7481 23.1473 26.7375 23.0833 26.7041 23.0302L25.6485 21.337L26.5911 19.7148C26.6224 19.6604 26.6306 19.5959 26.6137 19.5355C26.5969 19.4751 26.5564 19.4238 26.5012 19.3929C26.446 19.362 26.3807 19.354 26.3195 19.3706C26.2583 19.3873 26.2064 19.4272 26.175 19.4816L25.1708 21.223C25.1463 21.2608 25.1333 21.3048 25.1333 21.3497C25.1333 21.3946 25.1463 21.4386 25.1708 21.4764L26.3009 23.2887C26.3218 23.3235 26.3515 23.3522 26.3871 23.3722C26.4226 23.3922 26.4628 23.4028 26.5038 23.4028C26.5481 23.4019 26.5915 23.3897 26.6296 23.3673L26.6271 23.3547ZM7.53581 5.99707L7.13771 6.38742C7.2687 6.25308 7.39455 6.13395 7.53581 5.99707ZM18.2128 30.8219L15.5699 35.9926L15.3131 36.4996L14.1264 38.8467C13.9934 39.1065 13.8071 39.3361 13.5794 39.5211C13.3517 39.7061 13.0876 39.8424 12.8037 39.9214C12.6181 39.9727 12.4263 39.9991 12.2335 40C11.8404 39.9992 11.4553 39.8903 11.1214 39.6857C9.76365 38.8459 8.5028 37.8626 7.36116 36.753C7.23017 36.6212 7.10432 36.4996 6.97076 36.3602C3.84665 33.18 1.80272 29.1193 1.12241 24.7411C0.834127 24.7118 0.564996 24.585 0.360642 24.3822C0.156288 24.1794 0.0292852 23.9131 0.00116684 23.6285C-0.0269515 23.3438 0.0455445 23.0583 0.206364 22.8204C0.367183 22.5825 0.60643 22.4068 0.883541 22.323C1.00482 22.2852 1.13135 22.2664 1.25853 22.2673C1.32043 22.2664 1.38228 22.2707 1.44346 22.2799C1.72186 22.3201 1.97852 22.4514 2.17229 22.6528C2.36606 22.8541 2.48571 23.1138 2.51206 23.3902C2.53842 23.6667 2.46995 23.9439 2.31763 24.1773C2.16531 24.4108 1.93797 24.587 1.67205 24.6778C2.3289 28.9413 4.31669 32.8965 7.35859 35.9926C7.48701 36.1244 7.61544 36.2461 7.75156 36.383C8.86452 37.4565 10.0916 38.4083 11.4116 39.2218C11.5933 39.3355 11.7975 39.4096 12.0105 39.4393C12.2235 39.469 12.4405 39.4536 12.647 39.3942C12.8553 39.3352 13.0487 39.2339 13.215 39.0968C13.3813 38.9598 13.5168 38.79 13.6128 38.5983L14.8225 36.2284L15.0793 35.7214L17.7736 30.4366C17.92 30.5684 18.0664 30.6901 18.2103 30.8092L18.2128 30.8219ZM1.59243 24.1125C1.71323 24.0479 1.81211 23.9496 1.87679 23.83C1.94147 23.7103 1.96909 23.5745 1.95623 23.4395C1.94337 23.3045 1.89059 23.1762 1.80445 23.0705C1.71831 22.9648 1.6026 22.8865 1.47172 22.8452C1.40271 22.8238 1.33086 22.8127 1.25853 22.8122C1.1388 22.8121 1.02109 22.8427 0.916931 22.9009C0.754126 22.9893 0.633573 23.1379 0.581792 23.3141C0.530012 23.4902 0.551246 23.6794 0.640823 23.84C0.7304 24.0007 0.880982 24.1197 1.05944 24.1708C1.23791 24.2219 1.42963 24.2009 1.59243 24.1125ZM34.7074 32.6646C34.6857 32.6927 34.6625 32.7198 34.6381 32.7457L34.2425 32.3553C34.2533 32.3447 34.2628 32.3327 34.2708 32.3199C34.3881 32.4657 34.5374 32.5836 34.7074 32.6646ZM11.2344 31.5468C11.2344 31.8278 11.1375 32.1005 10.9596 32.3199C10.8426 32.4662 10.6932 32.5841 10.5229 32.6646C10.2581 32.7917 9.95654 32.823 9.67078 32.753C9.38501 32.6829 9.13326 32.5161 8.9595 32.2815C8.78574 32.0469 8.70101 31.7595 8.72012 31.4696C8.73922 31.1796 8.86095 30.9055 9.06404 30.6951C9.18093 30.5714 9.32251 30.4728 9.47987 30.4056C9.63722 30.3384 9.80696 30.3041 9.9784 30.3048C10.1436 30.3048 10.3071 30.3369 10.4596 30.3994C10.6122 30.4618 10.7508 30.5533 10.8674 30.6687C10.9841 30.7841 11.0765 30.921 11.1395 31.0717C11.2025 31.2224 11.2347 31.3838 11.2344 31.5468ZM10.677 31.5468C10.677 31.3639 10.6034 31.1886 10.4724 31.0593C10.3414 30.93 10.1637 30.8573 9.9784 30.8573C9.93444 30.8575 9.89059 30.8618 9.84741 30.87C9.67711 30.9027 9.52522 30.9967 9.4213 31.1338C9.31739 31.2709 9.26888 31.4413 9.28522 31.6117C9.30156 31.7822 9.38159 31.9405 9.50972 32.056C9.63785 32.1714 9.80492 32.2356 9.9784 32.2362C10.0357 32.2365 10.0928 32.2288 10.1479 32.2134C10.2419 32.1905 10.33 32.1485 10.4065 32.09C10.4831 32.0315 10.5463 31.9578 10.5923 31.8738C10.6482 31.7736 10.6773 31.6611 10.677 31.5468ZM36.5104 4.35459C36.5093 4.54533 36.4645 4.73334 36.3795 4.90462C36.2942 5.0675 36.1741 5.21019 36.0276 5.32285C35.8415 5.46535 35.6187 5.55357 35.3844 5.57751C35.1501 5.60146 34.9137 5.56018 34.702 5.45834C34.4902 5.3565 34.3116 5.19818 34.1864 5.00131C34.0612 4.80445 33.9943 4.5769 33.9934 4.34445C33.9943 4.19464 34.0221 4.04618 34.0756 3.90595C30.6645 1.7077 26.6763 0.542044 22.6023 0.552553H22.2941C18.3334 0.609378 14.4701 1.773 11.1522 3.90849C11.2058 4.05129 11.2337 4.20229 11.2344 4.35459C11.2344 4.68332 11.102 4.99858 10.8665 5.23103C10.631 5.46347 10.3115 5.59406 9.9784 5.59406C9.73565 5.59358 9.49819 5.52397 9.29453 5.39358C9.09088 5.2632 8.92969 5.07757 8.83031 4.859C8.75631 4.70004 8.7186 4.52698 8.71987 4.35206C8.71911 4.11246 8.78874 3.87778 8.92033 3.67643C9.05192 3.47507 9.23982 3.31567 9.4613 3.21751C9.68278 3.11936 9.92834 3.08666 10.1683 3.12337C10.4082 3.16008 10.6322 3.26463 10.8132 3.42436C14.2335 1.23737 18.2112 0.0501785 22.2864 -1.03298e-05H22.6023C26.7846 -0.00571112 30.8773 1.19608 34.3761 3.45731C34.6083 3.23582 34.9187 3.11219 35.2416 3.11259C35.5754 3.11259 35.8955 3.24345 36.1316 3.47637C36.3676 3.70929 36.5002 4.02519 36.5002 4.35459H36.5104ZM10.6667 4.35459C10.6705 4.31243 10.6705 4.27002 10.6667 4.22786C10.6481 4.12877 10.6076 4.03495 10.5482 3.95303C10.4887 3.87112 10.4117 3.80312 10.3226 3.75387C10.2187 3.69503 10.1008 3.66442 9.98097 3.66516C9.79569 3.66516 9.61799 3.73779 9.48698 3.86709C9.35596 3.99638 9.28236 4.17174 9.28236 4.35459C9.27716 4.40092 9.27716 4.44767 9.28236 4.494C9.30409 4.59294 9.34725 4.68607 9.40887 4.76701C9.47049 4.84795 9.54912 4.91478 9.63937 4.96292C9.74582 5.01895 9.86515 5.04681 9.98576 5.04381C10.1064 5.04081 10.2241 5.00703 10.3276 4.94578C10.431 4.88453 10.5166 4.79788 10.5761 4.69428C10.6355 4.59068 10.6667 4.47365 10.6667 4.35459ZM35.9403 4.35459C35.9403 4.26405 35.9222 4.1744 35.8871 4.09076C35.852 4.00711 35.8005 3.93111 35.7356 3.86709C35.6708 3.80307 35.5937 3.75228 35.509 3.71764C35.4242 3.68299 35.3334 3.66516 35.2416 3.66516C35.1065 3.66442 34.9743 3.70323 34.8615 3.77668C34.7809 3.82929 34.712 3.89755 34.659 3.9773C34.606 4.05705 34.57 4.14661 34.5533 4.24053C34.5508 4.27851 34.5508 4.31661 34.5533 4.35459C34.554 4.53724 34.6278 4.71221 34.7587 4.84136C34.8895 4.97051 35.0668 5.04336 35.2519 5.04403C35.4045 5.04262 35.5526 4.99246 35.6739 4.90108C35.7952 4.80969 35.8832 4.68199 35.9248 4.53709C35.9414 4.4759 35.9501 4.41287 35.9505 4.34952L35.9403 4.35459ZM38.2621 6.61554L37.8563 6.99574C37.959 6.83896 38.0981 6.70862 38.2621 6.61554ZM44.3725 21.4587C44.3749 23.3061 44.1366 25.1462 43.6636 26.9336C43.1906 28.7132 42.4861 30.4248 41.5677 32.0258C40.6658 33.5953 39.5682 35.0472 38.3007 36.3475L37.8948 36.753C36.7544 37.8639 35.4934 38.8474 34.1346 39.6857C33.885 39.8417 33.605 39.9444 33.3127 39.9871C33.0204 40.0299 32.7222 40.0118 32.4375 39.9339C32.1527 39.8561 31.8876 39.7202 31.6592 39.5352C31.4309 39.3501 31.2443 39.1199 31.1116 38.8594L29.9121 36.4996L29.6553 35.9926L27.0175 30.8193C24.7393 32.7153 22.8181 33.2881 22.7025 33.3211L22.6229 33.3439L22.5458 33.3185C22.4302 33.2856 20.4911 32.6925 18.2077 30.8117C18.0639 30.6951 17.9175 30.5709 17.7711 30.4391C17.0644 29.8155 16.4091 29.1374 15.8113 28.4114C15.6958 28.272 15.5776 28.1249 15.4646 27.9754C15.3516 27.8259 15.29 27.7473 15.2078 27.6307C12.4056 23.8286 12.3825 12.5239 12.3825 12.0449V11.5379L11.165 10.339C8.76731 13.0699 7.31582 16.485 7.02199 20.0868C6.72817 23.6885 7.60736 27.2888 9.5315 30.3631C9.35535 30.4311 9.1966 30.5367 9.06661 30.6723C7.06965 27.4913 6.15756 23.7626 6.46401 20.0328C6.77045 16.303 8.27931 12.7681 10.7695 9.94613L7.55893 6.77776C4.41909 9.90713 2.35913 13.9339 1.67205 18.2853C1.938 18.3762 2.16528 18.5527 2.31744 18.7863C2.46961 19.02 2.53784 19.2973 2.51118 19.5738C2.48452 19.8503 2.36453 20.11 2.17045 20.3111C1.97636 20.5123 1.71944 20.6433 1.44089 20.6831C1.38066 20.6933 1.31965 20.6984 1.25853 20.6983C1.13038 20.6983 1.003 20.6786 0.880973 20.64C0.605496 20.5557 0.367798 20.3805 0.207811 20.1437C0.0478237 19.9069 -0.0247039 19.6229 0.00241216 19.3396C0.0295282 19.0562 0.154636 18.7907 0.356717 18.5876C0.558799 18.3846 0.825541 18.2563 1.11213 18.2244C1.79359 13.7505 3.90144 9.60704 7.13 6.39502L7.52811 6.00468L14.0674 12.4453C15.2702 12.9796 16.5681 13.2742 17.8866 13.3122C19.5125 13.2857 21.0948 12.7896 22.4379 11.8852L22.6126 11.7534L22.7821 11.8902C22.8001 11.9029 24.5441 13.2691 27.8445 13.2691C29.0748 13.2691 30.3308 12.8357 31.2169 12.4403L33.716 9.97654C32.2996 8.46568 30.5834 7.25847 28.6742 6.42998C26.7649 5.60149 24.7034 5.16942 22.6177 5.16063C19.7054 5.1617 16.8568 6.00214 14.4218 7.57872C14.483 7.72681 14.5144 7.8852 14.5143 8.04511C14.5142 8.27234 14.4495 8.49498 14.3276 8.68773C14.2056 8.88047 14.0313 9.03557 13.8245 9.1354C13.6176 9.23522 13.3865 9.27575 13.1575 9.25238C12.9284 9.22902 12.7107 9.14269 12.5289 9.00322C12.3807 8.88813 12.2604 8.74177 12.177 8.57486C12.0964 8.40954 12.0543 8.22855 12.0537 8.04511C12.0578 7.72551 12.1891 7.42032 12.4193 7.19551C12.6495 6.97069 12.9601 6.8443 13.284 6.84366C13.5817 6.8424 13.8695 6.9488 14.0931 7.14276C16.6247 5.50023 19.588 4.62444 22.6177 4.62327C24.7754 4.63017 26.9086 5.07422 28.8852 5.92791C30.8619 6.7816 32.6398 8.02674 34.109 9.5862C34.2374 9.72054 34.3658 9.85488 34.4865 9.99428C36.9687 12.816 38.4709 16.3476 38.7731 20.0723C39.0753 23.7971 38.1619 27.5195 36.1663 30.6951C36.3649 30.9032 36.4847 31.1724 36.5055 31.4575C36.5263 31.7426 36.4469 32.0261 36.2805 32.2601C36.1142 32.494 35.8712 32.6643 35.5924 32.742C35.3137 32.8197 35.0164 32.8002 34.7505 32.6867C34.4847 32.5732 34.2667 32.3727 34.1332 32.119C33.9998 31.8654 33.9591 31.574 34.018 31.2942C34.0769 31.0143 34.2318 30.7631 34.4566 30.5829C34.6814 30.4026 34.9623 30.3044 35.2519 30.3048C35.4057 30.3049 35.5581 30.3332 35.7014 30.3884C37.6228 27.3196 38.5026 23.7262 38.213 20.1302C37.9234 16.5342 36.4794 13.123 34.091 10.3922L32.8607 11.6089V12.0601C32.8607 12.5391 32.8093 23.8337 30.0123 27.6434C29.9352 27.7498 29.8582 27.8537 29.7785 27.9551C29.6655 28.1047 29.55 28.2517 29.4318 28.3936C28.8326 29.1342 28.1738 29.8259 27.4618 30.4619L30.151 35.7392L30.4078 36.2461L31.6176 38.616C31.7139 38.8071 31.8499 38.9761 32.0167 39.1119C32.1835 39.2477 32.3774 39.3473 32.5859 39.4043C32.7969 39.4617 33.0176 39.4754 33.2342 39.4444C33.4508 39.4134 33.6586 39.3385 33.8444 39.2244C35.1646 38.4016 36.3901 37.4395 37.4993 36.3551C37.6303 36.2258 37.7561 36.1016 37.8897 35.9622C41.4054 32.3618 43.4918 27.6337 43.7681 22.6411C44.0445 17.6485 42.4922 12.7244 39.3948 8.76749C39.234 8.84207 39.0588 8.88183 38.8811 8.88409C38.5548 8.88409 38.2419 8.75617 38.0112 8.52848C37.7805 8.30079 37.6508 7.99198 37.6508 7.66997C37.6495 7.43159 37.7211 7.19836 37.8563 7.00081L38.2621 6.62061C38.4496 6.51164 38.6635 6.45471 38.8811 6.45585C39.1125 6.45586 39.3392 6.52027 39.5352 6.64168C39.7312 6.7631 39.8885 6.93659 39.9891 7.14225C40.0896 7.34791 40.1294 7.57739 40.1038 7.80435C40.0782 8.0313 39.9882 8.24653 39.8443 8.42531C42.7849 12.1515 44.3787 16.7409 44.3725 21.4638V21.4587ZM39.5541 7.66997C39.5541 7.58309 39.5367 7.49707 39.503 7.41681C39.4693 7.33654 39.42 7.26361 39.3577 7.20218C39.2955 7.14075 39.2216 7.09202 39.1402 7.05877C39.0589 7.02553 38.9717 7.00842 38.8837 7.00842C38.8102 7.00701 38.737 7.01904 38.6679 7.0439C38.5767 7.07483 38.4932 7.12448 38.4228 7.18958C38.3524 7.25467 38.2968 7.33374 38.2596 7.42157C38.2196 7.52227 38.205 7.63105 38.2171 7.73855C38.2292 7.84605 38.2676 7.94902 38.329 8.03859C38.3905 8.12816 38.4731 8.20163 38.5697 8.25266C38.6663 8.3037 38.7741 8.33076 38.8837 8.33153C38.9365 8.33217 38.9891 8.32621 39.0404 8.31378C39.1343 8.29149 39.2222 8.24936 39.298 8.19028C39.3739 8.1312 39.4358 8.05659 39.4796 7.9716C39.5295 7.87875 39.5551 7.77507 39.5541 7.66997ZM35.9582 31.5468C35.9578 31.3869 35.9012 31.2322 35.7982 31.1088C35.6952 30.9854 35.5521 30.9011 35.3932 30.87C35.3491 30.862 35.3044 30.8577 35.2596 30.8573C35.0745 30.858 34.8972 30.9309 34.7664 31.06C34.6355 31.1892 34.5617 31.3641 34.561 31.5468C34.5603 31.6623 34.5905 31.7759 34.6483 31.8763C34.6937 31.96 34.7566 32.0333 34.8327 32.0914C34.9088 32.1495 34.9966 32.1911 35.0901 32.2134C35.1452 32.2288 35.2023 32.2365 35.2596 32.2362C35.4449 32.2362 35.6226 32.1636 35.7536 32.0343C35.8846 31.905 35.9582 31.7296 35.9582 31.5468ZM13.9544 8.04511C13.9564 7.92649 13.9256 7.80958 13.8654 7.70689C13.8053 7.60419 13.7179 7.51959 13.6128 7.46213C13.5158 7.41009 13.4072 7.38306 13.2968 7.38355C13.119 7.38355 12.9485 7.45325 12.8228 7.57732C12.6971 7.70138 12.6265 7.86965 12.6265 8.04511C12.6258 8.09468 12.6319 8.14412 12.6445 8.19212C12.6658 8.28491 12.7072 8.37209 12.7657 8.44775C12.8242 8.5234 12.8984 8.58577 12.9835 8.63062C13.0802 8.68039 13.1877 8.70647 13.2968 8.70666C13.4746 8.70666 13.6451 8.63696 13.7709 8.5129C13.8966 8.38883 13.9672 8.22056 13.9672 8.04511H13.9544ZM1.59243 18.853C1.50712 18.8059 1.4126 18.7772 1.31516 18.7689C1.21773 18.7606 1.11962 18.7728 1.02737 18.8049C0.900698 18.8483 0.789349 18.9267 0.70662 19.0308C0.62389 19.135 0.573276 19.2604 0.560819 19.3922C0.548362 19.5239 0.574589 19.6564 0.636368 19.7739C0.698147 19.8913 0.792869 19.9887 0.909226 20.0545C1.01469 20.1144 1.13427 20.1459 1.25597 20.1457C1.32826 20.1449 1.40006 20.1338 1.46915 20.1128C1.6009 20.0724 1.71761 19.9945 1.80455 19.8888C1.89149 19.7831 1.94478 19.6544 1.95769 19.5188C1.9706 19.3833 1.94256 19.247 1.8771 19.1272C1.81164 19.0073 1.7117 18.9093 1.58986 18.8454L1.59243 18.853ZM27.1921 29.9296C27.8548 29.3292 28.4697 28.6792 29.0311 27.9855C29.1467 27.8436 29.2597 27.6966 29.3753 27.547L29.5551 27.3062C31.9283 24.0694 32.2494 14.757 32.2905 12.5264C32.0927 12.6329 31.8333 12.7647 31.52 12.9041C31.0974 13.0986 30.6634 13.2678 30.2203 13.4111C29.4511 13.6678 28.6462 13.8055 27.8342 13.8191C24.8882 13.8191 23.1288 12.8053 22.592 12.4403C21.1897 13.348 19.5533 13.8405 17.8764 13.8597C16.9049 13.8475 15.9409 13.6894 15.0177 13.3908C14.5897 13.2573 14.1687 13.1025 13.7566 12.9269C13.4253 12.7824 13.1479 12.643 12.9373 12.534C12.9783 14.7468 13.2814 24.0796 15.6675 27.3113L15.8756 27.5876C15.9911 27.7371 16.1067 27.8841 16.2223 28.0261C16.7813 28.7069 17.3918 29.3449 18.0485 29.9347C18.1949 30.064 18.3387 30.1882 18.4825 30.3073C19.711 31.3636 21.1175 32.1991 22.6383 32.7761C24.1542 32.2084 25.5534 31.3746 26.7683 30.3149C26.9122 30.1933 27.056 30.0615 27.2024 29.9373L27.1921 29.9296ZM23.5398 28.5051L23.9071 28.457L23.8146 27.8056C24.7286 27.6381 25.5956 27.2794 26.3574 26.7537L26.7632 27.2784L26.9687 27.1212C27.4785 26.733 27.9337 26.2795 28.3222 25.7727L28.425 25.6359L28.3787 25.5421V25.4686L27.955 25.1543C28.492 24.3971 28.8565 23.5341 29.0234 22.6247L29.6861 22.7108L29.722 22.4371C29.7609 22.1361 29.7806 21.8331 29.7811 21.5297C29.781 21.228 29.7612 20.9266 29.722 20.6273L29.6835 20.3105L29.0183 20.3967C28.8559 19.4936 28.4975 18.6359 27.9678 17.8822L28.4892 17.4894L28.3197 17.2689C27.9479 16.7942 27.5164 16.3684 27.0354 16.0015L26.7272 15.7683L26.3214 16.2955C25.5598 15.7688 24.6913 15.4116 23.7761 15.2487L23.8865 14.5795L23.6091 14.5441C22.9996 14.4655 22.3823 14.4655 21.7727 14.5441L21.408 14.5922L21.4979 15.2436C20.5835 15.4064 19.7153 15.7617 18.9526 16.2854L18.5467 15.7607L18.3233 15.928C17.8721 16.2687 17.4635 16.6609 17.1058 17.0965L16.7822 17.4894L17.319 17.8899C16.788 18.6424 16.4279 19.4992 16.2634 20.4017L15.6007 20.3156L15.5622 20.5893C15.5212 20.8977 15.5006 21.2085 15.5006 21.5195C15.5 21.8136 15.5189 22.1074 15.5571 22.3991L15.6059 22.7615L16.266 22.6728C16.4332 23.5754 16.7949 24.4321 17.3267 25.1847L16.7951 25.5852L16.9671 25.8032C17.3109 26.2489 17.7086 26.6515 18.1512 27.0021L18.5544 27.3088L18.9577 26.7816C19.7213 27.3049 20.5904 27.6593 21.5056 27.8208L21.4183 28.4722L21.6957 28.5102C22.0058 28.5486 22.318 28.568 22.6306 28.5685C22.932 28.5688 23.2331 28.5502 23.5321 28.5128L23.5398 28.5051ZM22.1323 27.3519L21.8575 27.3164C20.8438 27.1825 19.8826 26.7913 19.0681 26.1808L18.8472 26.0135L18.4491 26.5205C18.1346 26.2663 17.8456 25.9828 17.5861 25.6739L18.0998 25.281L17.9277 25.0605C17.3077 24.2597 16.9086 23.3139 16.7694 22.3154L16.7386 22.0518L16.0887 22.1405C16.0708 21.9352 16.0605 21.7274 16.0605 21.5195C16.0605 21.3117 16.0605 21.1317 16.0862 20.9366L16.736 21.0227L16.7745 20.749C16.9109 19.7484 17.3083 18.7998 17.9277 17.9963L18.0973 17.7758L17.5836 17.3829C17.8434 17.0737 18.1314 16.7886 18.444 16.5313L18.8421 17.0382L19.0656 16.8709C19.8731 16.264 20.8261 15.8737 21.8318 15.7379L22.1092 15.6999L22.0193 15.0586C22.4252 15.0231 22.8334 15.0231 23.2393 15.0586L23.152 15.6999L23.4268 15.7354C24.4394 15.8742 25.3984 16.2688 26.211 16.881L26.4319 17.0483L26.8325 16.5414C27.1451 16.7987 27.4331 17.0838 27.693 17.3931L27.1793 17.7834L27.3514 18.0039C27.9706 18.8033 28.3697 19.7472 28.5097 20.7439L28.5483 21.0177L29.1981 20.9315C29.2161 21.1292 29.2238 21.3294 29.2238 21.5297C29.2238 21.7299 29.2238 21.9048 29.2006 22.0898L28.5483 22.0087L28.5097 22.2799C28.3764 23.2796 27.9826 24.228 27.3668 25.0326L27.1998 25.2506L27.7135 25.6435C27.4553 25.9541 27.1681 26.2401 26.8557 26.4977L26.455 25.9907L26.2341 26.1606C25.4231 26.7743 24.4647 27.1699 23.4525 27.3088L23.1751 27.3468L23.265 27.9881C22.86 28.0248 22.4525 28.0248 22.0475 27.9881L22.1323 27.3519ZM57.9724 30.9004C55.5666 28.7189 54.3637 26.0921 54.3637 23.0201C54.3637 19.948 55.5666 17.3288 57.9724 15.1625C60.3764 12.9962 63.2814 11.913 66.6871 11.913C68.1408 11.9077 69.5852 12.1416 70.961 12.605C71.047 12.6252 71.1229 12.6746 71.1756 12.7446C71.2282 12.8146 71.2541 12.9007 71.2487 12.9878C71.2569 13.0628 71.2437 13.1387 71.2105 13.2067C71.1774 13.2748 71.1257 13.3324 71.0612 13.373C70.9851 13.423 70.8957 13.4495 70.8043 13.4491C70.7405 13.4499 70.677 13.4396 70.6168 13.4187C69.3517 12.9887 68.0226 12.7703 66.6845 12.7723C63.5545 12.7723 60.8764 13.7769 58.6504 15.7861C56.4245 17.7952 55.3115 20.2083 55.3115 23.0251C55.3115 25.8539 56.4245 28.2728 58.6504 30.282C60.8764 32.2911 63.5545 33.2898 66.6845 33.278C68.0268 33.2824 69.3606 33.0683 70.6322 32.6443C70.6865 32.6242 70.7438 32.6131 70.8018 32.6114C70.8929 32.6146 70.9816 32.6417 71.0586 32.6899C71.1172 32.7248 71.1654 32.7743 71.1984 32.8336C71.2313 32.8928 71.2478 32.9595 71.2461 33.027C71.2541 33.1246 71.2281 33.2219 71.1726 33.303C71.117 33.3841 71.0352 33.4441 70.9405 33.4731C69.5686 33.9259 68.1311 34.1545 66.6845 34.1499C63.2822 34.1499 60.3773 33.0634 57.9698 30.8903L57.9724 30.9004ZM78.8127 30.8903C76.4087 28.7155 75.2066 26.0921 75.2066 23.0201C75.2066 19.948 76.4095 17.3288 78.8153 15.1625C81.2194 12.9962 84.1243 11.913 87.53 11.913C90.9358 11.913 93.8356 12.9987 96.2294 15.1701C98.6266 17.3449 99.8252 19.9641 99.8252 23.0277C99.8252 26.0913 98.6266 28.7147 96.2294 30.8979C93.8219 33.0693 90.9221 34.1558 87.53 34.1575C84.138 34.1592 81.2331 33.0727 78.8153 30.8979L78.8127 30.8903ZM79.4959 15.7886C77.27 17.7859 76.157 20.199 76.157 23.0277C76.157 25.8564 77.27 28.2753 79.4959 30.2845C81.7219 32.2818 84.4 33.2805 87.53 33.2805C90.6601 33.2805 93.3322 32.2793 95.5462 30.2769C97.7721 28.266 98.8851 25.8471 98.8851 23.0201C98.8851 20.193 97.7721 17.78 95.5462 15.781C93.3202 13.7735 90.6473 12.7689 87.5275 12.7672C84.4077 12.7655 81.7305 13.7701 79.4959 15.781V15.7886ZM104.41 34.1499C104.35 34.1586 104.289 34.1536 104.232 34.1351C104.174 34.1167 104.122 34.0854 104.079 34.0436C104.036 34.0018 104.003 33.9508 103.984 33.8945C103.964 33.8382 103.958 33.7781 103.966 33.719V33.6278C103.966 33.3743 104.114 33.2273 104.41 33.2273H111.27C112.683 33.2548 114.051 32.7363 115.082 31.7825C115.587 31.3586 115.991 30.8308 116.268 30.2362C116.544 29.6416 116.686 28.9946 116.682 28.3404C116.682 26.7621 116.035 25.5573 114.743 24.7259C113.982 24.2342 112.552 23.7019 110.451 23.1291C108.41 22.5528 106.986 21.9944 106.18 21.4536C104.885 20.5614 104.238 19.2856 104.238 17.6262C104.232 16.8452 104.398 16.0721 104.724 15.3605C105.05 14.6489 105.529 14.0158 106.128 13.5048C107.375 12.3822 109.012 11.7768 110.7 11.8142H115.536C115.842 11.8142 115.994 11.9485 115.994 12.2147V12.3059C115.994 12.5949 115.842 12.7368 115.536 12.7368H110.7C109.276 12.7002 107.894 13.2131 106.847 14.1664C106.341 14.5929 105.935 15.1237 105.659 15.7214C105.382 16.3191 105.242 16.9692 105.247 17.6262C105.224 18.3055 105.394 18.9775 105.737 19.5668C106.08 20.1561 106.583 20.6392 107.189 20.9619C107.874 21.3708 109.298 21.8676 111.46 22.4523C113.469 22.9947 114.893 23.5735 115.734 24.1886C117.039 25.1517 117.691 26.5357 117.691 28.3404C117.698 29.118 117.533 29.8876 117.208 30.5962C116.884 31.3047 116.407 31.9352 115.811 32.4441C114.577 33.5712 112.949 34.1826 111.268 34.1499H104.41ZM137.491 34.1499C137.186 34.1499 137.032 34.0105 137.032 33.7342V23.4662H123.632V33.7342C123.632 34.0105 123.478 34.1499 123.172 34.1499C122.867 34.1499 122.679 34.0105 122.679 33.7342V12.3237C122.679 12.0449 122.831 11.908 123.139 11.908C123.447 11.908 123.632 12.0449 123.632 12.3237V22.6069H137.029V12.3237C137.029 12.0449 137.183 11.908 137.489 11.908C137.795 11.908 138.003 12.0449 138.003 12.3237V33.7342C138.003 34.0105 137.843 34.1499 137.525 34.1499H137.491Z" fill="white"/>
</svg>
