<svg xmlns="http://www.w3.org/2000/svg" viewBox="0 0 575.38 159.81"><defs><style>.cls-1{fill:#fff;}.cls-2{fill:none;}</style></defs><title>Asset 4</title><g id="Layer_2" data-name="Layer 2"><g id="Layer_1-2" data-name="Layer 1"><path class="cls-1" d="M82.67,70.71l-.18,29.63a.92.92,0,0,1-.84.92h-.09a.92.92,0,0,1-.91-.74L75.76,77.89a14.52,14.52,0,0,0-1.59,10.47,13.92,13.92,0,0,0,4,7.62A.93.93,0,1,1,77,97.42a15.63,15.63,0,0,1-4.63-8.69c-1.71-8.53,3-13.5,3.22-13.7a.93.93,0,0,1,1.58.45l3.53,16.36.13-21.14a.93.93,0,0,1,.93-.93h0A.93.93,0,0,1,82.67,70.71Z"/><path class="cls-1" d="M97.86,72.84a.94.94,0,0,1-1.32,0,5.07,5.07,0,0,0-1.57-1v29a.93.93,0,0,1-1.86,0V71.48l-1.48-.59a.93.93,0,0,1,.52-1.78c.41.08,4.1.8,5.71,2.41A.94.94,0,0,1,97.86,72.84Z"/><path class="cls-1" d="M89.91,101.92a.94.94,0,0,1-.81.93,8.07,8.07,0,0,1-1.06.07,6.47,6.47,0,0,1-3-.64.93.93,0,1,1,.9-1.63,2.72,2.72,0,0,0,.43.17V70.7l-1.11.2A.93.93,0,0,1,85,69.06l3.85-.68a.93.93,0,0,1,.36,1.82l-.91.19V100.9l.83.1A.93.93,0,0,1,89.91,101.92Z"/><path class="cls-1" d="M82.67,70.71l-.18,29.63a.92.92,0,0,1-.84.92h-.09a.92.92,0,0,1-.91-.74L75.76,77.89a14.52,14.52,0,0,0-1.59,10.47,13.92,13.92,0,0,0,4,7.62A.93.93,0,1,1,77,97.42a15.63,15.63,0,0,1-4.63-8.69c-1.71-8.53,3-13.5,3.22-13.7a.93.93,0,0,1,1.58.45l3.53,16.36.13-21.14a.93.93,0,0,1,.93-.93h0A.93.93,0,0,1,82.67,70.71Z"/><path class="cls-1" d="M89.91,101.92a.94.94,0,0,1-.81.93,8.07,8.07,0,0,1-1.06.07,6.47,6.47,0,0,1-3-.64.93.93,0,1,1,.9-1.63,2.72,2.72,0,0,0,.43.17V70.7l-1.11.2A.93.93,0,0,1,85,69.06l3.85-.68a.93.93,0,0,1,.36,1.82l-.91.19V100.9l.83.1A.93.93,0,0,1,89.91,101.92Z"/><path class="cls-1" d="M97.86,72.84a.94.94,0,0,1-1.32,0,5.07,5.07,0,0,0-1.57-1v29a.93.93,0,0,1-1.86,0V71.48l-1.48-.59a.93.93,0,0,1,.52-1.78c.41.08,4.1.8,5.71,2.41A.94.94,0,0,1,97.86,72.84Z"/><path class="cls-1" d="M116.69,82.39l-.16-1.26-2.58.35a25.14,25.14,0,0,0-4.1-9.92L111.93,70l-.66-.86a28,28,0,0,0-5-5.05l-1.19-.92-1.59,2.08a25.36,25.36,0,0,0-9.9-4.13L94,58.52l-1.07-.14a28.12,28.12,0,0,0-7.16,0l-1.42.19.35,2.57a25.2,25.2,0,0,0-9.91,4.12l-1.58-2.08-.86.66a28,28,0,0,0-4.75,4.61L66.35,70l2.08,1.59a25.15,25.15,0,0,0-4.11,9.91l-2.58-.35L61.6,82.2a28.47,28.47,0,0,0,0,7.14l.19,1.44,2.58-.36a25.21,25.21,0,0,0,4.13,9.91l-2.07,1.58.66.87a28.66,28.66,0,0,0,4.61,4.73l1.58,1.2,1.57-2.07a25.22,25.22,0,0,0,9.92,4.09l-.34,2.58,1.08.14a27.78,27.78,0,0,0,3.63.24,30,30,0,0,0,3.52-.22l1.42-.2-.36-2.57a25.14,25.14,0,0,0,9.9-4.15l1.59,2.07L106,108a27.38,27.38,0,0,0,5.27-5.32l.41-.53-.19-.38v-.28l-1.64-1.25A25.23,25.23,0,0,0,114,90.26l2.58.34.14-1.08a26.79,26.79,0,0,0,.23-3.58A27.85,27.85,0,0,0,116.69,82.39Zm-2,5.77-2.53-.33L112,88.91a23.17,23.17,0,0,1-4.45,10.85l-.66.87,2,1.55a25.32,25.32,0,0,1-3.34,3.37l-1.56-2-.86.66a22.94,22.94,0,0,1-10.83,4.54l-1.07.15.35,2.52a26,26,0,0,1-4.75,0l.34-2.53-1.08-.14a23,23,0,0,1-10.85-4.48l-.87-.65-1.54,2a26,26,0,0,1-3.37-3.35l2-1.55-.66-.86a23.07,23.07,0,0,1-4.52-10.84L66.18,88l-2.53.35c-.08-.81-.12-1.63-.12-2.44s0-1.54.11-2.31l2.53.34.14-1.08A23.05,23.05,0,0,1,70.81,72l.65-.87-2-1.55a26.58,26.58,0,0,1,3.35-3.36l1.56,2,.86-.66A23,23,0,0,1,86,63.09L87.11,63l-.34-2.53a25.88,25.88,0,0,1,4.74,0l-.34,2.53,1.08.15a23.15,23.15,0,0,1,10.83,4.51l.87.66,1.55-2a26,26,0,0,1,3.36,3.36l-2,1.55.66.87A23,23,0,0,1,112,82.84l.15,1.08,2.52-.34c.07.78.11,1.57.11,2.36S114.71,87.42,114.64,88.16Zm2-5.77-.16-1.26-2.58.35a25.14,25.14,0,0,0-4.1-9.92L111.93,70l-.66-.86a28,28,0,0,0-5-5.05l-1.19-.92-1.59,2.08a25.36,25.36,0,0,0-9.9-4.13L94,58.52l-1.07-.14a28.12,28.12,0,0,0-7.16,0l-1.42.19.35,2.57a25.2,25.2,0,0,0-9.91,4.12l-1.58-2.08-.86.66a28,28,0,0,0-4.75,4.61L66.35,70l2.08,1.59a25.15,25.15,0,0,0-4.11,9.91l-2.58-.35L61.6,82.2a28.47,28.47,0,0,0,0,7.14l.19,1.44,2.58-.36a25.21,25.21,0,0,0,4.13,9.91l-2.07,1.58.66.87a28.66,28.66,0,0,0,4.61,4.73l1.58,1.2,1.57-2.07a25.22,25.22,0,0,0,9.92,4.09l-.34,2.58,1.08.14a27.78,27.78,0,0,0,3.63.24,30,30,0,0,0,3.52-.22l1.42-.2-.36-2.57a25.14,25.14,0,0,0,9.9-4.15l1.59,2.07L106,108a27.38,27.38,0,0,0,5.27-5.32l.41-.53-.19-.38v-.28l-1.64-1.25A25.23,25.23,0,0,0,114,90.26l2.58.34.14-1.08a26.79,26.79,0,0,0,.23-3.58A27.85,27.85,0,0,0,116.69,82.39Zm-2,5.77-2.53-.33L112,88.91a23.17,23.17,0,0,1-4.45,10.85l-.66.87,2,1.55a25.32,25.32,0,0,1-3.34,3.37l-1.56-2-.86.66a22.94,22.94,0,0,1-10.83,4.54l-1.07.15.35,2.52a26,26,0,0,1-4.75,0l.34-2.53-1.08-.14a23,23,0,0,1-10.85-4.48l-.87-.65-1.54,2a26,26,0,0,1-3.37-3.35l2-1.55-.66-.86a23.07,23.07,0,0,1-4.52-10.84L66.18,88l-2.53.35c-.08-.81-.12-1.63-.12-2.44s0-1.54.11-2.31l2.53.34.14-1.08A23.05,23.05,0,0,1,70.81,72l.65-.87-2-1.55a26.58,26.58,0,0,1,3.35-3.36l1.56,2,.86-.66A23,23,0,0,1,86,63.09L87.11,63l-.34-2.53a25.88,25.88,0,0,1,4.74,0l-.34,2.53,1.08.15a23.15,23.15,0,0,1,10.83,4.51l.87.66,1.55-2a26,26,0,0,1,3.36,3.36l-2,1.55.66.87A23,23,0,0,1,112,82.84l.15,1.08,2.52-.34c.07.78.11,1.57.11,2.36S114.71,87.42,114.64,88.16Zm2-5.77-.16-1.26-2.58.35a25.14,25.14,0,0,0-4.1-9.92L111.93,70l-.66-.86a28,28,0,0,0-5-5.05l-1.19-.92-1.59,2.08a25.36,25.36,0,0,0-9.9-4.13L94,58.52l-1.07-.14a28.12,28.12,0,0,0-7.16,0l-1.42.19.35,2.57a25.2,25.2,0,0,0-9.91,4.12l-1.58-2.08-.86.66a28,28,0,0,0-4.75,4.61L66.35,70l2.08,1.59a25.15,25.15,0,0,0-4.11,9.91l-2.58-.35L61.6,82.2a28.47,28.47,0,0,0,0,7.14l.19,1.44,2.58-.36a25.21,25.21,0,0,0,4.13,9.91l-2.07,1.58.66.87a28.66,28.66,0,0,0,4.61,4.73l1.58,1.2,1.57-2.07a25.22,25.22,0,0,0,9.92,4.09l-.34,2.58,1.08.14a27.78,27.78,0,0,0,3.63.24,30,30,0,0,0,3.52-.22l1.42-.2-.36-2.57a25.14,25.14,0,0,0,9.9-4.15l1.59,2.07L106,108a27.38,27.38,0,0,0,5.27-5.32l.41-.53-.19-.38v-.28l-1.64-1.25A25.23,25.23,0,0,0,114,90.26l2.58.34.14-1.08a26.79,26.79,0,0,0,.23-3.58A27.85,27.85,0,0,0,116.69,82.39Zm-2,5.77-2.53-.33L112,88.91a23.17,23.17,0,0,1-4.45,10.85l-.66.87,2,1.55a25.32,25.32,0,0,1-3.34,3.37l-1.56-2-.86.66a22.94,22.94,0,0,1-10.83,4.54l-1.07.15.35,2.52a26,26,0,0,1-4.75,0l.34-2.53-1.08-.14a23,23,0,0,1-10.85-4.48l-.87-.65-1.54,2a26,26,0,0,1-3.37-3.35l2-1.55-.66-.86a23.07,23.07,0,0,1-4.52-10.84L66.18,88l-2.53.35c-.08-.81-.12-1.63-.12-2.44s0-1.54.11-2.31l2.53.34.14-1.08A23.05,23.05,0,0,1,70.81,72l.65-.87-2-1.55a26.58,26.58,0,0,1,3.35-3.36l1.56,2,.86-.66A23,23,0,0,1,86,63.09L87.11,63l-.34-2.53a25.88,25.88,0,0,1,4.74,0l-.34,2.53,1.08.15a23.15,23.15,0,0,1,10.83,4.51l.87.66,1.55-2a26,26,0,0,1,3.36,3.36l-2,1.55.66.87A23,23,0,0,1,112,82.84l.15,1.08,2.52-.34c.07.78.11,1.57.11,2.36S114.71,87.42,114.64,88.16Zm2-5.77-.16-1.26-2.58.35a25.14,25.14,0,0,0-4.1-9.92L111.93,70l-.66-.86a28,28,0,0,0-5-5.05l-1.19-.92-1.59,2.08a25.36,25.36,0,0,0-9.9-4.13L94,58.52l-1.07-.14a28.12,28.12,0,0,0-7.16,0l-1.42.19.35,2.57a25.2,25.2,0,0,0-9.91,4.12l-1.58-2.08-.86.66a28,28,0,0,0-4.75,4.61L66.35,70l2.08,1.59a25.15,25.15,0,0,0-4.11,9.91l-2.58-.35L61.6,82.2a28.47,28.47,0,0,0,0,7.14l.19,1.44,2.58-.36a25.21,25.21,0,0,0,4.13,9.91l-2.07,1.58.66.87a28.66,28.66,0,0,0,4.61,4.73l1.58,1.2,1.57-2.07a25.22,25.22,0,0,0,9.92,4.09l-.34,2.58,1.08.14a27.78,27.78,0,0,0,3.63.24,30,30,0,0,0,3.52-.22l1.42-.2-.36-2.57a25.14,25.14,0,0,0,9.9-4.15l1.59,2.07L106,108a27.38,27.38,0,0,0,5.27-5.32l.41-.53-.19-.38v-.28l-1.64-1.25A25.23,25.23,0,0,0,114,90.26l2.58.34.14-1.08a26.79,26.79,0,0,0,.23-3.58A27.85,27.85,0,0,0,116.69,82.39Zm-2,5.77-2.53-.33L112,88.91a23.17,23.17,0,0,1-4.45,10.85l-.66.87,2,1.55a25.32,25.32,0,0,1-3.34,3.37l-1.56-2-.86.66a22.94,22.94,0,0,1-10.83,4.54l-1.07.15.35,2.52a26,26,0,0,1-4.75,0l.34-2.53-1.08-.14a23,23,0,0,1-10.85-4.48l-.87-.65-1.54,2a26,26,0,0,1-3.37-3.35l2-1.55-.66-.86a23.07,23.07,0,0,1-4.52-10.84L66.18,88l-2.53.35c-.08-.81-.12-1.63-.12-2.44s0-1.54.11-2.31l2.53.34.14-1.08A23.05,23.05,0,0,1,70.81,72l.65-.87-2-1.55a26.58,26.58,0,0,1,3.35-3.36l1.56,2,.86-.66A23,23,0,0,1,86,63.09L87.11,63l-.34-2.53a25.88,25.88,0,0,1,4.74,0l-.34,2.53,1.08.15a23.15,23.15,0,0,1,10.83,4.51l.87.66,1.55-2a26,26,0,0,1,3.36,3.36l-2,1.55.66.87A23,23,0,0,1,112,82.84l.15,1.08,2.52-.34c.07.78.11,1.57.11,2.36S114.71,87.42,114.64,88.16Zm2-5.77-.16-1.26-2.58.35a25.14,25.14,0,0,0-4.1-9.92L111.93,70l-.66-.86a28,28,0,0,0-5-5.05l-1.19-.92-1.59,2.08a25.36,25.36,0,0,0-9.9-4.13L94,58.52l-1.07-.14a28.12,28.12,0,0,0-7.16,0l-1.42.19.35,2.57a25.2,25.2,0,0,0-9.91,4.12l-1.58-2.08-.86.66a28,28,0,0,0-4.75,4.61L66.35,70l2.08,1.59a25.15,25.15,0,0,0-4.11,9.91l-2.58-.35L61.6,82.2a28.47,28.47,0,0,0,0,7.14l.19,1.44,2.58-.36a25.21,25.21,0,0,0,4.13,9.91l-2.07,1.58.66.87a28.66,28.66,0,0,0,4.61,4.73l1.58,1.2,1.57-2.07a25.22,25.22,0,0,0,9.92,4.09l-.34,2.58,1.08.14a27.78,27.78,0,0,0,3.63.24,30,30,0,0,0,3.52-.22l1.42-.2-.36-2.57a25.14,25.14,0,0,0,9.9-4.15l1.59,2.07L106,108a27.38,27.38,0,0,0,5.27-5.32l.41-.53-.19-.38v-.28l-1.64-1.25A25.23,25.23,0,0,0,114,90.26l2.58.34.14-1.08a26.79,26.79,0,0,0,.23-3.58A27.85,27.85,0,0,0,116.69,82.39Zm-2,5.77-2.53-.33L112,88.91a23.17,23.17,0,0,1-4.45,10.85l-.66.87,2,1.55a25.32,25.32,0,0,1-3.34,3.37l-1.56-2-.86.66a22.94,22.94,0,0,1-10.83,4.54l-1.07.15.35,2.52a26,26,0,0,1-4.75,0l.34-2.53-1.08-.14a23,23,0,0,1-10.85-4.48l-.87-.65-1.54,2a26,26,0,0,1-3.37-3.35l2-1.55-.66-.86a23.07,23.07,0,0,1-4.52-10.84L66.18,88l-2.53.35c-.08-.81-.12-1.63-.12-2.44s0-1.54.11-2.31l2.53.34.14-1.08A23.05,23.05,0,0,1,70.81,72l.65-.87-2-1.55a26.58,26.58,0,0,1,3.35-3.36l1.56,2,.86-.66A23,23,0,0,1,86,63.09L87.11,63l-.34-2.53a25.88,25.88,0,0,1,4.74,0l-.34,2.53,1.08.15a23.15,23.15,0,0,1,10.83,4.51l.87.66,1.55-2a26,26,0,0,1,3.36,3.36l-2,1.55.66.87A23,23,0,0,1,112,82.84l.15,1.08,2.52-.34c.07.78.11,1.57.11,2.36S114.71,87.42,114.64,88.16Zm2-5.77-.16-1.26-2.58.35a25.14,25.14,0,0,0-4.1-9.92L111.93,70l-.66-.86a28,28,0,0,0-5-5.05l-1.19-.92-1.59,2.08a25.36,25.36,0,0,0-9.9-4.13L94,58.52l-1.07-.14a28.12,28.12,0,0,0-7.16,0l-1.42.19.35,2.57a25.2,25.2,0,0,0-9.91,4.12l-1.58-2.08-.86.66a28,28,0,0,0-4.75,4.61L66.35,70l2.08,1.59a25.15,25.15,0,0,0-4.11,9.91l-2.58-.35L61.6,82.2a28.47,28.47,0,0,0,0,7.14l.19,1.44,2.58-.36a25.21,25.21,0,0,0,4.13,9.91l-2.07,1.58.66.87a28.66,28.66,0,0,0,4.61,4.73l1.58,1.2,1.57-2.07a25.22,25.22,0,0,0,9.92,4.09l-.34,2.58,1.08.14a27.78,27.78,0,0,0,3.63.24,30,30,0,0,0,3.52-.22l1.42-.2-.36-2.57a25.14,25.14,0,0,0,9.9-4.15l1.59,2.07L106,108a27.38,27.38,0,0,0,5.27-5.32l.41-.53-.19-.38v-.28l-1.64-1.25A25.23,25.23,0,0,0,114,90.26l2.58.34.14-1.08a26.79,26.79,0,0,0,.23-3.58A27.85,27.85,0,0,0,116.69,82.39Zm-2,5.77-2.53-.33L112,88.91a23.17,23.17,0,0,1-4.45,10.85l-.66.87,2,1.55a25.32,25.32,0,0,1-3.34,3.37l-1.56-2-.86.66a22.94,22.94,0,0,1-10.83,4.54l-1.07.15.35,2.52a26,26,0,0,1-4.75,0l.34-2.53-1.08-.14a23,23,0,0,1-10.85-4.48l-.87-.65-1.54,2a26,26,0,0,1-3.37-3.35l2-1.55-.66-.86a23.07,23.07,0,0,1-4.52-10.84L66.18,88l-2.53.35c-.08-.81-.12-1.63-.12-2.44s0-1.54.11-2.31l2.53.34.14-1.08A23.05,23.05,0,0,1,70.81,72l.65-.87-2-1.55a26.58,26.58,0,0,1,3.35-3.36l1.56,2,.86-.66A23,23,0,0,1,86,63.09L87.11,63l-.34-2.53a25.88,25.88,0,0,1,4.74,0l-.34,2.53,1.08.15a23.15,23.15,0,0,1,10.83,4.51l.87.66,1.55-2a26,26,0,0,1,3.36,3.36l-2,1.55.66.87A23,23,0,0,1,112,82.84l.15,1.08,2.52-.34c.07.78.11,1.57.11,2.36S114.71,87.42,114.64,88.16Zm2-5.77-.16-1.26-2.58.35a25.14,25.14,0,0,0-4.1-9.92L111.93,70l-.66-.86a28,28,0,0,0-5-5.05l-1.19-.92-1.59,2.08a25.36,25.36,0,0,0-9.9-4.13L94,58.52l-1.07-.14a28.12,28.12,0,0,0-7.16,0l-1.42.19.35,2.57a25.2,25.2,0,0,0-9.91,4.12l-1.58-2.08-.86.66a28,28,0,0,0-4.75,4.61L66.35,70l2.08,1.59a25.15,25.15,0,0,0-4.11,9.91l-2.58-.35L61.6,82.2a28.47,28.47,0,0,0,0,7.14l.19,1.44,2.58-.36a25.21,25.21,0,0,0,4.13,9.91l-2.07,1.58.66.87a28.66,28.66,0,0,0,4.61,4.73l1.58,1.2,1.57-2.07a25.22,25.22,0,0,0,9.92,4.09l-.34,2.58,1.08.14a27.78,27.78,0,0,0,3.63.24,30,30,0,0,0,3.52-.22l1.42-.2-.36-2.57a25.14,25.14,0,0,0,9.9-4.15l1.59,2.07L106,108a27.38,27.38,0,0,0,5.27-5.32l.41-.53-.19-.38v-.28l-1.64-1.25A25.23,25.23,0,0,0,114,90.26l2.58.34.14-1.08a26.79,26.79,0,0,0,.23-3.58A27.85,27.85,0,0,0,116.69,82.39Zm-2,5.77-2.53-.33L112,88.91a23.17,23.17,0,0,1-4.45,10.85l-.66.87,2,1.55a25.32,25.32,0,0,1-3.34,3.37l-1.56-2-.86.66a22.94,22.94,0,0,1-10.83,4.54l-1.07.15.35,2.52a26,26,0,0,1-4.75,0l.34-2.53-1.08-.14a23,23,0,0,1-10.85-4.48l-.87-.65-1.54,2a26,26,0,0,1-3.37-3.35l2-1.55-.66-.86a23.07,23.07,0,0,1-4.52-10.84L66.18,88l-2.53.35c-.08-.81-.12-1.63-.12-2.44s0-1.54.11-2.31l2.53.34.14-1.08A23.05,23.05,0,0,1,70.81,72l.65-.87-2-1.55a26.58,26.58,0,0,1,3.35-3.36l1.56,2,.86-.66A23,23,0,0,1,86,63.09L87.11,63l-.34-2.53a25.88,25.88,0,0,1,4.74,0l-.34,2.53,1.08.15a23.15,23.15,0,0,1,10.83,4.51l.87.66,1.55-2a26,26,0,0,1,3.36,3.36l-2,1.55.66.87A23,23,0,0,1,112,82.84l.15,1.08,2.52-.34c.07.78.11,1.57.11,2.36S114.71,87.42,114.64,88.16Zm2-5.77-.16-1.26-2.58.35a25.14,25.14,0,0,0-4.1-9.92L111.93,70l-.66-.86a28,28,0,0,0-5-5.05l-1.19-.92-1.59,2.08a25.36,25.36,0,0,0-9.9-4.13L94,58.52l-1.07-.14a28.12,28.12,0,0,0-7.16,0l-1.42.19.35,2.57a25.2,25.2,0,0,0-9.91,4.12l-1.58-2.08-.86.66a28,28,0,0,0-4.75,4.61L66.35,70l2.08,1.59a25.15,25.15,0,0,0-4.11,9.91l-2.58-.35L61.6,82.2a28.47,28.47,0,0,0,0,7.14l.19,1.44,2.58-.36a25.21,25.21,0,0,0,4.13,9.91l-2.07,1.58.66.87a28.66,28.66,0,0,0,4.61,4.73l1.58,1.2,1.57-2.07a25.22,25.22,0,0,0,9.92,4.09l-.34,2.58,1.08.14a27.78,27.78,0,0,0,3.63.24,30,30,0,0,0,3.52-.22l1.42-.2-.36-2.57a25.14,25.14,0,0,0,9.9-4.15l1.59,2.07L106,108a27.38,27.38,0,0,0,5.27-5.32l.41-.53-.19-.38v-.28l-1.64-1.25A25.23,25.23,0,0,0,114,90.26l2.58.34.14-1.08a26.79,26.79,0,0,0,.23-3.58A27.85,27.85,0,0,0,116.69,82.39Zm-2,5.77-2.53-.33L112,88.91a23.17,23.17,0,0,1-4.45,10.85l-.66.87,2,1.55a25.32,25.32,0,0,1-3.34,3.37l-1.56-2-.86.66a22.94,22.94,0,0,1-10.83,4.54l-1.07.15.35,2.52a26,26,0,0,1-4.75,0l.34-2.53-1.08-.14a23,23,0,0,1-10.85-4.48l-.87-.65-1.54,2a26,26,0,0,1-3.37-3.35l2-1.55-.66-.86a23.07,23.07,0,0,1-4.52-10.84L66.18,88l-2.53.35c-.08-.81-.12-1.63-.12-2.44s0-1.54.11-2.31l2.53.34.14-1.08A23.05,23.05,0,0,1,70.81,72l.65-.87-2-1.55a26.58,26.58,0,0,1,3.35-3.36l1.56,2,.86-.66A23,23,0,0,1,86,63.09L87.11,63l-.34-2.53a25.88,25.88,0,0,1,4.74,0l-.34,2.53,1.08.15a23.15,23.15,0,0,1,10.83,4.51l.87.66,1.55-2a26,26,0,0,1,3.36,3.36l-2,1.55.66.87A23,23,0,0,1,112,82.84l.15,1.08,2.52-.34c.07.78.11,1.57.11,2.36S114.71,87.42,114.64,88.16Zm2-5.77-.16-1.26-2.58.35a25.14,25.14,0,0,0-4.1-9.92L111.93,70l-.66-.86a28,28,0,0,0-5-5.05l-1.19-.92-1.59,2.08a25.36,25.36,0,0,0-9.9-4.13L94,58.52l-1.07-.14a28.12,28.12,0,0,0-7.16,0l-1.42.19.35,2.57a25.2,25.2,0,0,0-9.91,4.12l-1.58-2.08-.86.66a28,28,0,0,0-4.75,4.61L66.35,70l2.08,1.59a25.15,25.15,0,0,0-4.11,9.91l-2.58-.35L61.6,82.2a28.47,28.47,0,0,0,0,7.14l.19,1.44,2.58-.36a25.21,25.21,0,0,0,4.13,9.91l-2.07,1.58.66.87a28.66,28.66,0,0,0,4.61,4.73l1.58,1.2,1.57-2.07a25.22,25.22,0,0,0,9.92,4.09l-.34,2.58,1.08.14a27.78,27.78,0,0,0,3.63.24,30,30,0,0,0,3.52-.22l1.42-.2-.36-2.57a25.14,25.14,0,0,0,9.9-4.15l1.59,2.07L106,108a27.38,27.38,0,0,0,5.27-5.32l.41-.53-.19-.38v-.28l-1.64-1.25A25.23,25.23,0,0,0,114,90.26l2.58.34.14-1.08a26.79,26.79,0,0,0,.23-3.58A27.85,27.85,0,0,0,116.69,82.39Zm-2,5.77-2.53-.33L112,88.91a23.17,23.17,0,0,1-4.45,10.85l-.66.87,2,1.55a25.32,25.32,0,0,1-3.34,3.37l-1.56-2-.86.66a22.94,22.94,0,0,1-10.83,4.54l-1.07.15.35,2.52a26,26,0,0,1-4.75,0l.34-2.53-1.08-.14a23,23,0,0,1-10.85-4.48l-.87-.65-1.54,2a26,26,0,0,1-3.37-3.35l2-1.55-.66-.86a23.07,23.07,0,0,1-4.52-10.84L66.18,88l-2.53.35c-.08-.81-.12-1.63-.12-2.44s0-1.54.11-2.31l2.53.34.14-1.08A23.05,23.05,0,0,1,70.81,72l.65-.87-2-1.55a26.58,26.58,0,0,1,3.35-3.36l1.56,2,.86-.66A23,23,0,0,1,86,63.09L87.11,63l-.34-2.53a25.88,25.88,0,0,1,4.74,0l-.34,2.53,1.08.15a23.15,23.15,0,0,1,10.83,4.51l.87.66,1.55-2a26,26,0,0,1,3.36,3.36l-2,1.55.66.87A23,23,0,0,1,112,82.84l.15,1.08,2.52-.34c.07.78.11,1.57.11,2.36S114.71,87.42,114.64,88.16Z"/><path class="cls-1" d="M157.35,34.21a5.8,5.8,0,0,0-5-8.74,5.67,5.67,0,0,0-2.84.76.9.9,0,0,1,.42-.1,1,1,0,0,1,.69,1.72l-1.58,1.49a1,1,0,0,1-.68.28,1,1,0,0,1-.65-.24,1,1,0,0,1-.19-1.31,5.8,5.8,0,0,0,4.83,9,5.71,5.71,0,0,0,1.71-.26,81.2,81.2,0,0,1-6.24,105.4c-.49.52-1,1-1.5,1.53a83.32,83.32,0,0,1-14.11,11.11,5.1,5.1,0,0,1-2.73.79,5.33,5.33,0,0,1-1.37-.19,5,5,0,0,1-3.15-2.59l-4.7-9.36-11.13-22.1a69.09,69.09,0,0,0,7.22-7.76c.47-.57.92-1.15,1.38-1.76l.09-.12c.27-.37.56-.74.83-1.12,11.15-15.4,11.28-60.17,11.28-62.07V47.18l3.75-3.74a66,66,0,0,1,5.87,76.27,6.24,6.24,0,0,0-1.3-.14,5.9,5.9,0,0,0-5.9,5.89,5.84,5.84,0,0,0,1.3,3.68,5.73,5.73,0,0,0,2.06,1.65,5.9,5.9,0,0,0,7.33-8.77,70.14,70.14,0,0,0-7-82.26l-1.49-1.63A61.64,61.64,0,0,0,55.92,27.91a5.79,5.79,0,0,0-9,4.83,5.76,5.76,0,0,0,2.24,4.58,5.73,5.73,0,0,0,3.55,1.21,5.8,5.8,0,0,0,5.79-5.79,5.64,5.64,0,0,0-.18-1.42,57.45,57.45,0,0,1,72.53,9L122,49.25c-3.23,1.44-8,3.11-12.56,3.11-12.51,0-19-5.16-19.07-5.22l-.66-.54a1,1,0,0,0-.63-.23,1,1,0,0,0-.6.2l-.69.52a31.47,31.47,0,0,1-17.11,5.43,38,38,0,0,1-14.3-3.25L31.05,24a1,1,0,0,0-.71-.29,1,1,0,0,0-.7.29l-1.59,1.57A84.94,84.94,0,0,0,4.45,72.05a5.9,5.9,0,0,0-.3,11.35,6.13,6.13,0,0,0,1.75.26,6.36,6.36,0,0,0,.87-.06A5.9,5.9,0,0,0,8.63,72.53,81.11,81.11,0,0,1,30.44,29.25L41.56,40.38A70.07,70.07,0,0,0,35.07,122a5.9,5.9,0,0,0,4.78,9.35,5.9,5.9,0,0,0,2.46-.54l.12,0a6,6,0,0,0,2-1.63,5.89,5.89,0,0,0-4.61-9.57,6.14,6.14,0,0,0-1.29.14,65.93,65.93,0,0,1,6-76.37L48.18,47v1.55c0,1.9.13,46.82,11.23,62.08.34.47.68.94,1,1.38s.91,1.18,1.36,1.75a70,70,0,0,0,7.18,7.6L58.82,141.53l-5.68,11.31a5.08,5.08,0,0,1-4.54,2.79,5,5,0,0,1-2.64-.76,82.21,82.21,0,0,1-14.07-11.06q-.78-.75-1.53-1.53A80.6,80.6,0,0,1,8.62,99,5.89,5.89,0,0,0,6.74,87.91a5.73,5.73,0,0,0-.84-.06,6.24,6.24,0,0,0-1.75.26,5.9,5.9,0,0,0,.34,11.36,85.49,85.49,0,0,0,22.92,45.71c.51.53,1,1.06,1.55,1.57a86.08,86.08,0,0,0,14.79,11.66,9.06,9.06,0,0,0,4.87,1.4,9.45,9.45,0,0,0,2.48-.34,9.32,9.32,0,0,0,5.77-4.76l5.65-11.21,9.73-19.34c8.08,6.5,14.9,8.87,16.27,9.3l.31.09a1,1,0,0,0,.56,0l.31-.09c.79-.23,7.76-2.42,16.19-9.26l9.71,19.3,5.65,11.21a9.24,9.24,0,0,0,5.75,4.74,9.07,9.07,0,0,0,2.49.34,9.33,9.33,0,0,0,4.95-1.41,87.23,87.23,0,0,0,14.82-11.72c.51-.52,1-1,1.53-1.57a85.41,85.41,0,0,0,24-59.41A84.23,84.23,0,0,0,157.35,34.21ZM106.2,118.38c-.55.51-1.11,1-1.65,1.46a52.75,52.75,0,0,1-15.43,9.41,53.77,53.77,0,0,1-15.54-9.44c-.55-.46-1.11-1-1.67-1.45a66.67,66.67,0,0,1-7-7.42c-.44-.55-.88-1.11-1.33-1.71-.26-.34-.52-.69-.79-1.07C54.16,96.33,52.67,62.3,52.41,52.07c.51.25,1.1.53,1.75.81a46.8,46.8,0,0,0,5.06,1.91A37.84,37.84,0,0,0,70.65,56.7,35.05,35.05,0,0,0,89,51.29c2.86,1.83,9.65,5.24,20.4,5.24a31.48,31.48,0,0,0,9.6-1.66,46.26,46.26,0,0,0,5.17-2l1.52-.74c-.28,10.26-1.84,44.2-10.43,56.06-.23.31-.45.62-.69.93-.44.59-.88,1.16-1.32,1.72A67.44,67.44,0,0,1,106.2,118.38Z"/><path class="cls-1" d="M138.26,24.08a5.9,5.9,0,0,1-5.9-5.9,5.54,5.54,0,0,1,.14-1.29A80.39,80.39,0,0,0,89.05,4.18H87.83A80.77,80.77,0,0,0,45.59,16.85a6,6,0,0,1,.16,1.33,5.9,5.9,0,0,1-9.58,4.61,6.08,6.08,0,0,1-1.71-2.2,6,6,0,0,1-.5-2.41,5.9,5.9,0,0,1,5.89-5.9,5.84,5.84,0,0,1,3.31,1A85.26,85.26,0,0,1,87.76,0h1.29A84.58,84.58,0,0,1,134.8,13.4a5.84,5.84,0,0,1,3.46-1.12,5.91,5.91,0,0,1,5.89,5.9,5.84,5.84,0,0,1-.62,2.62,5.78,5.78,0,0,1-1.65,2A5.89,5.89,0,0,1,138.26,24.08Z"/><path class="cls-1" d="M150.63,27.85l-1.58,1.49a1,1,0,0,1-.68.28,1,1,0,0,1-.65-.24,1,1,0,0,1-.19-1.31l.15-.18a5.84,5.84,0,0,1,1.76-1.63s.05,0,.08,0a.9.9,0,0,1,.42-.1,1,1,0,0,1,.69,1.72Z"/><path class="cls-1" d="M150.74,26.53a1,1,0,0,0-.8-.4.9.9,0,0,0-.42.1l-.08,0-.18.13-1.58,1.49-.15.18a1,1,0,0,0,.19,1.31,1,1,0,0,0,.65.24,1,1,0,0,0,.68-.28l1.58-1.49A1,1,0,0,0,150.74,26.53Z"/><path class="cls-1" d="M82.67,70.71l-.18,29.63a.92.92,0,0,1-.84.92h-.09a.92.92,0,0,1-.91-.74L75.76,77.89a14.52,14.52,0,0,0-1.59,10.47,13.92,13.92,0,0,0,4,7.62A.93.93,0,1,1,77,97.42a15.63,15.63,0,0,1-4.63-8.69c-1.71-8.53,3-13.5,3.22-13.7a.93.93,0,0,1,1.58.45l3.53,16.36.13-21.14a.93.93,0,0,1,.93-.93h0A.93.93,0,0,1,82.67,70.71Z"/><path class="cls-1" d="M89.91,101.92a.94.94,0,0,1-.81.93,8.07,8.07,0,0,1-1.06.07,6.47,6.47,0,0,1-3-.64.93.93,0,1,1,.9-1.63,2.72,2.72,0,0,0,.43.17V70.7l-1.11.2A.93.93,0,0,1,85,69.06l3.85-.68a.93.93,0,0,1,.36,1.82l-.91.19V100.9l.83.1A.93.93,0,0,1,89.91,101.92Z"/><path class="cls-1" d="M97.86,72.84a.94.94,0,0,1-1.32,0,5.07,5.07,0,0,0-1.57-1v29a.93.93,0,0,1-1.86,0V71.48l-1.48-.59a.93.93,0,0,1,.52-1.78c.41.08,4.1.8,5.71,2.41A.94.94,0,0,1,97.86,72.84Z"/><path class="cls-1" d="M116.69,82.39l-.16-1.26-2.58.35a25.14,25.14,0,0,0-4.1-9.92L111.93,70l-.66-.86a28,28,0,0,0-5-5.05l-1.19-.92-1.59,2.08a25.36,25.36,0,0,0-9.9-4.13L94,58.52l-1.07-.14a28.12,28.12,0,0,0-7.16,0l-1.42.19.35,2.57a25.2,25.2,0,0,0-9.91,4.12l-1.58-2.08-.86.66a28,28,0,0,0-4.75,4.61L66.35,70l2.08,1.59a25.15,25.15,0,0,0-4.11,9.91l-2.58-.35L61.6,82.2a28.47,28.47,0,0,0,0,7.14l.19,1.44,2.58-.36a25.21,25.21,0,0,0,4.13,9.91l-2.07,1.58.66.87a28.66,28.66,0,0,0,4.61,4.73l1.58,1.2,1.57-2.07a25.22,25.22,0,0,0,9.92,4.09l-.34,2.58,1.08.14a27.78,27.78,0,0,0,3.63.24,30,30,0,0,0,3.52-.22l1.42-.2-.36-2.57a25.14,25.14,0,0,0,9.9-4.15l1.59,2.07L106,108a27.38,27.38,0,0,0,5.27-5.32l.41-.53-.19-.38v-.28l-1.64-1.25A25.23,25.23,0,0,0,114,90.26l2.58.34.14-1.08a26.79,26.79,0,0,0,.23-3.58A27.85,27.85,0,0,0,116.69,82.39Zm-2,5.77-2.53-.33L112,88.91a23.17,23.17,0,0,1-4.45,10.85l-.66.87,2,1.55a25.32,25.32,0,0,1-3.34,3.37l-1.56-2-.86.66a22.94,22.94,0,0,1-10.83,4.54l-1.07.15.35,2.52a26,26,0,0,1-4.75,0l.34-2.53-1.08-.14a23,23,0,0,1-10.85-4.48l-.87-.65-1.54,2a26,26,0,0,1-3.37-3.35l2-1.55-.66-.86a23.07,23.07,0,0,1-4.52-10.84L66.18,88l-2.53.35c-.08-.81-.12-1.63-.12-2.44s0-1.54.11-2.31l2.53.34.14-1.08A23.05,23.05,0,0,1,70.81,72l.65-.87-2-1.55a26.58,26.58,0,0,1,3.35-3.36l1.56,2,.86-.66A23,23,0,0,1,86,63.09L87.11,63l-.34-2.53a25.88,25.88,0,0,1,4.74,0l-.34,2.53,1.08.15a23.15,23.15,0,0,1,10.83,4.51l.87.66,1.55-2a26,26,0,0,1,3.36,3.36l-2,1.55.66.87A23,23,0,0,1,112,82.84l.15,1.08,2.52-.34c.07.78.11,1.57.11,2.36S114.71,87.42,114.64,88.16Z"/><path class="cls-1" d="M82.67,70.71l-.18,29.63a.92.92,0,0,1-.84.92h-.09a.92.92,0,0,1-.91-.74L75.76,77.89a14.52,14.52,0,0,0-1.59,10.47,13.92,13.92,0,0,0,4,7.62A.93.93,0,1,1,77,97.42a15.63,15.63,0,0,1-4.63-8.69c-1.71-8.53,3-13.5,3.22-13.7a.93.93,0,0,1,1.58.45l3.53,16.36.13-21.14a.93.93,0,0,1,.93-.93h0A.93.93,0,0,1,82.67,70.71Z"/><path class="cls-1" d="M89.91,101.92a.94.94,0,0,1-.81.93,8.07,8.07,0,0,1-1.06.07,6.47,6.47,0,0,1-3-.64.93.93,0,1,1,.9-1.63,2.72,2.72,0,0,0,.43.17V70.7l-1.11.2A.93.93,0,0,1,85,69.06l3.85-.68a.93.93,0,0,1,.36,1.82l-.91.19V100.9l.83.1A.93.93,0,0,1,89.91,101.92Z"/><path class="cls-1" d="M97.86,72.84a.94.94,0,0,1-1.32,0,5.07,5.07,0,0,0-1.57-1v29a.93.93,0,0,1-1.86,0V71.48l-1.48-.59a.93.93,0,0,1,.52-1.78c.41.08,4.1.8,5.71,2.41A.94.94,0,0,1,97.86,72.84Z"/><path class="cls-1" d="M82.67,70.71l-.18,29.63a.92.92,0,0,1-.84.92h-.09a.92.92,0,0,1-.91-.74L75.76,77.89a14.52,14.52,0,0,0-1.59,10.47,13.92,13.92,0,0,0,4,7.62A.93.93,0,1,1,77,97.42a15.63,15.63,0,0,1-4.63-8.69c-1.71-8.53,3-13.5,3.22-13.7a.93.93,0,0,1,1.58.45l3.53,16.36.13-21.14a.93.93,0,0,1,.93-.93h0A.93.93,0,0,1,82.67,70.71Z"/><path class="cls-1" d="M89.91,101.92a.94.94,0,0,1-.81.93,8.07,8.07,0,0,1-1.06.07,6.47,6.47,0,0,1-3-.64.93.93,0,1,1,.9-1.63,2.72,2.72,0,0,0,.43.17V70.7l-1.11.2A.93.93,0,0,1,85,69.06l3.85-.68a.93.93,0,0,1,.36,1.82l-.91.19V100.9l.83.1A.93.93,0,0,1,89.91,101.92Z"/><path class="cls-1" d="M97.86,71.52a.93.93,0,1,1-1.32,1.32,5.07,5.07,0,0,0-1.57-1v29a.93.93,0,0,1-1.86,0V71.48l-1.48-.59a.93.93,0,0,1,.52-1.78C92.56,69.19,96.25,69.91,97.86,71.52Z"/><path class="cls-1" d="M105,91.86a.93.93,0,0,1-.31,1.28,1,1,0,0,1-.49.14.94.94,0,0,1-.79-.44l-2.81-4.57V98.65a.93.93,0,1,1-1.86,0v-25a.93.93,0,1,1,1.86,0v8.25l2.34-4.08a.93.93,0,1,1,1.61.92l-3.66,6.4Z"/><path class="cls-1" d="M116.69,82.39l-.16-1.26-2.58.35a25.14,25.14,0,0,0-4.1-9.92L111.93,70l-.66-.86a28,28,0,0,0-5-5.05l-1.19-.92-1.59,2.08a25.36,25.36,0,0,0-9.9-4.13L94,58.52l-1.07-.14a28.12,28.12,0,0,0-7.16,0l-1.42.19.35,2.57a25.2,25.2,0,0,0-9.91,4.12l-1.58-2.08-.86.66a28,28,0,0,0-4.75,4.61L66.35,70l2.08,1.59a25.15,25.15,0,0,0-4.11,9.91l-2.58-.35L61.6,82.2a28.47,28.47,0,0,0,0,7.14l.19,1.44,2.58-.36a25.21,25.21,0,0,0,4.13,9.91l-2.07,1.58.66.87a28.66,28.66,0,0,0,4.61,4.73l1.58,1.2,1.57-2.07a25.22,25.22,0,0,0,9.92,4.09l-.34,2.58,1.08.14a27.78,27.78,0,0,0,3.63.24,30,30,0,0,0,3.52-.22l1.42-.2-.36-2.57a25.14,25.14,0,0,0,9.9-4.15l1.59,2.07L106,108a27.38,27.38,0,0,0,5.27-5.32l.41-.53-.19-.38v-.28l-1.64-1.25A25.23,25.23,0,0,0,114,90.26l2.58.34.14-1.08a26.79,26.79,0,0,0,.23-3.58A27.85,27.85,0,0,0,116.69,82.39Zm-2,5.77-2.53-.33L112,88.91a23.17,23.17,0,0,1-4.45,10.85l-.66.87,2,1.55a25.32,25.32,0,0,1-3.34,3.37l-1.56-2-.86.66a22.94,22.94,0,0,1-10.83,4.54l-1.07.15.35,2.52a26,26,0,0,1-4.75,0l.34-2.53-1.08-.14a23,23,0,0,1-10.85-4.48l-.87-.65-1.54,2a26,26,0,0,1-3.37-3.35l2-1.55-.66-.86a23.07,23.07,0,0,1-4.52-10.84L66.18,88l-2.53.35c-.08-.81-.12-1.63-.12-2.44s0-1.54.11-2.31l2.53.34.14-1.08A23.05,23.05,0,0,1,70.81,72l.65-.87-2-1.55a26.58,26.58,0,0,1,3.35-3.36l1.56,2,.86-.66A23,23,0,0,1,86,63.09L87.11,63l-.34-2.53a25.88,25.88,0,0,1,4.74,0l-.34,2.53,1.08.15a23.15,23.15,0,0,1,10.83,4.51l.87.66,1.55-2a26,26,0,0,1,3.36,3.36l-2,1.55.66.87A23,23,0,0,1,112,82.84l.15,1.08,2.52-.34c.07.78.11,1.57.11,2.36S114.71,87.42,114.64,88.16Z"/><path class="cls-1" d="M82.67,70.71l-.18,29.63a.92.92,0,0,1-.84.92h-.09a.92.92,0,0,1-.91-.74L75.76,77.89a14.52,14.52,0,0,0-1.59,10.47,13.92,13.92,0,0,0,4,7.62A.93.93,0,1,1,77,97.42a15.63,15.63,0,0,1-4.63-8.69c-1.71-8.53,3-13.5,3.22-13.7a.93.93,0,0,1,1.58.45l3.53,16.36.13-21.14a.93.93,0,0,1,.93-.93h0A.93.93,0,0,1,82.67,70.71Z"/><path class="cls-1" d="M89.91,101.92a.94.94,0,0,1-.81.93,8.07,8.07,0,0,1-1.06.07,6.47,6.47,0,0,1-3-.64.93.93,0,1,1,.9-1.63,2.72,2.72,0,0,0,.43.17V70.7l-1.11.2A.93.93,0,0,1,85,69.06l3.85-.68a.93.93,0,0,1,.36,1.82l-.91.19V100.9l.83.1A.93.93,0,0,1,89.91,101.92Z"/><path class="cls-1" d="M97.86,71.52a.93.93,0,1,1-1.32,1.32,5.07,5.07,0,0,0-1.57-1v29a.93.93,0,0,1-1.86,0V71.48l-1.48-.59a.93.93,0,0,1,.52-1.78C92.56,69.19,96.25,69.91,97.86,71.52Z"/><path class="cls-1" d="M104.65,93.14a1,1,0,0,1-.49.14.94.94,0,0,1-.79-.44l-2.81-4.57V98.65a.93.93,0,1,1-1.86,0v-25a.93.93,0,1,1,1.86,0v8.25l2.34-4.08a.93.93,0,1,1,1.61.92l-3.66,6.4L105,91.86A.93.93,0,0,1,104.65,93.14Z"/><path class="cls-1" d="M82.67,70.71l-.18,29.63a.92.92,0,0,1-.84.92h-.09a.92.92,0,0,1-.91-.74L75.76,77.89a14.52,14.52,0,0,0-1.59,10.47,13.92,13.92,0,0,0,4,7.62A.93.93,0,1,1,77,97.42a15.63,15.63,0,0,1-4.63-8.69c-1.71-8.53,3-13.5,3.22-13.7a.93.93,0,0,1,1.58.45l3.53,16.36.13-21.14a.93.93,0,0,1,.93-.93h0A.93.93,0,0,1,82.67,70.71Z"/><path class="cls-1" d="M89.91,101.92a.94.94,0,0,1-.81.93,8.07,8.07,0,0,1-1.06.07,6.47,6.47,0,0,1-3-.64.93.93,0,1,1,.9-1.63,2.72,2.72,0,0,0,.43.17V70.7l-1.11.2A.93.93,0,0,1,85,69.06l3.85-.68a.93.93,0,0,1,.36,1.82l-.91.19V100.9l.83.1A.93.93,0,0,1,89.91,101.92Z"/><path class="cls-1" d="M97.86,72.84a.94.94,0,0,1-1.32,0,5.07,5.07,0,0,0-1.57-1v29a.93.93,0,0,1-1.86,0V71.48l-1.48-.59a.93.93,0,0,1,.52-1.78c.41.08,4.1.8,5.71,2.41A.94.94,0,0,1,97.86,72.84Z"/><path class="cls-1" d="M104.65,93.14a1,1,0,0,1-.49.14.94.94,0,0,1-.79-.44l-2.81-4.57V98.65a.93.93,0,1,1-1.86,0v-25a.93.93,0,1,1,1.86,0v8.25l2.34-4.08a.93.93,0,1,1,1.61.92l-3.66,6.4L105,91.86A.93.93,0,0,1,104.65,93.14Z"/><path class="cls-1" d="M261,129.54c-13.45,0-25.1-4.42-34.61-13.12S212,97,212,84.63s4.84-23,14.37-31.72S247.56,39.79,261,39.79a52,52,0,0,1,17,2.78,2.47,2.47,0,0,1,1.8,2.46,2.54,2.54,0,0,1-1.22,2.38,2.75,2.75,0,0,1-1.5.44,3.18,3.18,0,0,1-1.08-.18,45.9,45.9,0,0,0-15-2.49c-11.88,0-22.18,3.91-30.6,11.63s-12.67,17-12.67,27.82,4.26,20.2,12.67,27.89,18.72,11.56,30.6,11.56a46.69,46.69,0,0,0,15.06-2.43,3.36,3.36,0,0,1,1-.18,3,3,0,0,1,1.49.44,2.53,2.53,0,0,1,1.23,2.2,2.67,2.67,0,0,1-1.85,2.7A53.06,53.06,0,0,1,261,129.54Z"/><path class="cls-1" d="M342.16,129.54c-13.45,0-25.09-4.41-34.6-13.12S293.18,97,293.18,84.63s4.84-23,14.38-31.73,21.14-13.11,34.6-13.11,25,4.41,34.54,13.11,14.38,19.41,14.38,31.73-4.84,23.06-14.38,31.79S355.56,129.54,342.16,129.54Zm0-84.36c-11.88,0-22.18,3.91-30.6,11.63s-12.67,17-12.67,27.82,4.26,20.2,12.66,27.88,18.73,11.57,30.61,11.57a44,44,0,0,0,30.55-11.57c8.4-7.68,12.66-17.06,12.66-27.88s-4.26-20.17-12.66-27.82A43.84,43.84,0,0,0,342.16,45.18Z"/><path class="cls-1" d="M407.87,129.54a2.49,2.49,0,0,1-2.72-2.7v-.37a2.43,2.43,0,0,1,2.72-2.57h26.71a20.21,20.21,0,0,0,14.17-5.44,16.6,16.6,0,0,0,5.9-12.85c0-5.92-2.32-10.3-7.1-13.41-2.86-1.87-8.38-4-16.42-6.18s-13.68-4.52-16.93-6.75c-5.31-3.7-8-9.06-8-15.92a22.28,22.28,0,0,1,7.68-17,26.58,26.58,0,0,1,18.43-6.94h18.83A2.48,2.48,0,0,1,453.94,42v.36a2.53,2.53,0,0,1-2.79,2.7H432.32a20.42,20.42,0,0,0-14.23,5.38,16.64,16.64,0,0,0-5.91,12.91,13.37,13.37,0,0,0,7.07,12.3c2.61,1.56,8.12,3.5,16.39,5.77,8,2.2,13.56,4.49,17,7,5.32,4,8,9.76,8,17.17A22.22,22.22,0,0,1,453,122.54a26.38,26.38,0,0,1-18.37,7Z"/><path class="cls-1" d="M536.67,129.54a2.5,2.5,0,0,1-2.79-2.64V87.39H483.72V126.9a2.5,2.5,0,0,1-2.79,2.64c-1.83,0-2.92-1-2.92-2.64V42.42a2.49,2.49,0,0,1,2.79-2.63c1.83,0,2.92,1,2.92,2.63V82h50.16V42.42a2.49,2.49,0,0,1,2.79-2.63c1.87,0,3,1,3,2.63V126.9a2.53,2.53,0,0,1-2.86,2.64Z"/><path class="cls-2" d="M575.38,24.67l-1.55,1.53c.51-.52,1-1,1.55-1.53"/></g></g></svg>