<svg xmlns="http://www.w3.org/2000/svg" viewBox="0 0 325.63 266.27"><defs><style>.cls-1{fill:#fff;}</style></defs><title>logo2</title><g id="Layer_2" data-name="Layer 2"><g id="Layer_1-2" data-name="Layer 1"><path class="cls-1" d="M161.15,100.27a.94.94,0,0,1-.91-.74l-4.88-22.64a14.47,14.47,0,0,0-1.59,10.47,13.9,13.9,0,0,0,4,7.62.93.93,0,0,1-1.19,1.44,15.71,15.71,0,0,1-4.63-8.7c-1.7-8.53,3-13.49,3.23-13.7a.94.94,0,0,1,1.58.46l3.52,16.36.13-21.14a.93.93,0,0,1,.93-.93h0a.94.94,0,0,1,.93.94l-.19,29.63a.92.92,0,0,1-.83.92h-.1m13.41-.38v-29a5.34,5.34,0,0,1,1.58,1,.93.93,0,1,0,1.31-1.32c-1.61-1.61-5.29-2.34-5.71-2.41a.93.93,0,0,0-1.07.65,1,1,0,0,0,.55,1.13l1.48.59V99.89a.93.93,0,1,0,1.86,0m-5.87,2a.93.93,0,0,0,0-1.85l-.82-.1V69.39l.9-.19a.93.93,0,0,0-.35-1.83l-3.86.69a.93.93,0,1,0,.33,1.83L166,69.7V99.82c-.26-.09-.41-.17-.43-.17a.92.92,0,0,0-1.26.36.93.93,0,0,0,.36,1.27,6.59,6.59,0,0,0,3,.64,9.91,9.91,0,0,0,1.05-.07m11.46-4.2v-25a.93.93,0,0,0-1.86,0v25a.93.93,0,1,0,1.86,0m4.1-5.51a.94.94,0,0,0,.3-1.28l-4.11-6.68,3.67-6.4a.93.93,0,0,0-1.62-.92l-3.94,6.87a1,1,0,0,0,0,1l4.4,7.15a1,1,0,0,0,.8.45,1,1,0,0,0,.49-.14M109.93,23.66l-1.54,1.54c.51-.53,1-1,1.54-1.54m41.58,97.94L141.22,142l-1,2-4.67,9.27a8.24,8.24,0,0,1-5.14,4.24,8.38,8.38,0,0,1-2.22.31,8.24,8.24,0,0,1-4.33-1.24A85.41,85.41,0,0,1,109.26,145c-.51-.52-1-1-1.52-1.55A84.19,84.19,0,0,1,85,97.61,4.89,4.89,0,0,1,84,88.07a4.69,4.69,0,0,1,1.46-.22,4.36,4.36,0,0,1,.72.05,4.89,4.89,0,0,1,.89,9.46A81.79,81.79,0,0,0,109.25,142c.5.52,1,1,1.53,1.54A84.2,84.2,0,0,0,125,154.72a5.9,5.9,0,0,0,4.81.68,6.06,6.06,0,0,0,3.79-3.12l4.71-9.35,1-2,10.49-20.85c.57.52,1.14,1,1.7,1.47M86.8,95.13a2.73,2.73,0,0,0-.47-5A2.83,2.83,0,0,0,85.5,90a2.69,2.69,0,0,0-1.33.35,2.72,2.72,0,0,0,2.63,4.76m128.93,33.74a4.15,4.15,0,0,1-.27.32l-1.54-1.54a1.71,1.71,0,0,0,.11-.14,4.88,4.88,0,0,0,1.7,1.36m-91.39-4.41a4.88,4.88,0,0,1-1.07,3.05,4.81,4.81,0,0,1-1.7,1.36h0a4.89,4.89,0,0,1-5.68-7.77,4.84,4.84,0,0,1,3.56-1.54,4.89,4.89,0,0,1,4.89,4.9m-2.18,0a2.71,2.71,0,0,0-2.71-2.72,2.76,2.76,0,0,0-.51.05,2.72,2.72,0,0,0,.51,5.39,2.39,2.39,0,0,0,.66-.09,2.7,2.7,0,0,0,1.73-1.34,2.65,2.65,0,0,0,.32-1.29M222.75,17.18a5,5,0,0,1-.51,2.17A5,5,0,0,1,220.87,21,4.91,4.91,0,0,1,213,17.18a5,5,0,0,1,.32-1.73A81.33,81.33,0,0,0,168.64,2.18H167.4A81.64,81.64,0,0,0,124,15.42a4.89,4.89,0,0,1-4.56,6.65,4.83,4.83,0,0,1-3-1.07,4.91,4.91,0,0,1-1.85-3.82,4.89,4.89,0,0,1,8.15-3.66A84.08,84.08,0,0,1,167.37,0h1.27a83.46,83.46,0,0,1,45.84,13.64,4.84,4.84,0,0,1,3.37-1.36,4.9,4.9,0,0,1,4.9,4.9m-100.59,0a2.81,2.81,0,0,0,0-.5,2.71,2.71,0,0,0-1.34-1.87,2.64,2.64,0,0,0-1.33-.35,2.72,2.72,0,0,0-2.72,2.72,2.5,2.5,0,0,0,0,.55,2.72,2.72,0,0,0,5.38-.55m98.41,0a2.72,2.72,0,0,0-2.72-2.72,2.66,2.66,0,0,0-1.48.44,2.73,2.73,0,0,0-1.2,1.83,2.28,2.28,0,0,0,0,.45,2.72,2.72,0,0,0,2.72,2.72,2.69,2.69,0,0,0,1.23-.3,2.64,2.64,0,0,0,1.38-1.68,2.55,2.55,0,0,0,.11-.74m9,8.94L228,27.62a4.63,4.63,0,0,1,1.58-1.5m23.79,58.56a85.05,85.05,0,0,1-2.79,21.58,84.09,84.09,0,0,1-8.16,20.09,85.26,85.26,0,0,1-12.72,17.05L228.14,145a84.91,84.91,0,0,1-14.64,11.57,8.24,8.24,0,0,1-11.77-3.26L197.06,144l-1-2-10.27-20.41c-8.87,7.48-16.35,9.74-16.8,9.87l-.31.09-.3-.1c-.45-.13-8-2.47-16.89-9.89-.56-.46-1.13-.95-1.7-1.47a69.67,69.67,0,0,1-7.63-8c-.45-.55-.91-1.13-1.36-1.72s-.67-.9-1-1.36c-10.91-15-11-59.6-11-61.49v-2h0l-4.74-4.73a66.93,66.93,0,0,0-6.36,79,5,5,0,0,0-1.81,1.22,69.1,69.1,0,0,1,6.63-81.77L110,26.83A82.6,82.6,0,0,0,87.11,72.14a4.89,4.89,0,0,1-.9,9.46,4.17,4.17,0,0,1-.71.06A4.81,4.81,0,0,1,84,81.43a4.89,4.89,0,0,1,.9-9.53,84,84,0,0,1,23.42-46.67l0,0,1.54-1.54L135.37,49.1a39,39,0,0,0,14.87,3.42A32.39,32.39,0,0,0,168,46.89l.68-.52.66.54c.07.05,6.86,5.44,19.71,5.44,4.79,0,9.68-1.71,13.13-3.27l9.73-9.72a59.23,59.23,0,0,0-43.22-19,58.17,58.17,0,0,0-31.9,9.54,4.87,4.87,0,0,1,.36,1.84,4.79,4.79,0,0,1-7.73,3.78A4.92,4.92,0,0,1,128,33.83a4.86,4.86,0,0,1-.48-2.09A4.8,4.8,0,0,1,132.32,27a4.74,4.74,0,0,1,3.15,1.18,60.46,60.46,0,0,1,33.18-9.94A61.36,61.36,0,0,1,213.4,37.82c.5.53,1,1.06,1.47,1.61a69.06,69.06,0,0,1,6.54,81.67,4.89,4.89,0,1,1-7.38,6.41,4.81,4.81,0,0,1-1.08-3.05,4.9,4.9,0,0,1,4.9-4.9,4.82,4.82,0,0,1,1.75.33A66.91,66.91,0,0,0,213.33,41l-4.8,4.8v1.78c0,1.89-.2,46.45-11.09,61.48-.3.42-.6.83-.91,1.23-.44.59-.89,1.17-1.35,1.73a69.48,69.48,0,0,1-7.67,8.16L198,141l1,2,4.71,9.35a6,6,0,0,0,3.77,3.11,6.17,6.17,0,0,0,4.9-.71,83.33,83.33,0,0,0,14.27-11.25c.52-.51,1-1,1.53-1.55A82.18,82.18,0,0,0,234,34.59a4.78,4.78,0,0,1-6.83-4.33,4.67,4.67,0,0,1,.8-2.64l1.58-1.5a4.7,4.7,0,0,1,2.41-.65,4.79,4.79,0,0,1,3.75,7.77,83.6,83.6,0,0,1,17.63,51.44M234.57,30.26A2.61,2.61,0,0,0,232,27.65a2.41,2.41,0,0,0-.85.14,2.67,2.67,0,0,0-1.58,1.49A2.63,2.63,0,0,0,232,32.87a2.43,2.43,0,0,0,.61-.07,2.6,2.6,0,0,0,1.71-1.35,2.49,2.49,0,0,0,.29-1.19m-14,94.2a2.73,2.73,0,0,0-2.2-2.67,3,3,0,0,0-.52-.05,2.72,2.72,0,0,0-2.72,2.72,2.6,2.6,0,0,0,.34,1.3,2.66,2.66,0,0,0,1.72,1.33,2.39,2.39,0,0,0,.66.09,2.72,2.72,0,0,0,2.72-2.72M134.93,31.74a2.58,2.58,0,0,0-1.38-2.3,2.55,2.55,0,0,0-1.23-.31,2.61,2.61,0,0,0-2.61,2.61,2.72,2.72,0,0,0,.06.58,2.61,2.61,0,0,0,5.16-.58M86.8,74.38a2.68,2.68,0,0,0-2.19-.19,2.72,2.72,0,0,0-.46,4.93,2.7,2.7,0,0,0,1.35.36,2.81,2.81,0,0,0,.82-.13,2.72,2.72,0,0,0,.48-5m99.68,43.73a68.17,68.17,0,0,0,7.16-7.67l1.34-1.73.7-.95c9.24-12.77,10.49-49.51,10.65-58.31-.77.42-1.78.94-3,1.49a47,47,0,0,1-5.06,2A30.68,30.68,0,0,1,189,54.53c-11.47,0-18.32-4-20.41-5.44a34.2,34.2,0,0,1-18.36,5.6,37.26,37.26,0,0,1-11.13-1.85,50.72,50.72,0,0,1-5-1.87c-1.29-.57-2.37-1.12-3.19-1.55.15,8.76,1.33,45.61,10.6,58.33l.81,1.09c.45.59.9,1.17,1.35,1.73a68.51,68.51,0,0,0,7.11,7.53c.56.51,1.13,1,1.69,1.47a54.28,54.28,0,0,0,16.18,9.74,52.3,52.3,0,0,0,16.08-9.71c.56-.48,1.12-1,1.69-1.49m-14.26-5.65,1.43-.19-.37-2.57a25.23,25.23,0,0,0,9.9-4.15l1.59,2.07.87-.67a28.25,28.25,0,0,0,5.27-5.32l.4-.54-.18-.37v-.29l-1.65-1.24a25.25,25.25,0,0,0,4.08-9.93l2.58.34.14-1.08a28.69,28.69,0,0,0,.23-3.58,27.89,27.89,0,0,0-.23-3.56l-.15-1.25-2.59.34a25.25,25.25,0,0,0-4.09-9.92L191.52,69l-.66-.87a27.83,27.83,0,0,0-5-5l-1.2-.92-1.58,2.08a25.1,25.1,0,0,0-9.91-4.13l.35-2.58-1.08-.14a27.6,27.6,0,0,0-7.15,0l-1.42.19.35,2.57a25.18,25.18,0,0,0-9.91,4.11l-1.58-2.07-.87.66a27.59,27.59,0,0,0-4.74,4.61L145.94,69,148,70.55a25.13,25.13,0,0,0-4.11,9.91l-2.58-.34-.15,1.08a28.27,28.27,0,0,0-.24,3.67,26.72,26.72,0,0,0,.22,3.47l.18,1.43,2.58-.35a25.27,25.27,0,0,0,4.13,9.91L146,100.91l.67.86a27.16,27.16,0,0,0,4.61,4.73l1.57,1.21,1.57-2.08a25.15,25.15,0,0,0,9.92,4.1L164,112.3l1.08.15a29.65,29.65,0,0,0,3.64.23,27.68,27.68,0,0,0,3.51-.22m-5.45-4.58-1.08-.14a23,23,0,0,1-10.85-4.48l-.86-.66-1.55,2a25.32,25.32,0,0,1-3.37-3.34l2-1.55-.66-.87a23,23,0,0,1-4.51-10.83L145.77,87l-2.53.35c-.07-.81-.11-1.63-.11-2.45s0-1.53.1-2.3l2.53.34.15-1.08A23,23,0,0,1,150.4,71l.66-.87-2-1.55a25.94,25.94,0,0,1,3.35-3.36l1.55,2,.87-.66a22.9,22.9,0,0,1,10.84-4.5l1.07-.15-.34-2.53a26.91,26.91,0,0,1,4.75,0l-.34,2.53,1.07.14a23.1,23.1,0,0,1,10.84,4.52l.86.66,1.56-2a25.94,25.94,0,0,1,3.35,3.36l-2,1.54.66.87a23,23,0,0,1,4.48,10.85l.15,1.08,2.52-.34a23.16,23.16,0,0,1,.11,2.36c0,.73,0,1.48-.09,2.21l-2.54-.32-.14,1.07a23,23,0,0,1-4.45,10.86l-.65.86,2,1.55a25.33,25.33,0,0,1-3.34,3.37l-1.56-2-.87.67a22.93,22.93,0,0,1-10.82,4.53l-1.08.15.35,2.53a25.87,25.87,0,0,1-4.74,0ZM14.05,253.42Q0,240.57,0,222.37t14.05-31Q28.11,178.53,48,178.52a50.89,50.89,0,0,1,16.64,2.73,1.47,1.47,0,0,1,1.13,1.52,1.6,1.6,0,0,1-.73,1.51,1.74,1.74,0,0,1-1,.31,1.93,1.93,0,0,1-.73-.13A47.05,47.05,0,0,0,48,181.92q-18.28,0-31.28,11.88t-13,28.57q0,16.74,13,28.62T48,262.82a47.27,47.27,0,0,0,15.38-2.49,2.44,2.44,0,0,1,.66-.12,2.07,2.07,0,0,1,1,.3,1.55,1.55,0,0,1,.73,1.34,1.68,1.68,0,0,1-1.2,1.75A51.68,51.68,0,0,1,48,266.27q-19.87,0-33.93-12.85m81.15,0q-14.06-12.85-14-31t14-31q14.05-12.85,33.93-12.86T163,191.38q14.06,12.85,14.05,31t-14.05,31q-14.06,12.86-33.87,12.85T95.2,253.42m2.65-59.62q-13,11.83-13,28.57t13,28.62q13,11.82,31.28,11.83T160.35,251q13-11.88,13-28.62t-13-28.57q-13-11.88-31.22-11.88T97.85,193.8m97,72.47a1.5,1.5,0,0,1-1.72-1.69v-.37c0-1,.57-1.58,1.72-1.58h26.71a21.1,21.1,0,0,0,14.85-5.7,17.68,17.68,0,0,0,6.23-13.58q0-9.34-7.56-14.25-4.44-2.91-16.7-6.31-11.94-3.39-16.64-6.61-7.54-5.27-7.55-15.1a21.26,21.26,0,0,1,7.35-16.25,25.52,25.52,0,0,1,17.77-6.67h18.82c1.19,0,1.79.52,1.79,1.58v.36c0,1.13-.6,1.7-1.79,1.7H219.3a21.31,21.31,0,0,0-14.92,5.64,17.74,17.74,0,0,0-6.23,13.64,14.41,14.41,0,0,0,7.56,13.16q4,2.43,16.64,5.88Q234.08,223.35,239,227q7.62,5.7,7.62,16.37a21.18,21.18,0,0,1-7.35,16.19,25.31,25.31,0,0,1-17.7,6.73Zm128.8,0c-1.19,0-1.79-.54-1.79-1.63V224.12H269.69v40.52c0,1.09-.59,1.63-1.79,1.63s-1.92-.54-1.92-1.63V180.16c0-1.09.6-1.64,1.79-1.64s1.92.55,1.92,1.64v40.57h52.16V180.16c0-1.09.6-1.64,1.79-1.64s2,.55,2,1.64v84.48c0,1.09-.62,1.63-1.86,1.63Z"/></g></g></svg>