<svg width="17" height="12" viewBox="0 0 17 12" fill="none" xmlns="http://www.w3.org/2000/svg">
<path d="M16.0113 9.08156C15.3549 9.7422 14.6885 10.3914 14.0408 11.0577C13.6567 11.4518 13.3085 11.4289 12.9373 11.0506C12.3011 10.4043 11.629 9.79092 11.0314 9.11165C10.8609 8.91819 10.8981 8.53843 10.8408 8.25182C11.1274 8.30198 11.5 8.25182 11.6906 8.42235C12.0775 8.75482 12.3656 9.20193 12.6937 9.60176L12.9173 9.42549C12.9548 9.26963 12.9797 9.111 12.9918 8.95115C12.9918 6.97067 13.0076 4.99018 12.9918 3.01113C12.976 1.90051 12.3971 1.35738 11.2793 1.34162C10.1615 1.32586 9.03514 1.33732 7.91449 1.32729C7.54332 1.32729 7.09908 1.29433 7.18363 0.80279C7.22232 0.61076 7.65224 0.37144 7.91735 0.359976C9.0638 0.311252 10.2102 0.316984 11.3567 0.344212C12.9947 0.384338 13.9577 1.37171 13.9777 3.014C13.9935 4.87697 13.9777 6.73994 13.9777 8.60292C13.9777 8.87807 14.005 9.15178 14.0322 9.64332C14.5653 9.12885 14.9193 8.72043 15.3435 8.40372C15.5412 8.26042 15.964 8.14864 16.1245 8.26042C16.5157 8.51407 16.2592 8.83221 16.0113 9.08156Z" fill="#C4C4C4"/>
<path d="M9.47364 10.9202C9.45501 11.105 8.96777 11.3687 8.68403 11.3816C7.56624 11.4346 6.44273 11.4303 5.32351 11.3945C3.61387 11.3386 2.69672 10.3828 2.68382 8.67171C2.67092 6.83453 2.68382 4.99878 2.68382 3.1616C2.68382 2.88646 2.64656 2.61274 2.62793 2.3376L2.31552 2.17423C1.98449 2.57978 1.69071 3.03406 1.30379 3.36796C1.13182 3.51127 0.769256 3.45108 0.492676 3.48261C0.537101 3.21176 0.492676 2.85636 0.635981 2.6844C1.27083 1.9779 1.96872 1.32729 2.63653 0.648022C2.96757 0.324151 3.29717 0.282593 3.63967 0.619361C4.33327 1.30866 5.04693 1.98076 5.69754 2.70876C5.84084 2.87499 5.77349 3.24042 5.80358 3.5127C5.5442 3.47974 5.2103 3.53706 5.04263 3.39519C4.64854 3.06272 4.3347 2.63567 3.9879 2.24875L3.75431 2.35193C3.71312 2.58612 3.68537 2.82249 3.6712 3.05986C3.6712 4.8956 3.66116 6.73278 3.6712 8.56996C3.67836 9.85971 4.1914 10.3828 5.49978 10.4157C6.54877 10.4401 7.5992 10.4157 8.6525 10.4329C9.00933 10.4372 9.5281 10.3555 9.47364 10.9202Z" fill="#C4C4C4"/>
</svg>
